<svg version="1.1" id="Layer_1" xmlns="http://www.w3.org/2000/svg" xmlns:xlink="http://www.w3.org/1999/xlink" x="0px" y="0px"
     width="25px" height="25px" viewBox="2.5 2.5 25 25" enable-background="new 2.5 2.5 25 25" xml:space="preserve">
<g>
<g>
<path fill="#000000" d="M16.98,13.829c-0.028,0.22-0.056,0.436-0.076,0.645c-0.015,0.035-0.015,0.077,0,0.123
			c0.01,0.047,0.021,0.07,0.034,0.07c0.29,0.071,0.549,0.192,0.776,0.368c0.228,0.172,0.457,0.336,0.689,0.486
			c0.396,0.27,0.791,0.54,1.187,0.813c0.396,0.275,0.788,0.546,1.178,0.813c0.39,0.268,0.782,0.538,1.176,0.813
			c0.397,0.275,0.787,0.546,1.171,0.813c0.289,0.196,0.511,0.489,0.664,0.873c0.151,0.384,0.192,0.738,0.122,1.064
			c-0.094,0.431-0.281,0.782-0.559,1.056c-0.279,0.274-0.611,0.445-0.995,0.517c-0.303,0.058-0.579,0.054-0.828-0.011
			c-0.251-0.063-0.497-0.183-0.742-0.357c-0.745-0.513-1.49-1.024-2.234-1.535c-0.745-0.509-1.489-1.025-2.233-1.534
			c-0.163-0.105-0.271-0.253-0.323-0.445c-0.051-0.193-0.025-0.357,0.08-0.495c0.104-0.152,0.24-0.233,0.408-0.246
			c0.167-0.012,0.353,0.052,0.551,0.193c0.371,0.255,0.74,0.508,1.107,0.758c0.367,0.253,0.736,0.504,1.109,0.761
			c0.383,0.256,0.764,0.52,1.144,0.786c0.377,0.269,0.76,0.529,1.144,0.787c0.188,0.128,0.378,0.177,0.576,0.147
			c0.197-0.028,0.356-0.125,0.473-0.287c0.116-0.187,0.153-0.375,0.112-0.567c-0.042-0.193-0.16-0.357-0.358-0.497
			c-0.454-0.313-0.908-0.628-1.359-0.94c-0.456-0.313-0.91-0.628-1.371-0.942c-0.461-0.313-0.916-0.63-1.37-0.942
			s-0.909-0.628-1.36-0.94c-0.081-0.059-0.184-0.091-0.306-0.098c-0.123-0.005-0.236-0.003-0.342,0.011
			c-0.151,0.012-0.294,0.016-0.427,0.016c-0.136,0-0.248-0.064-0.342-0.193c-0.104-0.128-0.146-0.255-0.123-0.383
			c0.023-0.128,0.059-0.256,0.104-0.384c0.313-0.767,0.433-1.515,0.358-2.243c-0.074-0.726-0.363-1.428-0.862-2.103
			c-0.36-0.493-0.785-0.871-1.273-1.139C13.17,9.188,12.623,9.02,12.018,8.95c-0.594-0.074-1.152-0.031-1.676,0.125
			C9.818,9.232,9.329,9.497,8.876,9.87c-0.571,0.465-0.986,1-1.249,1.604c-0.261,0.606-0.374,1.275-0.34,2.008
			c0.023,0.43,0.116,0.844,0.28,1.239c0.162,0.396,0.384,0.768,0.663,1.118c0.349,0.431,0.745,0.772,1.187,1.028
			s0.925,0.432,1.448,0.522c0.512,0.095,1.006,0.088,1.483-0.016c0.477-0.104,0.936-0.282,1.378-0.523
			c0.163-0.093,0.331-0.124,0.506-0.098c0.175,0.029,0.308,0.114,0.401,0.254c0.093,0.139,0.117,0.29,0.07,0.454
			c-0.046,0.163-0.157,0.299-0.332,0.401c-0.349,0.222-0.714,0.392-1.099,0.507c-0.385,0.116-0.78,0.204-1.188,0.262
			c-0.407,0.047-0.806,0.047-1.195,0c-0.391-0.047-0.771-0.138-1.143-0.277c-0.955-0.35-1.731-0.859-2.33-1.528
			c-0.599-0.67-1.003-1.5-1.213-2.487c-0.186-0.85-0.186-1.661,0-2.436c0.186-0.774,0.552-1.503,1.099-2.189
			c0.349-0.446,0.748-0.815,1.195-1.112c0.449-0.297,0.935-0.526,1.458-0.689c0.779-0.222,1.539-0.286,2.277-0.193
			s1.458,0.342,2.155,0.751c0.64,0.383,1.166,0.856,1.578,1.421c0.412,0.565,0.713,1.207,0.901,1.929
			c0.056,0.221,0.096,0.445,0.111,0.671c0.018,0.227,0.046,0.446,0.079,0.655C17.036,13.381,17.011,13.608,16.98,13.829z" />
	</g>
</g>
</svg>