<svg version="1.1" id="Layer_1" xmlns="http://www.w3.org/2000/svg" xmlns:xlink="http://www.w3.org/1999/xlink" x="0px" y="0px"
     width="25px" height="25px" viewBox="0 0 25 25" enable-background="new 0 0 25 25" xml:space="preserve">
<g>
<path d="M19.436,4.934h-3.783V3.672c0-0.696-0.564-1.261-1.262-1.261h-3.783c-0.696,0-1.261,0.564-1.261,1.261v1.262H5.563
		c-0.697,0-1.261,0.564-1.261,1.261v1.262c0,0.696,0.563,1.261,1.261,1.261v11.351c0,1.393,1.129,2.521,2.523,2.521h8.828
		c1.393,0,2.521-1.129,2.521-2.521v-8.584c-0.014-0.765-1.232-0.733-1.262,0.016v8.568c0,0.696-0.563,1.262-1.26,1.262H8.085
		c-0.696,0-1.261-0.565-1.261-1.262V8.717h11.35v1.085c0.029,0.542,1.154,0.526,1.262,0.042V8.717c0.697,0,1.262-0.564,1.262-1.261
		V6.194C20.697,5.498,20.133,4.934,19.436,4.934z M10.607,4.303c0-0.348,0.282-0.631,0.631-0.631h2.522
		c0.347,0,0.63,0.283,0.63,0.631v0.631c-0.611,0-3.783,0-3.783,0V4.303z M18.805,7.456H6.193c-0.348,0-0.63-0.283-0.63-0.631
		c0-0.349,0.283-0.631,0.63-0.631h12.611c0.35,0,0.631,0.282,0.631,0.631C19.436,7.173,19.154,7.456,18.805,7.456z" fill="#000000"/>
<path d="M15.021,11.87v7.566c0,0.348,0.283,0.631,0.631,0.631s0.631-0.283,0.631-0.631V11.87c0-0.349-0.283-0.631-0.631-0.631
		S15.021,11.521,15.021,11.87z" fill="#000000"/>
<path d="M8.716,11.87v7.566c0,0.348,0.283,0.631,0.63,0.631s0.63-0.283,0.63-0.631V11.87c0-0.349-0.283-0.631-0.63-0.631
		S8.716,11.521,8.716,11.87z" fill="#000000"/>
<path d="M11.869,11.87v7.566c0,0.348,0.283,0.631,0.631,0.631c0.348,0,0.631-0.283,0.631-0.631V11.87
		c0-0.349-0.283-0.631-0.631-0.631C12.151,11.239,11.869,11.521,11.869,11.87z" fill="#000000"/>
</g>
</svg>