<svg version="1.1" id="Layer_1" xmlns="http://www.w3.org/2000/svg" xmlns:xlink="http://www.w3.org/1999/xlink" x="0px" y="0px"
     width="27px" height="27px" viewBox="0 0 27 27" enable-background="new 0 0 27 27" xml:space="preserve">
<g>
<g>
<g>
<g>
<g>
<path fill="#FFFFFF" d="M18.708,18.689c-0.018,0.131-0.031,0.256-0.046,0.379c-0.007,0.02-0.007,0.045,0,0.07
						c0.008,0.03,0.015,0.043,0.019,0.043c0.173,0.04,0.322,0.112,0.456,0.215c0.134,0.102,0.271,0.197,0.405,0.285
						c0.23,0.158,0.465,0.316,0.695,0.477c0.232,0.162,0.462,0.318,0.69,0.477c0.229,0.156,0.459,0.314,0.69,0.475
						c0.232,0.161,0.462,0.318,0.688,0.475c0.17,0.115,0.299,0.287,0.387,0.512c0.091,0.225,0.112,0.433,0.072,0.624
						c-0.056,0.251-0.165,0.459-0.324,0.618c-0.166,0.16-0.358,0.261-0.583,0.301c-0.178,0.033-0.342,0.033-0.486-0.003
						c-0.146-0.037-0.291-0.108-0.436-0.211c-0.436-0.301-0.873-0.601-1.31-0.899c-0.435-0.299-0.874-0.602-1.31-0.9
						c-0.094-0.061-0.16-0.15-0.189-0.26c-0.028-0.115-0.014-0.211,0.047-0.291c0.063-0.092,0.141-0.135,0.24-0.143
						c0.096-0.01,0.207,0.029,0.322,0.112c0.219,0.149,0.433,0.297,0.651,0.446c0.214,0.146,0.432,0.293,0.649,0.443
						c0.225,0.15,0.447,0.304,0.671,0.462c0.222,0.157,0.444,0.31,0.67,0.462c0.108,0.075,0.222,0.105,0.337,0.088
						c0.116-0.018,0.209-0.074,0.279-0.17c0.065-0.108,0.09-0.219,0.064-0.334c-0.022-0.111-0.095-0.207-0.207-0.291
						c-0.268-0.184-0.535-0.367-0.8-0.551c-0.269-0.182-0.534-0.369-0.804-0.553c-0.271-0.184-0.539-0.367-0.805-0.551
						c-0.268-0.185-0.535-0.368-0.799-0.551c-0.047-0.035-0.108-0.056-0.179-0.057c-0.071-0.005-0.138-0.002-0.2,0.004
						c-0.09,0.008-0.172,0.012-0.25,0.012c-0.08,0-0.146-0.039-0.201-0.113c-0.061-0.075-0.085-0.148-0.072-0.225
						c0.016-0.078,0.035-0.151,0.061-0.227c0.186-0.45,0.256-0.887,0.209-1.314c-0.044-0.426-0.211-0.838-0.506-1.232
						c-0.211-0.289-0.461-0.51-0.748-0.668c-0.283-0.156-0.607-0.256-0.959-0.296c-0.349-0.044-0.678-0.019-0.982,0.073
						c-0.309,0.092-0.595,0.246-0.861,0.465c-0.334,0.275-0.58,0.589-0.73,0.941c-0.155,0.357-0.221,0.748-0.201,1.182
						c0.014,0.248,0.066,0.492,0.166,0.725c0.094,0.232,0.225,0.451,0.389,0.656c0.205,0.252,0.438,0.453,0.695,0.602
						c0.26,0.152,0.543,0.254,0.847,0.309c0.3,0.055,0.591,0.051,0.872-0.011c0.279-0.06,0.548-0.165,0.807-0.308
						c0.094-0.056,0.195-0.07,0.297-0.057c0.102,0.018,0.18,0.066,0.234,0.148c0.057,0.084,0.068,0.17,0.041,0.266
						c-0.025,0.097-0.093,0.176-0.193,0.238c-0.206,0.131-0.42,0.229-0.645,0.295c-0.225,0.07-0.459,0.12-0.695,0.155
						c-0.24,0.025-0.471,0.025-0.701,0c-0.229-0.028-0.451-0.083-0.67-0.165c-0.56-0.206-1.014-0.505-1.365-0.893
						c-0.354-0.396-0.59-0.881-0.713-1.459c-0.109-0.499-0.109-0.975,0-1.428c0.11-0.453,0.324-0.882,0.646-1.284
						c0.206-0.261,0.437-0.478,0.7-0.65c0.264-0.175,0.549-0.311,0.855-0.404c0.455-0.132,0.902-0.17,1.336-0.112
						c0.431,0.053,0.854,0.201,1.262,0.438c0.375,0.225,0.686,0.504,0.924,0.835c0.244,0.332,0.419,0.706,0.529,1.132
						c0.033,0.131,0.057,0.26,0.065,0.395c0.011,0.133,0.025,0.262,0.048,0.385C18.742,18.428,18.728,18.561,18.708,18.689z" />
<path fill="#FFFFFF" d="M21.608,23.895c-0.102,0-0.203-0.013-0.294-0.037c-0.169-0.043-0.334-0.121-0.508-0.244l-2.618-1.798
						c-0.137-0.091-0.232-0.224-0.279-0.388c-0.058-0.232,0.015-0.393,0.085-0.486c0.097-0.137,0.237-0.221,0.404-0.232
						c0.001,0,0.005,0,0.007,0c0.18,0,0.32,0.053,0.463,0.156l1.295,0.887c0.225,0.15,0.448,0.303,0.674,0.463
						c0.219,0.155,0.441,0.307,0.664,0.455c0.057,0.039,0.1,0.058,0.145,0.058c0.091-0.013,0.129-0.035,0.163-0.081
						c0.04-0.063,0.036-0.115,0.027-0.156c-0.007-0.031-0.027-0.088-0.122-0.155l-3.199-2.205c-0.008-0.007-0.022-0.015-0.061-0.017
						l-0.064-0.002c-0.033,0-0.064,0-0.096,0.006c-0.105,0.008-0.194,0.013-0.279,0.013c-0.104,0-0.254-0.035-0.382-0.206
						c-0.123-0.154-0.131-0.301-0.112-0.398c0.018-0.09,0.04-0.173,0.07-0.262c0.176-0.429,0.24-0.823,0.197-1.217
						c-0.039-0.383-0.193-0.76-0.463-1.121c-0.191-0.264-0.411-0.461-0.674-0.605c-0.26-0.141-0.555-0.232-0.879-0.27
						c-0.321-0.041-0.613-0.02-0.893,0.064c-0.277,0.085-0.541,0.227-0.781,0.424c-0.305,0.25-0.529,0.538-0.667,0.856
						c-0.142,0.327-0.201,0.681-0.183,1.079c0.014,0.227,0.063,0.445,0.148,0.648c0.088,0.211,0.207,0.415,0.357,0.602
						c0.18,0.227,0.393,0.411,0.631,0.549c0.238,0.136,0.5,0.231,0.775,0.281c0.27,0.051,0.531,0.047,0.783-0.01
						c0.254-0.055,0.504-0.148,0.746-0.283c0.133-0.074,0.282-0.104,0.438-0.084c0.172,0.03,0.305,0.116,0.392,0.25
						c0.091,0.133,0.114,0.288,0.07,0.448c-0.044,0.155-0.146,0.281-0.296,0.369c-0.219,0.138-0.455,0.245-0.693,0.319
						c-0.224,0.068-0.469,0.123-0.73,0.162c-0.271,0.031-0.513,0.027-0.759,0c-0.248-0.031-0.491-0.09-0.723-0.176
						c-0.589-0.215-1.078-0.536-1.456-0.957c-0.377-0.42-0.634-0.945-0.764-1.563c-0.115-0.525-0.115-1.038,0-1.525
						c0.117-0.482,0.35-0.945,0.689-1.369c0.222-0.281,0.475-0.517,0.752-0.697c0.281-0.184,0.587-0.33,0.912-0.432
						c0.492-0.141,0.966-0.181,1.433-0.121c0.458,0.057,0.912,0.213,1.349,0.468c0.401,0.243,0.735,0.544,0.992,0.896
						c0.261,0.355,0.451,0.762,0.564,1.209c0.039,0.148,0.063,0.289,0.072,0.432c0.011,0.125,0.026,0.246,0.046,0.364l0.003,0.03
						l-0.002,0.029c-0.016,0.139-0.031,0.273-0.047,0.404c-0.014,0.1-0.026,0.199-0.037,0.295c0.148,0.052,0.27,0.117,0.38,0.203
						c0.128,0.1,0.261,0.191,0.392,0.277l0.152,0.102c0.184,0.127,0.367,0.251,0.548,0.379l2.067,1.429
						c0.205,0.139,0.363,0.347,0.469,0.613s0.131,0.521,0.083,0.755c-0.063,0.295-0.193,0.541-0.387,0.731
						c-0.196,0.193-0.433,0.314-0.703,0.362C21.797,23.883,21.7,23.895,21.608,23.895z M18.437,21.157
						c-0.03,0.001-0.053,0.007-0.082,0.05c-0.012,0.018-0.028,0.039-0.012,0.106c0.016,0.056,0.045,0.095,0.094,0.13l2.625,1.803
						c0.129,0.091,0.243,0.148,0.359,0.176c0.114,0.029,0.246,0.029,0.391,0.001c0.186-0.032,0.338-0.112,0.469-0.241
						c0.131-0.131,0.217-0.297,0.264-0.508c0.03-0.145,0.012-0.307-0.061-0.492c-0.072-0.183-0.174-0.318-0.305-0.409l-2.07-1.429
						c-0.181-0.127-0.363-0.249-0.545-0.375l-0.147-0.1c-0.138-0.09-0.278-0.188-0.415-0.293c-0.11-0.084-0.232-0.141-0.371-0.174
						l-0.135-0.031l-0.051-0.176c-0.02-0.068-0.016-0.137,0.007-0.2c0.001-0.073,0.018-0.203,0.033-0.334
						c0.017-0.116,0.03-0.237,0.044-0.36c-0.02-0.119-0.035-0.244-0.044-0.373c-0.009-0.121-0.03-0.238-0.06-0.355
						c-0.102-0.395-0.264-0.741-0.492-1.056c-0.222-0.304-0.51-0.564-0.857-0.772c-0.382-0.221-0.777-0.359-1.176-0.408
						c-0.404-0.053-0.822-0.017-1.248,0.105c-0.281,0.088-0.549,0.212-0.791,0.373c-0.24,0.157-0.456,0.359-0.65,0.605
						c-0.299,0.373-0.502,0.775-0.604,1.193c-0.101,0.42-0.1,0.865,0.001,1.327c0.114,0.54,0.337,0.995,0.659,1.356
						c0.326,0.365,0.756,0.646,1.275,0.834c0.201,0.076,0.408,0.127,0.62,0.152c0.208,0.025,0.427,0.023,0.65,0
						c0.229-0.033,0.45-0.082,0.653-0.146c0.205-0.059,0.403-0.153,0.594-0.272c0.071-0.042,0.089-0.082,0.096-0.109
						c0.01-0.029,0.006-0.051-0.015-0.076c-0.015-0.022-0.033-0.045-0.085-0.053c-0.068-0.004-0.11,0.008-0.146,0.031
						c-0.285,0.156-0.578,0.268-0.873,0.33c-0.312,0.066-0.637,0.07-0.959,0.012c-0.326-0.057-0.637-0.17-0.918-0.334
						c-0.286-0.164-0.542-0.387-0.76-0.656c-0.176-0.223-0.318-0.461-0.42-0.711c-0.104-0.246-0.168-0.516-0.183-0.798
						c-0.021-0.464,0.052-0.895,0.22-1.28c0.166-0.385,0.432-0.73,0.794-1.025c0.288-0.236,0.604-0.406,0.938-0.507
						c0.342-0.103,0.699-0.129,1.075-0.083c0.38,0.045,0.731,0.152,1.04,0.32c0.316,0.174,0.592,0.423,0.82,0.732
						c0.315,0.426,0.5,0.878,0.547,1.344c0.049,0.461-0.026,0.94-0.225,1.422c-0.02,0.053-0.037,0.116-0.05,0.182l0.032,0.051
						c0.093,0.021,0.169,0.02,0.252,0.012c0.035-0.005,0.088-0.007,0.141-0.007l0.088,0.002c0.117,0.005,0.219,0.038,0.301,0.099
						l3.197,2.205c0.166,0.12,0.266,0.263,0.303,0.43c0.037,0.174,0.004,0.341-0.096,0.501c-0.113,0.159-0.261,0.246-0.437,0.273
						c-0.153,0.021-0.337-0.019-0.495-0.128c-0.225-0.148-0.449-0.304-0.672-0.461c-0.222-0.158-0.445-0.309-0.666-0.46l-1.301-0.89
						C18.513,21.164,18.457,21.157,18.437,21.157z" />
				</g>
			</g>
		</g>
	</g>
<path fill="none" stroke="#FFFFFF" stroke-width="1.25" stroke-linecap="round" stroke-linejoin="round" stroke-miterlimit="10" d="
		M13.46,13.365c-0.104-0.033-0.759-0.329-0.352-1.573h-0.004c1.067-1.099,1.882-2.868,1.882-4.607c0-2.677-1.781-4.079-3.849-4.079
		c-2.069,0-3.838,1.403-3.838,4.079c0,1.748,0.811,3.522,1.884,4.619c0.418,1.097-0.33,1.504-0.486,1.562
		C6.53,14.146,3.99,15.576,3.99,16.984c0,0.381,0,0.15,0,0.527c0,1.922,2.83,2.357,6.275,2.357" />
<path fill="#FFFFFF" d="M9.865,19.418c0-1.706,1.057-4.234,1.057-4.234l-0.731-0.59c0-0.564,0.947-1.153,0.947-1.153
		s0.944,0.598,0.944,1.153l-0.729,0.59c0,0,1.058,2.395,1.058,4.129C12.411,19.584,9.865,19.646,9.865,19.418z" />
</g>
</svg>