<svg version="1.1" id="Layer_1" xmlns="http://www.w3.org/2000/svg" xmlns:xlink="http://www.w3.org/1999/xlink" x="0px" y="0px"
     width="27px" height="27px" viewBox="1.5 1.5 27 27" enable-background="new 1.5 1.5 27 27" xml:space="preserve">
<g>
<g>
<g>
<g>
<g>
<path fill="#FFFFFF" d="M20.207,20.189c-0.018,0.13-0.031,0.256-0.045,0.379c-0.008,0.02-0.008,0.045,0,0.07
						c0.006,0.03,0.014,0.043,0.019,0.043c0.173,0.04,0.321,0.112,0.456,0.215c0.133,0.102,0.27,0.198,0.405,0.286
						c0.23,0.158,0.464,0.316,0.694,0.476c0.232,0.162,0.463,0.318,0.691,0.477c0.229,0.156,0.459,0.314,0.69,0.475
						c0.231,0.162,0.46,0.32,0.688,0.477c0.169,0.114,0.299,0.287,0.387,0.512c0.089,0.225,0.112,0.433,0.071,0.624
						c-0.054,0.251-0.163,0.459-0.324,0.618c-0.166,0.16-0.359,0.261-0.584,0.301c-0.178,0.033-0.341,0.033-0.485-0.003
						c-0.147-0.037-0.292-0.109-0.436-0.211c-0.437-0.301-0.874-0.602-1.31-0.9s-0.874-0.601-1.31-0.899
						c-0.095-0.063-0.16-0.15-0.19-0.261c-0.027-0.114-0.014-0.211,0.048-0.292c0.062-0.09,0.141-0.135,0.239-0.143
						c0.097-0.008,0.207,0.03,0.323,0.113c0.218,0.149,0.433,0.297,0.65,0.446c0.214,0.146,0.431,0.294,0.648,0.442
						c0.226,0.152,0.448,0.305,0.672,0.463c0.222,0.156,0.444,0.31,0.669,0.461c0.109,0.075,0.223,0.105,0.338,0.088
						c0.116-0.018,0.209-0.074,0.277-0.169c0.067-0.109,0.09-0.22,0.065-0.334c-0.022-0.112-0.093-0.208-0.207-0.292
						c-0.268-0.183-0.534-0.367-0.8-0.551c-0.268-0.182-0.533-0.369-0.804-0.553s-0.538-0.367-0.804-0.551
						c-0.267-0.185-0.533-0.369-0.797-0.552c-0.048-0.035-0.109-0.055-0.18-0.058c-0.072-0.004-0.139-0.002-0.201,0.005
						c-0.089,0.007-0.172,0.011-0.249,0.011c-0.081,0-0.146-0.039-0.202-0.113c-0.06-0.075-0.084-0.148-0.072-0.225
						c0.016-0.077,0.035-0.15,0.062-0.227c0.185-0.45,0.255-0.886,0.21-1.314c-0.045-0.426-0.211-0.837-0.507-1.232
						c-0.211-0.289-0.459-0.51-0.747-0.668c-0.285-0.156-0.606-0.255-0.96-0.295c-0.348-0.045-0.677-0.02-0.982,0.073
						c-0.308,0.091-0.595,0.246-0.86,0.464c-0.334,0.274-0.58,0.589-0.731,0.942c-0.155,0.356-0.221,0.747-0.201,1.18
						c0.015,0.249,0.068,0.492,0.166,0.724c0.094,0.232,0.225,0.452,0.388,0.656c0.205,0.253,0.437,0.453,0.696,0.603
						c0.26,0.151,0.543,0.253,0.847,0.308c0.301,0.055,0.591,0.051,0.872-0.01c0.28-0.061,0.549-0.166,0.808-0.309
						c0.094-0.055,0.194-0.07,0.297-0.056c0.102,0.018,0.181,0.066,0.233,0.149c0.056,0.082,0.068,0.17,0.042,0.266
						s-0.093,0.176-0.193,0.236c-0.205,0.131-0.42,0.229-0.645,0.296c-0.226,0.07-0.459,0.12-0.696,0.155
						c-0.239,0.025-0.472,0.025-0.702,0c-0.229-0.029-0.451-0.083-0.669-0.164c-0.56-0.205-1.015-0.504-1.366-0.895
						c-0.352-0.395-0.589-0.879-0.712-1.459c-0.109-0.498-0.109-0.975,0-1.428c0.11-0.453,0.325-0.881,0.645-1.283
						c0.207-0.26,0.438-0.479,0.7-0.65c0.264-0.174,0.548-0.309,0.856-0.404c0.455-0.13,0.901-0.168,1.336-0.112
						c0.431,0.053,0.854,0.2,1.262,0.439c0.374,0.224,0.686,0.503,0.925,0.833c0.242,0.332,0.418,0.707,0.529,1.133
						c0.033,0.129,0.057,0.26,0.064,0.393c0.011,0.135,0.027,0.263,0.048,0.386C20.24,19.928,20.225,20.061,20.207,20.189z" />
<path fill="#FFFFFF" d="M23.107,25.395c-0.104,0-0.203-0.013-0.295-0.037c-0.169-0.043-0.334-0.121-0.508-0.244l-2.617-1.799
						c-0.138-0.09-0.234-0.223-0.28-0.387c-0.058-0.232,0.015-0.392,0.085-0.486c0.096-0.138,0.236-0.221,0.404-0.232
						c0.002,0,0.005,0,0.007,0c0.179,0,0.319,0.053,0.462,0.156l1.296,0.887c0.225,0.15,0.448,0.304,0.673,0.463
						c0.22,0.155,0.441,0.307,0.664,0.456c0.057,0.038,0.101,0.056,0.146,0.056c0.09-0.012,0.129-0.035,0.162-0.08
						c0.04-0.063,0.037-0.116,0.027-0.156c-0.007-0.032-0.027-0.088-0.121-0.155l-3.199-2.206c-0.007-0.006-0.022-0.014-0.062-0.016
						l-0.065-0.002c-0.033,0-0.064,0-0.094,0.006c-0.105,0.008-0.195,0.012-0.28,0.012c-0.104,0-0.255-0.035-0.382-0.205
						c-0.123-0.153-0.129-0.301-0.111-0.398c0.018-0.089,0.04-0.174,0.07-0.262c0.176-0.429,0.238-0.824,0.196-1.216
						c-0.038-0.384-0.193-0.761-0.462-1.122c-0.191-0.264-0.412-0.46-0.674-0.605c-0.26-0.141-0.555-0.232-0.879-0.27
						c-0.321-0.041-0.613-0.02-0.893,0.064c-0.276,0.085-0.541,0.228-0.781,0.424c-0.306,0.25-0.531,0.538-0.667,0.856
						c-0.142,0.327-0.201,0.681-0.182,1.079c0.012,0.227,0.062,0.445,0.147,0.648c0.088,0.211,0.206,0.415,0.357,0.602
						c0.181,0.227,0.394,0.411,0.631,0.549c0.238,0.137,0.499,0.231,0.775,0.281c0.271,0.051,0.532,0.047,0.783-0.01
						c0.254-0.054,0.505-0.148,0.746-0.282c0.133-0.075,0.283-0.104,0.438-0.085c0.172,0.03,0.306,0.116,0.393,0.25
						c0.091,0.134,0.113,0.288,0.07,0.448c-0.045,0.155-0.146,0.281-0.296,0.369c-0.22,0.139-0.455,0.246-0.694,0.319
						c-0.223,0.069-0.469,0.123-0.729,0.162c-0.272,0.031-0.513,0.028-0.759,0c-0.25-0.031-0.491-0.09-0.723-0.176
						c-0.589-0.215-1.078-0.536-1.456-0.956s-0.634-0.946-0.765-1.563c-0.115-0.526-0.115-1.039,0.001-1.526
						c0.117-0.482,0.349-0.945,0.689-1.369c0.222-0.281,0.475-0.517,0.753-0.697c0.28-0.186,0.586-0.331,0.913-0.432
						c0.49-0.141,0.965-0.181,1.432-0.121c0.458,0.057,0.912,0.213,1.348,0.468c0.402,0.243,0.736,0.544,0.993,0.896
						c0.261,0.356,0.45,0.762,0.564,1.209c0.038,0.149,0.063,0.29,0.071,0.432c0.012,0.125,0.027,0.246,0.047,0.364l0.003,0.03
						l-0.002,0.029c-0.016,0.139-0.031,0.273-0.048,0.404c-0.014,0.101-0.025,0.199-0.036,0.296c0.147,0.051,0.269,0.118,0.38,0.202
						c0.128,0.1,0.26,0.191,0.392,0.277l0.151,0.102c0.185,0.127,0.367,0.252,0.549,0.379l2.066,1.429
						c0.206,0.139,0.364,0.347,0.47,0.613c0.105,0.268,0.132,0.521,0.083,0.755c-0.064,0.295-0.193,0.541-0.387,0.73
						c-0.197,0.193-0.434,0.314-0.703,0.364C23.296,25.384,23.199,25.395,23.107,25.395z M19.937,22.657
						c-0.032,0.002-0.053,0.007-0.083,0.05c-0.012,0.018-0.027,0.04-0.012,0.106c0.016,0.055,0.045,0.095,0.095,0.128l2.624,1.805
						c0.129,0.089,0.244,0.146,0.361,0.176c0.113,0.029,0.246,0.029,0.39,0.001c0.185-0.033,0.337-0.112,0.47-0.241
						c0.131-0.131,0.216-0.297,0.264-0.508c0.029-0.146,0.01-0.307-0.063-0.492c-0.071-0.183-0.174-0.318-0.304-0.409l-2.07-1.429
						c-0.181-0.127-0.364-0.25-0.545-0.375l-0.147-0.1c-0.138-0.09-0.278-0.188-0.415-0.294c-0.11-0.085-0.232-0.141-0.371-0.174
						l-0.136-0.032l-0.051-0.176c-0.02-0.068-0.016-0.137,0.008-0.2c0.001-0.073,0.018-0.202,0.033-0.334
						c0.016-0.116,0.029-0.237,0.043-0.36c-0.019-0.119-0.035-0.244-0.043-0.373c-0.01-0.121-0.03-0.238-0.061-0.354
						c-0.102-0.396-0.264-0.741-0.492-1.057c-0.221-0.304-0.51-0.563-0.857-0.771c-0.381-0.222-0.777-0.36-1.176-0.409
						c-0.404-0.053-0.821-0.016-1.248,0.105c-0.281,0.088-0.548,0.213-0.792,0.374c-0.239,0.156-0.456,0.358-0.649,0.604
						c-0.299,0.373-0.502,0.775-0.603,1.193c-0.101,0.42-0.1,0.865,0.001,1.328c0.114,0.539,0.336,0.994,0.659,1.356
						c0.327,0.364,0.757,0.646,1.276,0.833c0.2,0.076,0.408,0.127,0.619,0.153c0.209,0.024,0.427,0.022,0.65,0
						c0.229-0.034,0.449-0.083,0.653-0.146c0.204-0.061,0.403-0.153,0.593-0.273c0.072-0.042,0.09-0.082,0.097-0.108
						c0.009-0.03,0.005-0.052-0.015-0.077c-0.014-0.023-0.033-0.045-0.084-0.053c-0.068-0.004-0.111,0.008-0.147,0.031
						c-0.285,0.156-0.577,0.268-0.872,0.33c-0.311,0.067-0.637,0.07-0.96,0.013c-0.325-0.058-0.636-0.171-0.919-0.334
						c-0.285-0.165-0.541-0.387-0.759-0.657c-0.176-0.222-0.319-0.461-0.42-0.711c-0.104-0.247-0.167-0.516-0.182-0.797
						c-0.021-0.465,0.052-0.896,0.219-1.28c0.166-0.385,0.433-0.731,0.794-1.026c0.287-0.236,0.604-0.406,0.938-0.506
						c0.342-0.103,0.7-0.129,1.076-0.083c0.38,0.044,0.731,0.153,1.041,0.321c0.316,0.174,0.592,0.422,0.82,0.733
						c0.314,0.425,0.5,0.877,0.547,1.343c0.049,0.461-0.026,0.94-0.225,1.422c-0.02,0.053-0.037,0.116-0.049,0.182l0.031,0.051
						c0.093,0.021,0.17,0.02,0.253,0.012c0.035-0.005,0.088-0.007,0.141-0.007l0.088,0.002c0.116,0.005,0.218,0.038,0.301,0.099
						l3.197,2.206c0.165,0.119,0.266,0.262,0.302,0.429c0.037,0.174,0.004,0.341-0.096,0.501c-0.113,0.158-0.261,0.246-0.437,0.272
						c-0.153,0.021-0.337-0.018-0.495-0.127c-0.224-0.148-0.449-0.304-0.672-0.46c-0.222-0.158-0.445-0.31-0.666-0.461l-1.301-0.89
						C20.012,22.664,19.956,22.657,19.937,22.657z" />
				</g>
			</g>
		</g>
	</g>
<path fill="none" stroke="#FFFFFF" stroke-width="1.25" stroke-linecap="round" stroke-linejoin="round" stroke-miterlimit="10" d="
		M14.959,14.865c-0.104-0.033-0.759-0.329-0.351-1.573h-0.005c1.067-1.098,1.883-2.867,1.883-4.607c0-2.676-1.782-4.078-3.85-4.078
		c-2.069,0-3.838,1.402-3.838,4.078c0,1.748,0.811,3.523,1.884,4.619c0.418,1.097-0.33,1.504-0.486,1.561
		c-2.167,0.781-4.707,2.211-4.707,3.621c0,0.379,0,0.148,0,0.527c0,1.921,2.829,2.357,6.275,2.357" />
</g>
</svg>