<svg width="23.999999999999996" height="23.999999999999996" xmlns="http://www.w3.org/2000/svg">

 <g>
  <title>background</title>
  <rect fill="none" id="canvas_background" height="402" width="582" y="-1" x="-1"/>
 </g>
 <g>
  <title>Layer 1</title>
  <path fill="#000000" fill-opacity="0.54" opacity="0.8" stroke-width="0" id="svg_1" d="m19,19.756954l-14,0l0,-11l14,0m-3,-7l0,2l-8,0l0,-2l-2,0l0,2l-1,0c-1.11,0 -2,0.89 -2,2l0,14a2,2 0 0 0 2,2l14,0a2,2 0 0 0 2,-2l0,-14c0,-1.11 -0.9,-2 -2,-2l-1,0l0,-2m-1,11l-5,0l0,5l5,0l0,-5z"/>
 </g>
</svg>