<?xml version="1.0" encoding="utf-8"?>
<!-- Generator: Adobe Illustrator 23.1.0, SVG Export Plug-In . SVG Version: 6.00 Build 0)  -->
<svg version="1.1" id="Layer_1" xmlns="http://www.w3.org/2000/svg" xmlns:xlink="http://www.w3.org/1999/xlink" x="0px" y="0px"
	 viewBox="0 0 24 24" style="enable-background:new 0 0 24 24;" xml:space="preserve">
<style type="text/css">
	.st0{fill:#0F76C7;}
</style>
<g>
	<path class="st0" d="M6.1,5.2C7.7,3.6,9.7,2.8,12,2.8c2.3,0,4.3,0.8,5.9,2.4c1.6,1.6,2.4,3.6,2.4,5.9c0,2.3-0.8,4.3-2.4,5.9
		c-1.6,1.6-3.6,2.4-5.9,2.4c-2.3,0-4.3-0.8-5.9-2.4c-1.6-1.6-2.4-3.6-2.4-5.9C3.7,8.8,4.5,6.9,6.1,5.2z M12.8,8.6V6.9h-1.6v1.7H12.8
		z M12.8,15.3v-5h-1.6v5H12.8z"/>
</g>
</svg>
