<?xml version="1.0" encoding="utf-8"?>
<!-- Generator: Adobe Illustrator 24.3.0, SVG Export Plug-In . SVG Version: 6.00 Build 0)  -->
<svg version="1.1" id="Layer_1" xmlns="http://www.w3.org/2000/svg" xmlns:xlink="http://www.w3.org/1999/xlink" x="0px" y="0px"
	 viewBox="0 0 500 247" style="enable-background:new 0 0 500 247;" xml:space="preserve">
<style type="text/css">
	.st0{fill-rule:evenodd;clip-rule:evenodd;fill:#CC2E29;}
	.st1{fill-rule:evenodd;clip-rule:evenodd;fill:#4D5EE0;}
	.st2{fill:none;stroke:#4472C4;stroke-width:0.6316;stroke-miterlimit:10;}
	.st3{fill:none;stroke:#4472C4;stroke-width:1.0914;stroke-miterlimit:10;}
	.st4{fill-rule:evenodd;clip-rule:evenodd;fill:#EAECED;}
	.st5{fill-rule:evenodd;clip-rule:evenodd;fill:#D2D6D9;}
	.st6{fill:none;stroke:#6B6F73;stroke-width:1.3296;stroke-miterlimit:10;}
	.st7{fill-rule:evenodd;clip-rule:evenodd;fill:#179D71;}
	.st8{fill:none;stroke:#000000;stroke-width:3.639;stroke-linecap:round;stroke-linejoin:round;stroke-miterlimit:10;}
</style>
<rect x="12.4" y="151" class="st0" width="93.8" height="11.6"/>
<rect x="106.2" y="151" class="st1" width="91.1" height="11.6"/>
<line class="st2" x1="8.9" y1="172.3" x2="478.9" y2="172.3"/>
<line class="st3" x1="9.5" y1="172.3" x2="9.5" y2="182.2"/>
<line class="st3" x1="103.4" y1="172.3" x2="103.4" y2="182.2"/>
<line class="st3" x1="197.3" y1="172.3" x2="197.3" y2="182.2"/>
<line class="st3" x1="291.1" y1="172.3" x2="291.1" y2="182.2"/>
<line class="st3" x1="385" y1="172.3" x2="385" y2="182.2"/>
<line class="st3" x1="478.9" y1="172.3" x2="478.9" y2="182.2"/>
<path class="st4" d="M15.7,83h457.2c3.4,0,6.1,3.2,6.1,7.3v43.5c0,4.1-2.7,7.3-6.1,7.3H15.7c-3.4,0-6.1-3.2-6.1-7.3V90.3
	C9.6,86.4,12.3,83,15.7,83z"/>
<path class="st5" d="M16.9,83h367.5v58.2H16.9c-4.1,0-7.2-3.2-7.2-7.3V90.3C9.6,86.2,12.8,82.9,16.9,83L16.9,83z"/>
<path class="st5" d="M16.9,83h367.8v58.2H16.9c-4.1,0-7.2-3.2-7.2-7.3V90.3C9.6,86.2,12.8,82.9,16.9,83L16.9,83z"/>
<path class="st1" d="M19.4,86.7h170.9c3.9,0,7,3.2,7,7v36.8c0,3.9-3.2,7-7,7H19.4c-3.5,0-6.4-2.8-6.4-6.4v-38
	C13,89.6,15.7,86.7,19.4,86.7z"/>
<g>
	<path d="M242.3,54.8h1.6v2.3h-1.6v3.1h-2.9v-3.1h-5.8l-0.1-1.7l6.1-9.6h2.9L242.3,54.8L242.3,54.8z M236.2,54.8h3.2v-5.1l-0.1,0.3
		L236.2,54.8L236.2,54.8z"/>
	<path id="_x31__12_" d="M255.3,54.4c0,2-0.4,3.5-1.2,4.7c-0.9,1-2,1.6-3.6,1.6c-1.6,0-2.8-0.6-3.6-1.6c-0.9-1-1.2-2.6-1.3-4.5v-2.8
		c0-2,0.4-3.5,1.2-4.7c0.9-1,2-1.6,3.6-1.6c1.6,0,2.8,0.6,3.6,1.6c0.9,1,1.2,2.6,1.3,4.5V54.4z M252.4,51.3c0-1.2-0.1-2-0.6-2.6
		c-0.3-0.6-0.9-0.9-1.5-0.9c-0.7,0-1.2,0.3-1.5,0.9c-0.3,0.6-0.6,1.3-0.6,2.5v3.5c0,1.2,0.1,2,0.6,2.8c0.3,0.6,0.9,0.9,1.5,0.9
		c0.7,0,1.2-0.3,1.5-0.9s0.4-1.3,0.6-2.6V51.3z"/>
</g>
<g>
	<path d="M237.3,226.1v9.6c0,1.6-0.6,2.8-1.5,3.8c-0.9,0.9-2.3,1.3-4.1,1.3c-1.7,0-3.1-0.4-4.1-1.3c-0.9-0.9-1.5-2.2-1.5-3.6v-9.8
		h2.9v9.6c0,0.9,0.3,1.6,0.7,2c0.4,0.4,1,0.7,1.9,0.7c1.6,0,2.6-0.9,2.6-2.8v-9.6L237.3,226.1L237.3,226.1z"/>
	<path id="_x31__13_" d="M242.3,229.8l0.1,1.2c0.9-0.9,1.7-1.5,3.1-1.5c1,0,2,0.3,2.6,0.9c0.6,0.7,0.9,1.6,0.9,2.9v7h-2.8v-6.7
		c0-0.7-0.1-1-0.4-1.3c-0.3-0.3-0.7-0.4-1.3-0.4c-0.9,0-1.3,0.4-1.7,1v7.6h-2.8v-10.8L242.3,229.8L242.3,229.8z"/>
	<path id="_x32__3_" d="M253.9,240.5h-2.8v-10.8h2.8V240.5z M250.9,227c0-0.4,0.1-0.9,0.4-1c0.3-0.3,0.7-0.4,1.2-0.4
		s0.9,0.1,1.2,0.4c0.3,0.3,0.4,0.7,0.4,1c0,0.4-0.1,0.9-0.4,1c-0.3,0.3-0.7,0.4-1.2,0.4s-0.9-0.1-1.2-0.4
		C251,227.9,250.9,227.4,250.9,227z"/>
	<path id="_x33_" d="M259.9,227.1v2.8h1.9v2.2h-1.9v5.4c0,0.4,0.1,0.7,0.3,0.9s0.4,0.3,0.9,0.3c0.3,0,0.6,0,0.9-0.1v2.2
		c-0.6,0.1-1,0.3-1.7,0.3c-2,0-3.1-1-3.1-3.1v-5.8h-1.6v-2.2h1.6v-2.8L259.9,227.1L259.9,227.1z"/>
</g>
<path class="st6" d="M15.7,83H473c3.4,0,6.1,3.2,6.1,7.3v43.5c0,4.1-2.7,7.3-6.1,7.3H15.7c-3.4,0-6.1-3.2-6.1-7.3V90.3
	C9.6,86.4,12.3,83,15.7,83z"/>
<polygon points="17.6,8.8 13,8.8 13,21.7 11.1,21.7 11.1,8.8 6.4,8.8 6.4,7.2 17.6,7.2 "/>
<path id="_x31__14_" d="M21.6,21.7h-2V11h2V21.7z M21.6,8.2h-2v-2h2V8.2z"/>
<path id="_x32__4_" d="M27.1,8.3V11h2v1.5h-2v6.4c0,0.6,0.1,0.9,0.3,1c0.3,0.3,0.6,0.3,0.9,0.3c0.1,0,0.3,0,0.4,0s0.3,0,0.4-0.1
	l0.3,1.3c-0.1,0.1-0.4,0.3-0.7,0.3c-0.3,0.1-0.6,0.1-0.9,0.1c-0.9,0-1.5-0.3-1.9-0.7c-0.4-0.6-0.7-1.2-0.7-2.3v-6.4h-1.7v-1.5h1.7
	V8.2L27.1,8.3L27.1,8.3z"/>
<polygon id="_x33__1_" points="33.7,21.7 31.8,21.7 31.8,6.1 33.7,6.1 "/>
<path id="_x34_" d="M41.2,21.9c-1.5,0-2.8-0.6-3.6-1.5c-0.9-0.9-1.3-2.3-1.3-3.9V16c0-1.5,0.4-2.8,1.3-3.8c0.9-1,2-1.5,3.2-1.5
	c1.5,0,2.6,0.4,3.2,1.3c0.9,0.9,1,2,1,3.5v1.2h-7l0,0c0,1,0.3,1.9,0.9,2.6c0.6,0.7,1.2,0.9,2.2,0.9c0.7,0,1.2-0.1,1.7-0.3
	c0.6-0.1,0.9-0.4,1.3-0.9l0.9,1.2c-0.4,0.4-0.9,0.7-1.5,0.9C42.8,21.7,42.2,21.9,41.2,21.9z M40.9,12.3c-0.7,0-1.2,0.3-1.6,0.9
	c-0.4,0.6-0.9,1.2-0.9,2l0,0h4.9v-0.3c0-0.9-0.3-1.3-0.7-1.9C42.5,12.4,41.8,12.1,40.9,12.3L40.9,12.3z"/>
<rect x="197.3" y="151" class="st7" width="281.4" height="11.6"/>
<line class="st8" x1="384.9" y1="147.4" x2="385" y2="77.2"/>
<g>
	<path d="M14.2,197.1c0,1.9-0.4,3.3-1.2,4.3s-1.9,1.5-3.4,1.5s-2.6-0.5-3.4-1.5S5,199,5,197.1v-3.4c0-1.8,0.4-3.3,1.2-4.3
		c0.8-1,1.9-1.5,3.4-1.5c1.4,0,2.6,0.5,3.4,1.5c0.8,1,1.2,2.4,1.2,4.3V197.1z M12.3,193.3c0-1.3-0.2-2.2-0.7-2.8
		c-0.5-0.6-1.1-0.9-2-0.9s-1.5,0.3-2,0.9S7,192,7,193.3v4.2c0,1.3,0.2,2.2,0.7,2.8c0.5,0.6,1.1,1,2,1s1.5-0.3,2-1
		c0.4-0.6,0.7-1.6,0.7-2.8V193.3z"/>
</g>
<g>
	<path d="M468.5,202.7h-2v-12.6l-3,0v-1.4l4.9-0.5V202.7z"/>
	<path d="M483.5,197.2c0,1.9-0.4,3.3-1.2,4.3c-0.8,1-1.9,1.5-3.4,1.5c-1.4,0-2.6-0.5-3.4-1.5c-0.8-1-1.2-2.4-1.2-4.2v-3.4
		c0-1.8,0.4-3.3,1.2-4.3c0.8-1,1.9-1.5,3.4-1.5c1.4,0,2.6,0.5,3.4,1.5c0.8,1,1.2,2.4,1.2,4.3V197.2z M481.5,193.4
		c0-1.3-0.2-2.2-0.7-2.8c-0.5-0.6-1.1-0.9-2-0.9c-0.9,0-1.5,0.3-2,0.9c-0.5,0.6-0.7,1.6-0.7,2.8v4.2c0,1.3,0.2,2.2,0.7,2.8
		c0.5,0.6,1.1,1,2,1c0.9,0,1.5-0.3,2-1c0.4-0.6,0.7-1.6,0.7-2.8V193.4z"/>
	<path d="M495,197.2c0,1.9-0.4,3.3-1.2,4.3c-0.8,1-1.9,1.5-3.4,1.5s-2.6-0.5-3.4-1.5c-0.8-1-1.2-2.4-1.2-4.2v-3.4
		c0-1.8,0.4-3.3,1.2-4.3c0.8-1,1.9-1.5,3.4-1.5c1.4,0,2.6,0.5,3.4,1.5c0.8,1,1.2,2.4,1.2,4.3V197.2z M493,193.4
		c0-1.3-0.2-2.2-0.7-2.8s-1.1-0.9-2-0.9c-0.9,0-1.5,0.3-2,0.9s-0.7,1.6-0.7,2.8v4.2c0,1.3,0.2,2.2,0.7,2.8s1.1,1,2,1
		c0.9,0,1.5-0.3,2-1c0.4-0.6,0.7-1.6,0.7-2.8V193.4z"/>
</g>
<g>
	<path d="M383.5,190.8c0,0.8-0.2,1.4-0.6,2c-0.4,0.6-1,1-1.7,1.3c0.8,0.3,1.5,0.8,2,1.4c0.5,0.6,0.8,1.3,0.8,2.2
		c0,1.3-0.4,2.4-1.3,3.1c-0.9,0.7-2,1.1-3.4,1.1c-1.4,0-2.6-0.4-3.4-1.1c-0.9-0.7-1.3-1.7-1.3-3.1c0-0.8,0.2-1.5,0.7-2.2
		c0.5-0.6,1.2-1.1,2-1.4c-0.7-0.3-1.3-0.7-1.7-1.3c-0.4-0.6-0.6-1.2-0.6-2c0-1.3,0.4-2.3,1.2-3c0.8-0.7,1.8-1,3.1-1
		c1.3,0,2.3,0.3,3.1,1S383.5,189.6,383.5,190.8z M382,197.6c0-0.8-0.3-1.4-0.8-2c-0.5-0.5-1.2-0.8-2-0.8c-0.8,0-1.5,0.3-2,0.8
		s-0.8,1.2-0.8,2c0,0.8,0.3,1.5,0.8,1.9s1.2,0.7,2,0.7c0.8,0,1.5-0.2,2-0.7C381.7,199,382,198.4,382,197.6z M381.6,190.9
		c0-0.7-0.2-1.3-0.7-1.8c-0.4-0.5-1-0.7-1.7-0.7c-0.7,0-1.3,0.2-1.7,0.7c-0.4,0.5-0.6,1.1-0.6,1.8c0,0.7,0.2,1.3,0.7,1.8
		c0.4,0.4,1,0.7,1.7,0.7c0.7,0,1.3-0.2,1.7-0.7S381.6,191.6,381.6,190.9z"/>
	<path d="M395.3,196c0,1.9-0.4,3.3-1.2,4.3c-0.8,1-1.9,1.5-3.4,1.5s-2.6-0.5-3.4-1.5c-0.8-1-1.2-2.4-1.2-4.2v-3.4
		c0-1.8,0.4-3.3,1.2-4.3c0.8-1,1.9-1.5,3.4-1.5c1.4,0,2.6,0.5,3.4,1.5c0.8,1,1.2,2.4,1.2,4.3V196z M393.3,192.2
		c0-1.3-0.2-2.2-0.7-2.8s-1.1-0.9-2-0.9c-0.9,0-1.5,0.3-2,0.9s-0.7,1.6-0.7,2.8v4.2c0,1.3,0.2,2.2,0.7,2.8s1.1,1,2,1
		c0.9,0,1.5-0.3,2-1c0.4-0.6,0.7-1.6,0.7-2.8V192.2z"/>
</g>
<g>
	<path d="M286.7,185.5c0.5,0,1,0.1,1.5,0.2c0.5,0.1,0.9,0.3,1.2,0.4l-0.4,1.5c-0.3-0.2-0.7-0.3-1-0.4c-0.4-0.1-0.8-0.2-1.3-0.2
		c-1,0-1.9,0.4-2.5,1.2c-0.6,0.8-1,1.9-1,3.2v0.2c0.4-0.4,0.9-0.7,1.5-0.9c0.5-0.2,1.1-0.3,1.8-0.3c1.3,0,2.3,0.4,3.1,1.3
		c0.8,0.9,1.2,2,1.2,3.4c0,1.5-0.4,2.7-1.2,3.7c-0.8,0.9-1.9,1.4-3.3,1.4c-1.4,0-2.6-0.5-3.5-1.5c-0.9-1-1.4-2.5-1.4-4.3v-2.8
		c0-1.9,0.5-3.4,1.6-4.5C283.8,186.1,285.1,185.5,286.7,185.5z M286,192c-0.7,0-1.2,0.1-1.7,0.4c-0.5,0.3-0.8,0.6-1.1,1.1v1.2
		c0,1.3,0.3,2.4,0.8,3.1c0.6,0.7,1.3,1.1,2.1,1.1c0.8,0,1.4-0.3,1.9-1s0.7-1.5,0.7-2.5c0-1-0.2-1.7-0.7-2.4
		C287.5,192.3,286.9,192,286,192z"/>
	<path d="M301.8,194.7c0,1.9-0.4,3.3-1.2,4.3c-0.8,1-1.9,1.5-3.4,1.5s-2.6-0.5-3.4-1.5c-0.8-1-1.2-2.4-1.2-4.2v-3.4
		c0-1.8,0.4-3.3,1.2-4.3c0.8-1,1.9-1.5,3.4-1.5c1.4,0,2.6,0.5,3.4,1.5c0.8,1,1.2,2.4,1.2,4.3V194.7z M299.8,190.8
		c0-1.3-0.2-2.2-0.7-2.8s-1.1-0.9-2-0.9c-0.9,0-1.5,0.3-2,0.9s-0.7,1.6-0.7,2.8v4.2c0,1.3,0.2,2.2,0.7,2.8s1.1,1,2,1
		c0.9,0,1.5-0.3,2-1c0.4-0.6,0.7-1.6,0.7-2.8V190.8z"/>
</g>
<g>
	<path d="M195.1,196.4h2v1.5h-2v3.3h-2V198h-6.5v-1.1l6.4-10h2.1V196.4z M188.7,196.4h4.4v-6.8l-0.1,0l-0.2,0.5L188.7,196.4z"/>
	<path d="M207.9,195.8c0,1.9-0.4,3.3-1.2,4.3s-1.9,1.5-3.4,1.5s-2.6-0.5-3.4-1.5s-1.2-2.4-1.2-4.2v-3.4c0-1.8,0.4-3.3,1.2-4.3
		c0.8-1,1.9-1.5,3.4-1.5c1.4,0,2.6,0.5,3.4,1.5c0.8,1,1.2,2.4,1.2,4.3V195.8z M205.9,191.9c0-1.3-0.2-2.2-0.7-2.8
		c-0.5-0.6-1.1-0.9-2-0.9s-1.5,0.3-2,0.9s-0.7,1.6-0.7,2.8v4.2c0,1.3,0.2,2.2,0.7,2.8c0.5,0.6,1.1,1,2,1s1.5-0.3,2-1
		c0.4-0.6,0.7-1.6,0.7-2.8V191.9z"/>
</g>
<g>
	<path d="M102.9,201.9h-9.4v-1.4l4.7-5.3c0.8-0.9,1.4-1.7,1.7-2.3c0.3-0.6,0.5-1.1,0.5-1.7c0-0.7-0.2-1.3-0.6-1.8s-1-0.7-1.7-0.7
		c-1,0-1.7,0.3-2.2,0.8c-0.5,0.5-0.7,1.2-0.7,2.2h-1.9l0-0.1c0-1.2,0.4-2.3,1.2-3.1c0.9-0.8,2.1-1.3,3.6-1.3c1.3,0,2.3,0.4,3.1,1.1
		c0.8,0.8,1.2,1.7,1.2,2.9c0,0.8-0.2,1.6-0.7,2.4c-0.5,0.8-1.1,1.6-2,2.6l-3.8,4.1l0,0h7V201.9z"/>
	<path d="M114.1,196.4c0,1.9-0.4,3.3-1.2,4.3s-1.9,1.5-3.4,1.5s-2.6-0.5-3.4-1.5s-1.2-2.4-1.2-4.2V193c0-1.8,0.4-3.3,1.2-4.3
		c0.8-1,1.9-1.5,3.4-1.5c1.4,0,2.6,0.5,3.4,1.5c0.8,1,1.2,2.4,1.2,4.3V196.4z M112.2,192.5c0-1.3-0.2-2.2-0.7-2.8
		c-0.5-0.6-1.1-0.9-2-0.9s-1.5,0.3-2,0.9s-0.7,1.6-0.7,2.8v4.2c0,1.3,0.2,2.2,0.7,2.8c0.5,0.6,1.1,1,2,1s1.5-0.3,2-1
		c0.4-0.6,0.7-1.6,0.7-2.8V192.5z"/>
</g>
</svg>
