<?xml version="1.0" encoding="utf-8"?>
<!-- Generator: Adobe Illustrator 24.3.0, SVG Export Plug-In . SVG Version: 6.00 Build 0)  -->
<svg version="1.1" id="Layer_1" xmlns="http://www.w3.org/2000/svg" xmlns:xlink="http://www.w3.org/1999/xlink" x="0px" y="0px"
	 viewBox="0 0 301 241" style="enable-background:new 0 0 301 241;" xml:space="preserve">
<style type="text/css">
	.st0{fill-rule:evenodd;clip-rule:evenodd;fill:none;}
	.st1{fill-rule:evenodd;clip-rule:evenodd;fill:#EAECED;}
	.st2{fill-rule:evenodd;clip-rule:evenodd;fill:#D2D6D9;}
	.st3{fill:none;stroke:#000000;stroke-width:1;stroke-miterlimit:10;}
	.st4{fill:#4B4B4D;}
	.st5{fill-rule:evenodd;clip-rule:evenodd;fill:#4D5EE0;}
	.st6{fill:none;stroke:#FFFFFF;stroke-width:3.9995;stroke-miterlimit:10;}
	.st7{fill:#4D5EE0;}
	.st8{fill:#CC2E29;}
	.st9{fill:#179D71;}
	.st10{fill:none;stroke:#D2D6D9;stroke-width:1.2766;stroke-miterlimit:10;}
	.st11{fill:none;stroke:#6B6F73;stroke-width:1.4999;stroke-miterlimit:10;}
	.st12{fill-rule:evenodd;clip-rule:evenodd;fill:#FFFFFF;}
	.st13{fill:none;stroke:#000000;stroke-width:2.4996;stroke-linecap:round;stroke-linejoin:round;stroke-miterlimit:10;}
	.st14{fill:#373435;}
</style>
<g id="Layer_x0020_1">
	<g id="_1249239568">
		<rect x="0.5" y="0.5" class="st0" width="300" height="240"/>
		<path class="st1" d="M145.9,76.1c55.9,0,101.1,45.3,101.1,101.1h-28.7c0-40-32.4-72.4-72.4-72.4s-72.4,32.4-72.4,72.4H44.8
			C44.8,121.3,90.1,76.1,145.9,76.1z"/>
		<path class="st2" d="M145.9,76.1c22,0,42.5,7.1,59.1,19.1l-18.1,22.3c-11.7-8-25.7-12.7-40.9-12.7c-40,0-72.4,32.4-72.4,72.4H44.9
			C44.9,121.3,90.1,76.1,145.9,76.1L145.9,76.1z"/>
		<line class="st3" x1="24" y1="177.2" x2="31.7" y2="177.2"/>
		<line class="st3" x1="146.6" y1="58.5" x2="146.6" y2="62.3"/>
		<line class="st3" x1="146.6" y1="54.7" x2="146.6" y2="62.3"/>
		<line class="st3" x1="265.3" y1="177.2" x2="261.5" y2="177.2"/>
		<path class="st4" d="M142.9,191.8h1.4v1.5h-1.4v2.5H141v-2.5h-4.9l-0.1-1.2l4.9-7.7h1.9V191.8z M138,191.8h3v-4.8l-0.1,0.2
			L138,191.8z"/>
		<path id="_x31_" class="st4" d="M153,191.1c0,1.7-0.3,2.9-0.9,3.7c-0.6,0.9-1.5,1.2-2.8,1.2c-1.2,0-2.2-0.4-2.8-1.2
			s-0.9-2-0.9-3.6v-1.9c0-1.7,0.3-2.9,0.9-3.7c0.6-0.8,1.5-1.2,2.8-1.2c1.2,0,2.2,0.4,2.8,1.2c0.6,0.8,0.9,2,0.9,3.6V191.1z
			 M151.1,188.9c0-1.1-0.1-1.9-0.4-2.4c-0.3-0.5-0.8-0.7-1.4-0.7c-0.6,0-1.1,0.2-1.4,0.7c-0.3,0.5-0.4,1.2-0.4,2.2v2.6
			c0,1.1,0.1,1.9,0.4,2.4c0.3,0.5,0.8,0.8,1.4,0.8c0.6,0,1.1-0.2,1.4-0.7c0.3-0.5,0.4-1.2,0.4-2.2V188.9L151.1,188.9z"/>
		<path class="st4" d="M140.7,203.2v5.8c0,0.9-0.3,1.7-0.9,2.2c-0.6,0.5-1.4,0.7-2.4,0.7c-0.9,0-1.7-0.2-2.3-0.7
			c-0.6-0.5-0.9-1.2-0.9-2.2v-5.8h1.2v5.8c0,0.6,0.2,1.2,0.6,1.4c0.4,0.4,0.9,0.5,1.4,0.5c0.6,0,1.2-0.1,1.5-0.5
			c0.4-0.4,0.6-0.8,0.6-1.4v-5.8H140.7L140.7,203.2z"/>
		<path id="_x31__1_" class="st4" d="M143.4,205.3l0.1,0.9c0.2-0.4,0.5-0.6,0.8-0.8c0.3-0.2,0.6-0.3,1.1-0.3c0.7,0,1.2,0.2,1.6,0.6
			c0.4,0.4,0.6,1,0.6,1.9v4h-1.2v-4c0-0.6-0.1-0.9-0.4-1.2c-0.2-0.2-0.6-0.4-1-0.4c-0.4,0-0.6,0.1-0.9,0.2c-0.3,0.1-0.4,0.4-0.6,0.6
			v4.6h-1.2v-6.3L143.4,205.3L143.4,205.3z"/>
		<path id="_x32_" class="st4" d="M150.5,211.7h-1.2v-6.3h1.2V211.7z M150.5,203.7h-1.2v-1.2h1.2V203.7z"/>
		<path id="_x33_" class="st4" d="M153.8,203.8v1.5h1.2v0.9h-1.2v3.8c0,0.3,0.1,0.5,0.2,0.6c0.1,0.1,0.3,0.2,0.5,0.2
			c0.1,0,0.1,0,0.2,0c0.1,0,0.1,0,0.2-0.1l0.1,0.8c-0.1,0.1-0.2,0.1-0.4,0.1c-0.1,0.1-0.4,0.1-0.5,0.1c-0.5,0-0.9-0.1-1.2-0.4
			c-0.3-0.3-0.4-0.7-0.4-1.4v-3.8h-1v-0.9h1v-1.5H153.8z"/>
		<g>
			<path d="M20.4,177.8c0,1.1-0.2,1.9-0.7,2.5c-0.5,0.6-1.2,0.9-2,0.9s-1.5-0.3-2-0.9c-0.5-0.6-0.7-1.4-0.7-2.5v-2
				c0-1.1,0.2-1.9,0.7-2.5s1.2-0.9,2-0.9s1.5,0.3,2,0.9s0.7,1.4,0.7,2.5V177.8z M19.3,175.5c0-0.7-0.1-1.3-0.4-1.7
				c-0.3-0.4-0.6-0.6-1.2-0.6c-0.5,0-0.9,0.2-1.2,0.6c-0.3,0.4-0.4,0.9-0.4,1.7v2.5c0,0.7,0.1,1.3,0.4,1.7c0.3,0.4,0.6,0.6,1.2,0.6
				c0.5,0,0.9-0.2,1.2-0.6c0.3-0.4,0.4-0.9,0.4-1.7V175.5z"/>
			<path d="M55.1,86h-5.5v-0.8l2.8-3.1c0.5-0.6,0.9-1,1-1.3c0.1-0.4,0.3-0.6,0.3-1c0-0.4-0.1-0.8-0.4-1.1c-0.2-0.3-0.6-0.4-1-0.4
				c-0.6,0-1,0.1-1.3,0.4c-0.3,0.3-0.4,0.7-0.4,1.3h-1.1l0,0c0-0.7,0.2-1.4,0.7-1.9s1.2-0.7,2.1-0.7c0.8,0,1.4,0.2,1.8,0.6
				s0.6,1,0.6,1.7c0,0.4-0.1,0.9-0.4,1.4c-0.3,0.4-0.6,0.9-1.2,1.5l-2.2,2.4l0,0H55L55.1,86L55.1,86z"/>
			<path id="_x31__2_" d="M56.7,82.2l0.5-4.7h4.2v1h-3.3l-0.3,2.4c0.2-0.1,0.4-0.2,0.6-0.4c0.2-0.1,0.5-0.1,0.8-0.1
				c0.8,0,1.4,0.2,1.9,0.8c0.4,0.5,0.6,1.2,0.6,2.1s-0.2,1.5-0.7,2.1c-0.4,0.5-1.2,0.8-2,0.8c-0.7,0-1.3-0.2-1.8-0.6
				c-0.5-0.4-0.7-1-0.7-1.7v-0.1h1c0,0.4,0.1,0.8,0.4,1.1s0.6,0.4,1,0.4c0.5,0,0.9-0.1,1.2-0.5c0.3-0.4,0.4-0.8,0.4-1.4
				c0-0.6-0.1-1-0.4-1.4c-0.3-0.4-0.6-0.5-1.2-0.5c-0.4,0-0.8,0.1-1,0.2c-0.2,0.1-0.4,0.4-0.4,0.6l-0.9-0.1H56.7z"/>
			<path d="M140.7,47.4l0.5-4.7h4.2v1h-3.3l-0.3,2.4c0.2-0.1,0.4-0.2,0.6-0.4c0.2-0.1,0.5-0.1,0.8-0.1c0.8,0,1.4,0.2,1.9,0.8
				c0.4,0.5,0.6,1.2,0.6,2.1s-0.2,1.5-0.7,2.1c-0.4,0.5-1.2,0.8-2,0.8c-0.7,0-1.3-0.2-1.8-0.6c-0.5-0.4-0.7-1-0.7-1.7V49h1
				c0,0.4,0.1,0.8,0.4,1.1c0.3,0.3,0.6,0.4,1,0.4c0.5,0,0.9-0.1,1.2-0.5c0.3-0.4,0.4-0.8,0.4-1.4c0-0.6-0.1-1-0.4-1.4
				c-0.3-0.4-0.6-0.5-1.2-0.5c-0.4,0-0.8,0.1-1,0.2c-0.2,0.1-0.4,0.4-0.4,0.6l-0.9-0.1H140.7z"/>
			<path id="_x31__3_" d="M152.6,48c0,1.1-0.2,1.9-0.7,2.5c-0.5,0.6-1.2,0.9-2,0.9s-1.5-0.3-2-0.9c-0.5-0.6-0.7-1.4-0.7-2.5v-2
				c0-1.1,0.2-1.9,0.7-2.5c0.5-0.6,1.2-0.9,2-0.9s1.5,0.3,2,0.9c0.5,0.6,0.7,1.4,0.7,2.5V48z M151.4,45.7c0-0.7-0.1-1.3-0.4-1.7
				c-0.3-0.4-0.6-0.6-1.2-0.6c-0.5,0-0.9,0.2-1.2,0.6c-0.3,0.4-0.4,0.9-0.4,1.7v2.5c0,0.7,0.1,1.3,0.4,1.7c0.3,0.4,0.6,0.6,1.2,0.6
				c0.5,0,0.9-0.2,1.2-0.6c0.3-0.4,0.4-0.9,0.4-1.7V45.7z"/>
			<path d="M241,82.2c-1,1.2-1.7,2.3-2.1,3.2c-0.4,0.9-0.6,2.1-0.8,3.5l-0.1,0.9h-1.2l0.1-0.9c0.1-1.4,0.5-2.5,0.9-3.6
				c0.5-1.1,1.2-2.1,1.9-3.1h-4.6v-0.9h5.8V82.2z"/>
			<path id="_x31__4_" d="M242.5,86.1l0.5-4.7h4.2v1H244l-0.3,2.4c0.2-0.1,0.4-0.2,0.6-0.4c0.2-0.1,0.5-0.1,0.8-0.1
				c0.8,0,1.4,0.2,1.9,0.8c0.4,0.5,0.6,1.2,0.6,2.1s-0.2,1.5-0.7,2.1c-0.4,0.5-1.2,0.8-2,0.8c-0.7,0-1.3-0.2-1.8-0.6
				c-0.5-0.4-0.7-1-0.7-1.7v-0.1h1c0,0.4,0.1,0.8,0.4,1.1c0.3,0.3,0.6,0.4,1,0.4c0.5,0,0.9-0.1,1.2-0.5c0.3-0.4,0.4-0.8,0.4-1.4
				c0-0.6-0.1-1-0.4-1.4s-0.6-0.5-1.2-0.5c-0.4,0-0.8,0.1-1,0.2c-0.2,0.1-0.4,0.4-0.4,0.6l-0.9-0.1H242.5z"/>
			<polygon points="275.5,180.9 274.4,180.9 274.4,173.5 272.6,173.5 272.6,172.7 275.5,172.3 			"/>
			<path id="_x31__5_" d="M284.4,177.6c0,1.1-0.2,1.9-0.7,2.5c-0.5,0.6-1.2,0.9-2,0.9c-0.9,0-1.5-0.3-2-0.9s-0.7-1.4-0.7-2.5v-2
				c0-1.1,0.2-1.9,0.7-2.5s1.2-0.9,2-0.9c0.9,0,1.5,0.3,2,0.9c0.5,0.6,0.7,1.4,0.7,2.5V177.6z M283.2,175.3c0-0.7-0.1-1.3-0.4-1.7
				c-0.3-0.4-0.6-0.6-1.2-0.6c-0.5,0-0.9,0.2-1.2,0.6c-0.3,0.4-0.4,0.9-0.4,1.7v2.5c0,0.7,0.1,1.3,0.4,1.7c0.3,0.4,0.6,0.6,1.2,0.6
				c0.5,0,0.9-0.2,1.2-0.6c0.3-0.4,0.4-0.9,0.4-1.7V175.3z"/>
			<path id="_x32__1_" d="M291.1,177.6c0,1.1-0.2,1.9-0.7,2.5c-0.5,0.6-1.2,0.9-2,0.9c-0.9,0-1.5-0.3-2-0.9s-0.7-1.4-0.7-2.5v-2
				c0-1.1,0.2-1.9,0.7-2.5s1.2-0.9,2-0.9c0.9,0,1.5,0.3,2,0.9c0.5,0.6,0.7,1.4,0.7,2.5V177.6z M290,175.3c0-0.7-0.1-1.3-0.4-1.7
				c-0.3-0.4-0.6-0.6-1.2-0.6c-0.5,0-0.9,0.2-1.2,0.6c-0.3,0.4-0.4,0.9-0.4,1.7v2.5c0,0.7,0.1,1.3,0.4,1.7c0.3,0.4,0.6,0.6,1.2,0.6
				c0.5,0,0.9-0.2,1.2-0.6c0.3-0.4,0.4-0.9,0.4-1.7V175.3z"/>
		</g>
		<path class="st5" d="M124.5,108.1c-29.5,9.1-51,36.6-51,69.2H44.8c0-45.2,29.7-83.5,70.6-96.4L124.5,108.1L124.5,108.1z"/>
		<path class="st6" d="M205,95.2c25.4,18.4,42,48.2,42,82h-28.7c0-24.8-12.4-46.6-31.3-59.6L205,95.2L205,95.2z"/>
		<g>
			<polygon class="st7" points="125.9,115.2 126.9,118.2 124.5,119 122.2,120 119.9,120.9 117.7,122 115.5,123.1 113.4,124.4 
				111.4,125.7 109.4,127.1 107.5,128.6 105.6,130.1 103.8,131.7 102.1,133.4 100.4,135.1 98.8,136.9 97.3,138.7 95.8,140.7 
				94.5,142.6 93.2,144.7 91.9,146.7 90.8,148.8 89.7,151 88.7,153.2 87.8,155.5 87,157.8 86.3,160.1 85.7,162.4 85.2,164.8 
				84.7,167.3 84.4,169.7 84.1,172.2 83.9,174.7 83.9,177.2 80.7,177.2 80.8,174.5 80.9,171.9 81.2,169.3 81.6,166.8 82,164.2 
				82.6,161.7 83.2,159.2 84,156.7 84.8,154.4 85.7,152 86.8,149.7 87.9,147.4 89.1,145.2 90.4,143 91.8,140.8 93.2,138.8 
				94.7,136.8 96.3,134.9 98.1,132.9 99.8,131.1 101.6,129.4 103.5,127.7 105.5,126.1 107.5,124.5 109.6,123.1 111.7,121.7 
				114,120.4 116.3,119.2 118.6,118 120.9,117 123.4,116 			"/>
		</g>
		<g>
			<polygon class="st8" points="85.1,153.7 88,154.9 87.8,155.5 87.5,156.2 87.3,156.8 87.1,157.5 86.9,158.1 86.7,158.8 
				86.5,159.5 86.2,160.1 86.1,160.9 85.9,161.5 85.7,162.2 85.5,162.9 85.4,163.6 85.2,164.3 85.1,165 85,165.7 84.8,166.4 
				84.7,167.1 84.6,167.8 84.5,168.5 84.4,169.2 84.3,169.9 84.2,170.6 84.2,171.4 84.1,172.1 84,172.8 84,173.5 83.9,174.2 
				83.9,175 83.9,175.8 83.9,176.5 83.9,177.2 80.7,177.2 80.7,176.4 80.7,175.7 80.8,174.9 80.8,174.1 80.8,173.4 80.8,172.6 
				80.9,171.8 81,171.1 81.1,170.3 81.1,169.6 81.2,168.8 81.4,168.1 81.4,167.3 81.6,166.5 81.7,165.8 81.9,165.1 82,164.4 
				82.1,163.6 82.3,162.9 82.4,162.1 82.6,161.4 82.8,160.7 83,160 83.2,159.3 83.4,158.5 83.7,157.9 83.9,157.2 84.1,156.5 
				84.3,155.7 84.6,155.1 84.8,154.4 			"/>
		</g>
		<g>
			<polygon class="st9" points="211,177.2 207.8,177.2 207.7,173.3 207.3,169.4 206.8,165.7 206,162 205,158.5 203.7,154.9 
				202.3,151.6 200.7,148.4 199,145.2 197,142.2 194.9,139.3 192.7,136.6 190.2,134 187.7,131.6 185,129.2 182.2,127.1 179.3,125.1 
				176.2,123.3 173.1,121.6 169.9,120.2 166.6,118.9 163.2,117.7 159.8,116.9 156.2,116.1 152.6,115.6 149,115.3 145.4,115.2 
				141.7,115.4 138,115.7 134.3,116.3 130.6,117.2 126.9,118.2 125.9,115.2 129.8,114.1 133.7,113.2 137.6,112.5 141.5,112.2 
				145.4,112 149.2,112.1 153,112.5 156.7,113 160.5,113.7 164.1,114.7 167.7,115.9 171.1,117.2 174.5,118.7 177.8,120.5 181,122.4 
				184.1,124.5 187,126.8 189.8,129.2 192.5,131.8 195,134.5 197.4,137.4 199.6,140.4 201.7,143.6 203.5,146.9 205.2,150.3 
				206.7,153.9 208,157.5 209.1,161.2 209.9,165.1 210.5,169.1 210.9,173.1 			"/>
		</g>
		<line class="st3" x1="261.5" y1="177.2" x2="269.1" y2="177.2"/>
		<path class="st10" d="M205,95.2c25.4,18.4,42,48.2,42,82h-28.7c0-24.8-12.4-46.6-31.3-59.6L205,95.2L205,95.2z"/>
		<path class="st6" d="M145.9,76.1c22.1,0,42.6,7.1,59.2,19.2l-18.2,22.3c-11.7-8.1-25.8-12.7-41-12.7c-40,0-72.4,32.4-72.4,72.4
			H44.8C44.8,121.4,90.1,76.2,145.9,76.1L145.9,76.1z"/>
		<path class="st11" d="M145.9,76.1c22.1,0,42.6,7.1,59.2,19.2l-18.2,22.3c-11.7-8.1-25.8-12.7-41-12.7c-40,0-72.4,32.4-72.4,72.4
			H44.8C44.8,121.4,90.1,76.2,145.9,76.1L145.9,76.1z"/>
		<polygon class="st12" points="185.7,115.9 186.6,114.6 188,115.7 187,116.8 		"/>
		<polygon class="st2" points="186.3,114.8 201.9,95.6 203.5,96.5 187.7,115.9 		"/>
		<line class="st13" x1="184.9" y1="121.2" x2="208.2" y2="92.7"/>
		<polygon class="st14" points="19.7,13.7 16.4,13.7 16.4,22.6 15.1,22.6 15.1,13.7 11.9,13.7 11.9,12.7 19.7,12.7 		"/>
		<path id="_x31__6_" class="st14" d="M22.3,22.6h-1.4v-7.4h1.4V22.6z M22.3,13.3h-1.4V12h1.4V13.3z"/>
		<path id="_x32__2_" class="st14" d="M26.1,13.4v1.8h1.4v1h-1.4v4.5c0,0.4,0.1,0.6,0.2,0.7c0.1,0.1,0.4,0.2,0.6,0.2
			c0.1,0,0.1,0,0.3,0c0.1,0,0.1-0.1,0.2-0.1l0.1,0.9c-0.1,0.1-0.2,0.1-0.4,0.2c-0.2,0.1-0.4,0.1-0.6,0.1c-0.6,0-1-0.1-1.3-0.5
			c-0.4-0.4-0.5-0.9-0.5-1.6v-4.5h-1.2v-1h1.2v-1.8H26.1z"/>
		<polygon id="_x33__1_" class="st14" points="30.7,22.6 29.3,22.6 29.3,12 30.7,12 		"/>
		<path id="_x34_" class="st14" d="M35.9,22.8c-1,0-1.9-0.4-2.4-1s-0.9-1.6-0.9-2.7v-0.3c0-1.1,0.3-1.9,0.9-2.6
			c0.6-0.7,1.4-1.1,2.2-1.1c1,0,1.7,0.3,2.2,0.9c0.5,0.6,0.8,1.4,0.8,2.4v0.9h-4.8l0,0c0,0.7,0.2,1.3,0.5,1.7
			c0.4,0.4,0.9,0.6,1.4,0.6c0.4,0,0.9-0.1,1.2-0.2c0.4-0.1,0.6-0.3,0.9-0.5l0.5,0.9c-0.3,0.3-0.6,0.5-1.1,0.6
			c-0.4,0.1-0.9,0.3-1.6,0.3H35.9z M35.6,16.1c-0.4,0-0.9,0.2-1.2,0.6s-0.5,0.9-0.6,1.4l0,0h3.4V18c0-0.5-0.1-0.9-0.4-1.3
			S36.1,16.2,35.6,16.1L35.6,16.1z"/>
		<line class="st3" x1="60" y1="90.6" x2="65.4" y2="96"/>
		<line class="st3" x1="233.2" y1="90.6" x2="227.9" y2="96"/>
	</g>
</g>
</svg>
