<?xml version="1.0" encoding="utf-8"?>
<!-- Generator: Adobe Illustrator 24.2.0, SVG Export Plug-In . SVG Version: 6.00 Build 0)  -->
<svg version="1.1" id="Layer_1" xmlns="http://www.w3.org/2000/svg" xmlns:xlink="http://www.w3.org/1999/xlink" x="0px" y="0px"
	 viewBox="0 0 285 285" style="enable-background:new 0 0 285 285;" xml:space="preserve">
<style type="text/css">
	.st0{clip-path:url(#SVGID_2_);}
	.st1{fill-rule:evenodd;clip-rule:evenodd;fill:#FFFFFF;stroke:#EAECED;stroke-miterlimit:10;}
	.st2{fill-rule:evenodd;clip-rule:evenodd;fill:#30B887;}
	.st3{fill:none;stroke:#999999;stroke-width:2.9996;stroke-linecap:round;stroke-linejoin:round;stroke-miterlimit:10;}
	.st4{fill:none;stroke:#E6E6E6;stroke-width:1;stroke-miterlimit:10;}
	.st5{fill:#515559;}
	.st6{opacity:0.77;fill-rule:evenodd;clip-rule:evenodd;}
	.st7{opacity:0.77;fill-rule:evenodd;clip-rule:evenodd;fill:#666666;}
	.st8{opacity:0.77;fill-rule:evenodd;clip-rule:evenodd;fill:#6B6F73;}
	.st9{fill:#6B6F73;}
	.st10{fill:#FFFFFF;}
	.st11{fill:#6B04A8;}
</style>
<g>
	<defs>
		<rect id="SVGID_1_" x="0.3" y="0.1" width="285" height="285"/>
	</defs>
	<clipPath id="SVGID_2_">
		<use xlink:href="#SVGID_1_"  style="overflow:visible;"/>
	</clipPath>
	<g class="st0">
		
			<image style="overflow:visible;enable-background:new    ;" width="476" height="476" xlink:href="F97ABE3F.jpg"  transform="matrix(0.5987 0 0 0.5987 0.3325 0.1136)">
		</image>
	</g>
</g>
<path class="st1" d="M8,0.7h265.8c3.9,0,7.1,3.2,7.1,7.1v265.8c0,3.9-3.2,7.1-7.1,7.1H8c-3.9,0-7.1-3.2-7.1-7.1V7.8
	C0.9,3.9,4,0.7,8,0.7z"/>
<path class="st2" d="M8,0.7h265.6c4,0,7.1,2.4,7.1,5.3v54.6H0.7V6c0-2.9,3.3-5.3,7.1-5.3H8z"/>
<polygon class="st3" points="266.4,184.8 237.7,184.8 249.2,196.9 249.2,207.7 254.9,210.6 254.9,196.9 "/>
<line class="st4" x1="0.9" y1="235.7" x2="280.7" y2="235.7"/>
<g>
	<g>
		<path class="st5" d="M20.2,86.8l0.1,0.3l0.1-0.3l4-11.2h1.2l-4.8,12.8h-1L15,75.6h1.2L20.2,86.8z"/>
		<path class="st5" d="M32.8,88.4c-0.1-0.3-0.2-0.7-0.2-1.3c-0.4,0.5-0.8,0.9-1.4,1.1c-0.6,0.3-1.2,0.4-1.8,0.4
			c-0.9,0-1.7-0.3-2.2-0.8s-0.8-1.2-0.8-1.9c0-0.9,0.4-1.7,1.2-2.2s1.8-0.8,3.2-0.8h1.9v-1.1c0-0.7-0.2-1.2-0.6-1.6s-1-0.6-1.8-0.6
			c-0.7,0-1.3,0.2-1.8,0.6s-0.7,0.8-0.7,1.4l-1.1,0c0-0.8,0.4-1.4,1.1-2c0.7-0.6,1.6-0.8,2.6-0.8c1.1,0,1.9,0.3,2.5,0.8
			c0.6,0.5,0.9,1.3,0.9,2.2v4.5c0,0.9,0.1,1.6,0.3,2.1v0.1H32.8z M29.4,87.6c0.7,0,1.3-0.2,1.9-0.5s1-0.8,1.2-1.4v-2.1h-1.9
			c-1,0-1.9,0.2-2.5,0.6c-0.6,0.4-0.9,0.9-0.9,1.5c0,0.5,0.2,1,0.6,1.3S28.8,87.6,29.4,87.6z"/>
		<path class="st5" d="M37.6,88.4h-1.1V74.9h1.1V88.4z"/>
		<path class="st5" d="M46.5,87.2c-0.6,0.9-1.6,1.4-3,1.4c-1,0-1.8-0.3-2.3-0.9c-0.5-0.6-0.8-1.5-0.8-2.6v-6.2h1v6.1
			c0,1.8,0.7,2.7,2.2,2.7c1.5,0,2.5-0.6,2.9-1.9v-6.9h1.1v9.5h-1L46.5,87.2z"/>
		<path class="st5" d="M54,88.6c-0.8,0-1.5-0.2-2.2-0.6s-1.2-1-1.5-1.7c-0.4-0.7-0.5-1.5-0.5-2.4v-0.4c0-0.9,0.2-1.7,0.5-2.5
			s0.8-1.3,1.5-1.7s1.3-0.6,2.1-0.6c1.2,0,2.1,0.4,2.7,1.2c0.7,0.8,1,1.9,1,3.2v0.6h-6.8v0.2c0,1.1,0.3,2,0.9,2.7
			c0.6,0.7,1.4,1.1,2.3,1.1c0.6,0,1.1-0.1,1.5-0.3s0.8-0.5,1.2-1l0.7,0.5C56.6,88,55.5,88.6,54,88.6z M53.8,79.6
			c-0.8,0-1.5,0.3-2,0.9s-0.9,1.4-1,2.3h5.7v-0.1c0-0.9-0.3-1.7-0.8-2.2S54.6,79.6,53.8,79.6z"/>
		<path class="st5" d="M64.3,88.4h-1.1V76.8l-3.5,1.3v-1l4.4-1.6h0.2V88.4z"/>
	</g>
	<polygon class="st6" points="19.2,112.9 22.1,104 24.3,104 20.2,115.4 18.3,115.4 14.2,104 16.4,104 	"/>
	<path class="st6" d="M30.1,115.4c-0.1-0.2-0.2-0.4-0.2-0.8c-0.6,0.6-1.3,0.9-2.2,0.9c-0.9,0-1.5-0.2-2.1-0.7
		c-0.5-0.5-0.8-1.1-0.8-1.8c0-0.9,0.3-1.6,1-2.1c0.7-0.5,1.6-0.7,2.9-0.7h1.2v-0.6c0-0.4-0.1-0.8-0.4-1.1c-0.2-0.3-0.6-0.4-1.1-0.4
		c-0.4,0-0.8,0.1-1.1,0.3c-0.3,0.2-0.4,0.5-0.4,0.8H25c0-0.5,0.2-0.9,0.5-1.3c0.3-0.4,0.7-0.7,1.3-0.9c0.5-0.2,1.1-0.3,1.8-0.3
		c1,0,1.8,0.2,2.4,0.7c0.6,0.5,0.9,1.2,0.9,2.1v3.8c0,0.8,0.1,1.4,0.3,1.8v0.1H30.1L30.1,115.4z M28,114c0.4,0,0.7-0.1,1.1-0.3
		c0.3-0.2,0.6-0.4,0.7-0.7v-1.6h-1c-0.7,0-1.2,0.1-1.6,0.4c-0.4,0.2-0.5,0.6-0.5,1c0,0.4,0.1,0.7,0.4,0.9
		C27.3,113.9,27.6,114,28,114z"/>
	<rect x="33.8" y="103.4" class="st6" width="1.9" height="12"/>
	<path class="st6" d="M42.9,114.5c-0.6,0.7-1.3,1-2.4,1c-0.9,0-1.6-0.3-2.1-0.8c-0.5-0.5-0.7-1.3-0.7-2.3v-5.5h1.9v5.4
		c0,1.1,0.4,1.6,1.3,1.6c0.9,0,1.5-0.3,1.9-1v-6.1h1.9v8.4H43L42.9,114.5z"/>
	<path class="st6" d="M50.4,115.5c-1.2,0-2.2-0.4-2.9-1.1c-0.7-0.8-1.1-1.8-1.1-3v-0.2c0-0.8,0.2-1.6,0.5-2.3
		c0.3-0.7,0.8-1.2,1.4-1.6c0.6-0.4,1.2-0.6,2-0.6c1.2,0,2,0.4,2.7,1.1c0.6,0.7,0.9,1.8,0.9,3.1v0.8h-5.5c0.1,0.7,0.3,1.2,0.7,1.6
		c0.4,0.4,0.9,0.6,1.5,0.6c0.9,0,1.6-0.3,2.1-1.1l1,1c-0.3,0.5-0.8,0.9-1.4,1.2C51.7,115.4,51.1,115.5,50.4,115.5L50.4,115.5z
		 M50.2,108.3c-0.5,0-0.9,0.2-1.3,0.5c-0.3,0.4-0.5,0.9-0.6,1.5h3.6v-0.1c0-0.6-0.2-1.1-0.5-1.4C51.1,108.4,50.7,108.3,50.2,108.3z"
		/>
	<path class="st6" d="M62.8,115.4h-7.6v-1.3l3.8-4.1c0.5-0.6,0.9-1.1,1.2-1.5c0.2-0.4,0.3-0.8,0.3-1.2c0-0.5-0.2-1-0.5-1.3
		c-0.3-0.3-0.7-0.5-1.2-0.5c-0.6,0-1.1,0.2-1.4,0.6c-0.3,0.4-0.5,0.9-0.5,1.5h-1.9c0-0.7,0.2-1.3,0.5-1.9c0.3-0.6,0.8-1,1.4-1.3
		c0.6-0.3,1.3-0.5,2-0.5c1.1,0,2,0.3,2.6,0.8c0.6,0.6,1,1.3,1,2.3c0,0.6-0.2,1.2-0.5,1.8c-0.3,0.6-0.8,1.3-1.6,2.1l-2.8,3h5.3V115.4
		z"/>
	<polygon class="st6" points="19.6,160.9 22.1,153.1 24,153.1 20.4,163.1 18.7,163.1 15.2,153.1 17.1,153.1 	"/>
	<path class="st6" d="M29.1,163.1c-0.1-0.1-0.1-0.4-0.2-0.7c-0.5,0.6-1.2,0.8-1.9,0.8c-0.7,0-1.3-0.2-1.8-0.6
		c-0.5-0.4-0.7-0.9-0.7-1.6c0-0.8,0.3-1.4,0.9-1.8c0.6-0.4,1.4-0.6,2.5-0.6h1v-0.5c0-0.4-0.1-0.7-0.3-0.9c-0.2-0.2-0.5-0.3-1-0.3
		c-0.4,0-0.7,0.1-0.9,0.3c-0.2,0.2-0.4,0.4-0.4,0.7h-1.7c0-0.4,0.1-0.8,0.4-1.1c0.3-0.4,0.6-0.6,1.1-0.8c0.5-0.2,1-0.3,1.5-0.3
		c0.9,0,1.6,0.2,2.1,0.7c0.5,0.4,0.8,1,0.8,1.8v3.3c0,0.7,0.1,1.2,0.3,1.6v0.1H29.1L29.1,163.1z M27.2,161.9c0.3,0,0.6-0.1,0.9-0.2
		c0.3-0.2,0.5-0.4,0.7-0.6v-1.4h-0.9c-0.6,0-1.1,0.1-1.4,0.3c-0.3,0.2-0.5,0.5-0.5,0.9c0,0.3,0.1,0.6,0.3,0.8
		C26.6,161.8,26.9,161.9,27.2,161.9z"/>
	<rect x="32.3" y="152.6" class="st6" width="1.7" height="10.5"/>
	<path class="st6" d="M40.3,162.4c-0.5,0.6-1.2,0.9-2.1,0.9c-0.8,0-1.4-0.2-1.8-0.7c-0.4-0.5-0.6-1.1-0.6-2v-4.8h1.7v4.8
		c0,0.9,0.4,1.4,1.2,1.4c0.8,0,1.4-0.3,1.6-0.9v-5.3h1.7v7.4h-1.6L40.3,162.4z"/>
	<path class="st6" d="M46.8,163.2c-1.1,0-1.9-0.3-2.6-1c-0.7-0.7-1-1.5-1-2.7v-0.2c0-0.7,0.1-1.4,0.4-2c0.3-0.6,0.7-1,1.2-1.4
		c0.5-0.3,1.1-0.5,1.7-0.5c1,0,1.8,0.3,2.3,1c0.6,0.6,0.8,1.6,0.8,2.7v0.7H45c0.1,0.6,0.3,1.1,0.6,1.4c0.4,0.4,0.8,0.5,1.4,0.5
		c0.8,0,1.4-0.3,1.9-0.9l0.9,0.9c-0.3,0.4-0.7,0.8-1.2,1C48,163.1,47.4,163.2,46.8,163.2L46.8,163.2z M46.6,156.9
		c-0.5,0-0.8,0.2-1.1,0.5c-0.3,0.3-0.5,0.8-0.5,1.3h3.2v-0.1c0-0.6-0.2-1-0.4-1.3C47.4,157,47.1,156.9,46.6,156.9z"/>
	<path class="st6" d="M52.9,157.4h1c0.5,0,0.9-0.1,1.2-0.4c0.3-0.3,0.4-0.6,0.4-1.1c0-0.5-0.1-0.8-0.4-1.1c-0.2-0.3-0.6-0.4-1.1-0.4
		c-0.4,0-0.8,0.1-1.1,0.4c-0.3,0.3-0.4,0.6-0.4,1h-1.7c0-0.5,0.1-1,0.4-1.4c0.3-0.4,0.6-0.7,1.1-1c0.5-0.2,1-0.4,1.6-0.4
		c1,0,1.8,0.2,2.3,0.7c0.6,0.5,0.9,1.2,0.9,2.1c0,0.4-0.1,0.9-0.4,1.3c-0.3,0.4-0.7,0.7-1.1,0.9c0.5,0.2,1,0.5,1.2,0.9
		c0.3,0.4,0.4,0.9,0.4,1.4c0,0.9-0.3,1.6-0.9,2.1c-0.6,0.5-1.4,0.8-2.4,0.8c-1,0-1.7-0.3-2.4-0.8c-0.6-0.5-0.9-1.2-0.9-2h1.7
		c0,0.4,0.1,0.8,0.4,1.1c0.3,0.3,0.7,0.4,1.2,0.4c0.5,0,0.9-0.1,1.2-0.4c0.3-0.3,0.4-0.7,0.4-1.2c0-0.5-0.2-0.9-0.5-1.2
		c-0.3-0.3-0.8-0.4-1.4-0.4h-1V157.4z"/>
	<polygon class="st7" points="18.6,177 18.8,177.7 18.9,177.7 19,177 21.3,170.6 22.5,170.6 19.3,179.2 18.3,179.2 15.2,170.6 
		16.4,170.6 	"/>
	<path class="st7" d="M27.1,179.2c0-0.2-0.1-0.4-0.1-0.5c0-0.1,0-0.3,0-0.4c-0.2,0.3-0.5,0.6-0.8,0.8c-0.3,0.2-0.7,0.3-1.1,0.3
		c-0.7,0-1.2-0.2-1.5-0.5c-0.3-0.3-0.5-0.8-0.5-1.4c0-0.6,0.2-1.1,0.7-1.4c0.5-0.3,1.2-0.5,2-0.5H27v-0.6c0-0.4-0.1-0.7-0.3-0.9
		c-0.2-0.2-0.5-0.3-1-0.3c-0.4,0-0.7,0.1-0.9,0.3c-0.2,0.2-0.4,0.4-0.4,0.7h-1.1l0,0c0-0.5,0.2-0.9,0.7-1.3c0.5-0.4,1.1-0.6,1.8-0.6
		c0.7,0,1.3,0.2,1.7,0.5c0.4,0.4,0.7,0.9,0.7,1.6v3.1c0,0.2,0,0.4,0,0.7c0,0.2,0.1,0.4,0.1,0.6H27.1L27.1,179.2z M25.2,178.3
		c0.4,0,0.8-0.1,1.1-0.3c0.3-0.2,0.6-0.5,0.7-0.7v-1h-1.3c-0.5,0-0.8,0.1-1.1,0.4c-0.3,0.2-0.4,0.5-0.4,0.8c0,0.3,0.1,0.5,0.3,0.7
		C24.6,178.2,24.8,178.3,25.2,178.3z"/>
	<rect x="29.9" y="170" class="st7" width="1.2" height="9.1"/>
	<path class="st7" d="M36.8,178.2c-0.2,0.3-0.5,0.6-0.8,0.8c-0.3,0.2-0.7,0.3-1.1,0.3c-0.7,0-1.2-0.2-1.6-0.7
		c-0.4-0.4-0.6-1.1-0.6-2.1v-3.7h1.2v3.7c0,0.7,0.1,1.1,0.3,1.4c0.2,0.3,0.5,0.4,0.9,0.4c0.4,0,0.7-0.1,1-0.2
		c0.3-0.2,0.5-0.4,0.6-0.7v-4.6H38v6.3h-1L36.8,178.2z"/>
	<path class="st7" d="M42.3,179.3c-0.9,0-1.6-0.3-2.1-0.9c-0.5-0.6-0.8-1.4-0.8-2.3v-0.3c0-0.9,0.3-1.7,0.8-2.3
		c0.5-0.6,1.2-0.9,1.9-0.9c0.9,0,1.5,0.3,1.9,0.8c0.4,0.5,0.7,1.2,0.7,2.1v0.7h-4.1l0,0c0,0.6,0.2,1.1,0.5,1.5
		c0.3,0.4,0.7,0.6,1.2,0.6c0.4,0,0.7-0.1,1-0.2c0.3-0.1,0.5-0.3,0.8-0.5l0.5,0.8c-0.2,0.2-0.5,0.4-0.9,0.6
		C43.2,179.2,42.8,179.3,42.3,179.3L42.3,179.3z M42.1,173.6c-0.4,0-0.7,0.2-1,0.5c-0.3,0.3-0.4,0.7-0.5,1.2l0,0h2.9v-0.1
		c0-0.5-0.1-0.8-0.4-1.1C42.9,173.8,42.6,173.6,42.1,173.6z"/>
	<path class="st7" d="M47.4,174.4h1c0.5,0,0.9-0.1,1.1-0.4c0.2-0.3,0.3-0.6,0.3-1.1c0-0.5-0.1-0.9-0.4-1.1c-0.2-0.3-0.6-0.4-1.1-0.4
		c-0.4,0-0.8,0.1-1.1,0.4c-0.3,0.3-0.4,0.6-0.4,1.1h-1.1l0,0c0-0.6,0.2-1.2,0.7-1.6c0.5-0.5,1.1-0.7,1.9-0.7c0.8,0,1.4,0.2,1.9,0.6
		c0.5,0.4,0.7,1,0.7,1.8c0,0.4-0.1,0.7-0.3,1.1c-0.2,0.3-0.5,0.6-1,0.8c0.5,0.2,0.9,0.4,1.1,0.8c0.2,0.4,0.3,0.8,0.3,1.2
		c0,0.8-0.3,1.4-0.8,1.8c-0.5,0.4-1.2,0.7-2,0.7c-0.8,0-1.4-0.2-1.9-0.6c-0.5-0.4-0.8-1-0.7-1.7l0,0h1.1c0,0.4,0.1,0.8,0.4,1.1
		c0.3,0.3,0.7,0.4,1.1,0.4c0.5,0,0.9-0.1,1.1-0.4c0.3-0.3,0.4-0.7,0.4-1.2c0-0.5-0.1-0.9-0.4-1.2c-0.2-0.2-0.6-0.4-1.2-0.4h-1V174.4
		z"/>
	<rect x="55.8" y="170" class="st7" width="1.2" height="9.1"/>
	<path class="st7" d="M62.6,179.2c0-0.2-0.1-0.4-0.1-0.5c0-0.1,0-0.3,0-0.4c-0.2,0.3-0.5,0.6-0.8,0.8c-0.3,0.2-0.7,0.3-1.1,0.3
		c-0.7,0-1.2-0.2-1.5-0.5c-0.3-0.3-0.5-0.8-0.5-1.4c0-0.6,0.2-1.1,0.7-1.4c0.5-0.3,1.2-0.5,2-0.5h1.3v-0.6c0-0.4-0.1-0.7-0.3-0.9
		c-0.2-0.2-0.5-0.3-1-0.3c-0.4,0-0.7,0.1-0.9,0.3c-0.2,0.2-0.3,0.4-0.3,0.7h-1.1l0,0c0-0.5,0.2-0.9,0.7-1.3c0.5-0.4,1.1-0.6,1.8-0.6
		c0.7,0,1.3,0.2,1.7,0.5c0.4,0.4,0.7,0.9,0.7,1.6v3.1c0,0.2,0,0.4,0,0.7c0,0.2,0.1,0.4,0.1,0.6H62.6L62.6,179.2z M60.7,178.3
		c0.4,0,0.8-0.1,1.1-0.3c0.3-0.2,0.6-0.5,0.7-0.7v-1h-1.3c-0.5,0-0.8,0.1-1.1,0.4c-0.3,0.2-0.4,0.5-0.4,0.8c0,0.3,0.1,0.5,0.3,0.7
		C60.1,178.2,60.4,178.3,60.7,178.3z"/>
	<path class="st7" d="M70.8,176.2c0,0.9-0.2,1.6-0.7,2.2c-0.4,0.6-1,0.8-1.8,0.8c-0.4,0-0.8-0.1-1.1-0.2c-0.3-0.2-0.6-0.4-0.8-0.7
		l-0.1,0.8h-0.9V170h1.2v3.6c0.2-0.3,0.4-0.5,0.7-0.6c0.3-0.1,0.6-0.2,1-0.2c0.8,0,1.4,0.3,1.8,0.9c0.4,0.6,0.7,1.4,0.7,2.5V176.2
		L70.8,176.2z M69.6,176.1c0-0.7-0.1-1.3-0.4-1.8c-0.3-0.5-0.7-0.7-1.2-0.7c-0.4,0-0.7,0.1-0.9,0.3c-0.2,0.2-0.4,0.4-0.6,0.7v2.7
		c0.1,0.3,0.3,0.6,0.6,0.7c0.2,0.2,0.5,0.3,0.9,0.3c0.5,0,0.9-0.2,1.2-0.6c0.3-0.4,0.4-0.9,0.4-1.5V176.1z"/>
	<path class="st7" d="M74.8,179.3c-0.9,0-1.6-0.3-2.1-0.9c-0.5-0.6-0.8-1.4-0.8-2.3v-0.3c0-0.9,0.3-1.7,0.8-2.3
		c0.5-0.6,1.2-0.9,1.9-0.9c0.9,0,1.5,0.3,1.9,0.8c0.4,0.5,0.7,1.2,0.7,2.1v0.7h-4.1l0,0c0,0.6,0.2,1.1,0.5,1.5
		c0.3,0.4,0.7,0.6,1.2,0.6c0.4,0,0.7-0.1,1-0.2c0.3-0.1,0.5-0.3,0.8-0.5l0.5,0.8c-0.2,0.2-0.5,0.4-0.9,0.6
		C75.8,179.2,75.3,179.3,74.8,179.3L74.8,179.3z M74.6,173.6c-0.4,0-0.7,0.2-1,0.5c-0.3,0.3-0.4,0.7-0.5,1.2l0,0h2.9v-0.1
		c0-0.5-0.1-0.8-0.4-1.1C75.5,173.8,75.1,173.6,74.6,173.6z"/>
	<rect x="78.6" y="170" class="st7" width="1.2" height="9.1"/>
	<polygon class="st6" points="19.6,200.8 22.1,193.1 24,193.1 20.4,203 18.7,203 15.2,193.1 17.1,193.1 	"/>
	<path class="st6" d="M29.1,203c-0.1-0.1-0.1-0.4-0.2-0.7c-0.5,0.6-1.2,0.8-1.9,0.8c-0.7,0-1.3-0.2-1.8-0.6
		c-0.5-0.4-0.7-0.9-0.7-1.6c0-0.8,0.3-1.4,0.9-1.8c0.6-0.4,1.4-0.6,2.5-0.6h1V198c0-0.4-0.1-0.7-0.3-0.9c-0.2-0.2-0.5-0.3-1-0.3
		c-0.4,0-0.7,0.1-0.9,0.3c-0.2,0.2-0.4,0.4-0.4,0.7h-1.7c0-0.4,0.1-0.8,0.4-1.1c0.3-0.4,0.6-0.6,1.1-0.8c0.5-0.2,1-0.3,1.5-0.3
		c0.9,0,1.6,0.2,2.1,0.7c0.5,0.4,0.8,1,0.8,1.8v3.3c0,0.7,0.1,1.2,0.3,1.6v0.1H29.1L29.1,203z M27.2,201.8c0.3,0,0.6-0.1,0.9-0.2
		c0.3-0.2,0.5-0.4,0.7-0.6v-1.4h-0.9c-0.6,0-1.1,0.1-1.4,0.3c-0.3,0.2-0.5,0.5-0.5,0.9c0,0.3,0.1,0.6,0.3,0.8
		C26.6,201.7,26.9,201.8,27.2,201.8z"/>
	<rect x="32.3" y="192.5" class="st6" width="1.7" height="10.5"/>
	<path class="st6" d="M40.3,202.3c-0.5,0.6-1.2,0.9-2.1,0.9c-0.8,0-1.4-0.2-1.8-0.7c-0.4-0.5-0.6-1.1-0.6-2v-4.8h1.7v4.8
		c0,0.9,0.4,1.4,1.2,1.4c0.8,0,1.4-0.3,1.6-0.9v-5.3h1.7v7.4h-1.6L40.3,202.3z"/>
	<path class="st6" d="M46.8,203.2c-1.1,0-1.9-0.3-2.6-1c-0.7-0.7-1-1.5-1-2.7v-0.2c0-0.7,0.1-1.4,0.4-2c0.3-0.6,0.7-1,1.2-1.4
		c0.5-0.3,1.1-0.5,1.7-0.5c1,0,1.8,0.3,2.3,1c0.6,0.6,0.8,1.6,0.8,2.7v0.7H45c0.1,0.6,0.3,1.1,0.6,1.4c0.4,0.4,0.8,0.5,1.4,0.5
		c0.8,0,1.4-0.3,1.9-0.9l0.9,0.9c-0.3,0.4-0.7,0.8-1.2,1C48,203,47.4,203.2,46.8,203.2L46.8,203.2z M46.6,196.8
		c-0.5,0-0.8,0.2-1.1,0.5c-0.3,0.3-0.5,0.8-0.5,1.3h3.2v-0.1c0-0.6-0.2-1-0.4-1.3C47.4,197,47.1,196.8,46.6,196.8z"/>
	<path class="st6" d="M56.6,199.5h1.2v1.3h-1.2v2.2h-1.7v-2.2h-4.3l0-1l4.3-6.7h1.7V199.5L56.6,199.5z M52.3,199.5h2.6v-4.2
		l-0.1,0.2L52.3,199.5z"/>
	<polygon class="st8" points="18.6,217 18.8,217.6 18.9,217.6 19,217 21.3,210.6 22.5,210.6 19.3,219.1 18.3,219.1 15.2,210.6 
		16.4,210.6 	"/>
	<path class="st8" d="M27.1,219.1c0-0.2-0.1-0.4-0.1-0.5c0-0.1,0-0.3,0-0.4c-0.2,0.3-0.5,0.6-0.8,0.8c-0.3,0.2-0.7,0.3-1.1,0.3
		c-0.7,0-1.2-0.2-1.5-0.5c-0.3-0.3-0.5-0.8-0.5-1.4c0-0.6,0.2-1.1,0.7-1.4c0.5-0.3,1.2-0.5,2-0.5H27v-0.6c0-0.4-0.1-0.7-0.3-0.9
		c-0.2-0.2-0.5-0.3-1-0.3c-0.4,0-0.7,0.1-0.9,0.3c-0.2,0.2-0.4,0.4-0.4,0.7h-1.1l0,0c0-0.5,0.2-0.9,0.7-1.3c0.5-0.4,1.1-0.6,1.8-0.6
		c0.7,0,1.3,0.2,1.7,0.5c0.4,0.4,0.7,0.9,0.7,1.6v3.1c0,0.2,0,0.4,0,0.7c0,0.2,0.1,0.4,0.1,0.6H27.1L27.1,219.1z M25.2,218.2
		c0.4,0,0.8-0.1,1.1-0.3c0.3-0.2,0.6-0.5,0.7-0.7v-1h-1.3c-0.5,0-0.8,0.1-1.1,0.4c-0.3,0.2-0.4,0.5-0.4,0.8c0,0.3,0.1,0.5,0.3,0.7
		C24.6,218.2,24.8,218.2,25.2,218.2z"/>
	<rect x="29.9" y="209.9" class="st8" width="1.2" height="9.1"/>
	<path class="st8" d="M36.8,218.1c-0.2,0.3-0.5,0.6-0.8,0.8c-0.3,0.2-0.7,0.3-1.1,0.3c-0.7,0-1.2-0.2-1.6-0.7
		c-0.4-0.4-0.6-1.1-0.6-2.1v-3.7h1.2v3.7c0,0.7,0.1,1.1,0.3,1.4c0.2,0.3,0.5,0.4,0.9,0.4c0.4,0,0.7-0.1,1-0.2
		c0.3-0.2,0.5-0.4,0.6-0.7v-4.6H38v6.3h-1L36.8,218.1z"/>
	<path class="st8" d="M42.3,219.2c-0.9,0-1.6-0.3-2.1-0.9c-0.5-0.6-0.8-1.4-0.8-2.3v-0.3c0-0.9,0.3-1.7,0.8-2.3
		c0.5-0.6,1.2-0.9,1.9-0.9c0.9,0,1.5,0.3,1.9,0.8c0.4,0.5,0.7,1.2,0.7,2.1v0.7h-4.1l0,0c0,0.6,0.2,1.1,0.5,1.5
		c0.3,0.4,0.7,0.6,1.2,0.6c0.4,0,0.7-0.1,1-0.2c0.3-0.1,0.5-0.3,0.8-0.5l0.5,0.8c-0.2,0.2-0.5,0.4-0.9,0.6
		C43.2,219.1,42.8,219.2,42.3,219.2L42.3,219.2z M42.1,213.5c-0.4,0-0.7,0.2-1,0.5c-0.3,0.3-0.4,0.7-0.5,1.2l0,0h2.9v-0.1
		c0-0.5-0.1-0.8-0.4-1.1C42.9,213.7,42.6,213.5,42.1,213.5z"/>
	<path class="st8" d="M50.4,216.2h1.2v0.9h-1.2v2h-1.1v-2h-3.8v-0.7l3.8-5.9h1.2V216.2L50.4,216.2z M46.7,216.2h2.6v-4l0,0l-0.1,0.3
		L46.7,216.2z"/>
	<rect x="55.8" y="209.9" class="st8" width="1.2" height="9.1"/>
	<path class="st8" d="M62.6,219.1c0-0.2-0.1-0.4-0.1-0.5c0-0.1,0-0.3,0-0.4c-0.2,0.3-0.5,0.6-0.8,0.8c-0.3,0.2-0.7,0.3-1.1,0.3
		c-0.7,0-1.2-0.2-1.5-0.5c-0.3-0.3-0.5-0.8-0.5-1.4c0-0.6,0.2-1.1,0.7-1.4c0.5-0.3,1.2-0.5,2-0.5h1.3v-0.6c0-0.4-0.1-0.7-0.3-0.9
		c-0.2-0.2-0.5-0.3-1-0.3c-0.4,0-0.7,0.1-0.9,0.3c-0.2,0.2-0.3,0.4-0.3,0.7h-1.1l0,0c0-0.5,0.2-0.9,0.7-1.3c0.5-0.4,1.1-0.6,1.8-0.6
		c0.7,0,1.3,0.2,1.7,0.5c0.4,0.4,0.7,0.9,0.7,1.6v3.1c0,0.2,0,0.4,0,0.7c0,0.2,0.1,0.4,0.1,0.6H62.6L62.6,219.1z M60.7,218.2
		c0.4,0,0.8-0.1,1.1-0.3c0.3-0.2,0.6-0.5,0.7-0.7v-1h-1.3c-0.5,0-0.8,0.1-1.1,0.4c-0.3,0.2-0.4,0.5-0.4,0.8c0,0.3,0.1,0.5,0.3,0.7
		C60.1,218.2,60.4,218.2,60.7,218.2z"/>
	<path class="st8" d="M70.8,216.2c0,0.9-0.2,1.6-0.7,2.2c-0.4,0.6-1,0.8-1.8,0.8c-0.4,0-0.8-0.1-1.1-0.2c-0.3-0.2-0.6-0.4-0.8-0.7
		l-0.1,0.8h-0.9v-9.1h1.2v3.6c0.2-0.3,0.4-0.5,0.7-0.6c0.3-0.1,0.6-0.2,1-0.2c0.8,0,1.4,0.3,1.8,0.9c0.4,0.6,0.7,1.4,0.7,2.5V216.2
		L70.8,216.2z M69.6,216c0-0.7-0.1-1.3-0.4-1.8c-0.3-0.5-0.7-0.7-1.2-0.7c-0.4,0-0.7,0.1-0.9,0.3c-0.2,0.2-0.4,0.4-0.6,0.7v2.7
		c0.1,0.3,0.3,0.6,0.6,0.7c0.2,0.2,0.5,0.3,0.9,0.3c0.5,0,0.9-0.2,1.2-0.6c0.3-0.4,0.4-0.9,0.4-1.5V216z"/>
	<path class="st8" d="M74.8,219.2c-0.9,0-1.6-0.3-2.1-0.9c-0.5-0.6-0.8-1.4-0.8-2.3v-0.3c0-0.9,0.3-1.7,0.8-2.3
		c0.5-0.6,1.2-0.9,1.9-0.9c0.9,0,1.5,0.3,1.9,0.8c0.4,0.5,0.7,1.2,0.7,2.1v0.7h-4.1l0,0c0,0.6,0.2,1.1,0.5,1.5
		c0.3,0.4,0.7,0.6,1.2,0.6c0.4,0,0.7-0.1,1-0.2c0.3-0.1,0.5-0.3,0.8-0.5l0.5,0.8c-0.2,0.2-0.5,0.4-0.9,0.6
		C75.8,219.1,75.3,219.2,74.8,219.2L74.8,219.2z M74.6,213.5c-0.4,0-0.7,0.2-1,0.5c-0.3,0.3-0.4,0.7-0.5,1.2l0,0h2.9v-0.1
		c0-0.5-0.1-0.8-0.4-1.1C75.5,213.7,75.1,213.5,74.6,213.5z"/>
	<rect x="78.6" y="209.9" class="st8" width="1.2" height="9.1"/>
	<g>
		<path class="st9" d="M19,132.7l0.2,0.7h0l0.2-0.7l2.2-6.4h1.2l-3.2,8.5h-1l-3.2-8.5h1.3L19,132.7z"/>
		<path class="st9" d="M27.5,134.8c0-0.2-0.1-0.4-0.1-0.5s0-0.3,0-0.4c-0.2,0.3-0.5,0.6-0.8,0.8s-0.7,0.3-1.1,0.3
			c-0.7,0-1.2-0.2-1.5-0.5s-0.5-0.8-0.5-1.4c0-0.6,0.2-1.1,0.7-1.4s1.2-0.5,2-0.5h1.3v-0.6c0-0.4-0.1-0.7-0.3-0.9s-0.5-0.3-1-0.3
			c-0.4,0-0.7,0.1-0.9,0.3s-0.3,0.4-0.3,0.7h-1.1l0,0c0-0.5,0.2-0.9,0.7-1.3s1.1-0.6,1.8-0.6c0.7,0,1.3,0.2,1.7,0.5s0.7,0.9,0.7,1.6
			v3.1c0,0.2,0,0.4,0,0.7s0.1,0.4,0.1,0.6H27.5z M25.6,134c0.4,0,0.8-0.1,1.1-0.3s0.6-0.5,0.7-0.7v-1h-1.3c-0.5,0-0.8,0.1-1.1,0.4
			s-0.4,0.5-0.4,0.8c0,0.3,0.1,0.5,0.3,0.7C25,133.9,25.2,134,25.6,134z"/>
		<path class="st9" d="M31.4,134.8h-1.2v-9.1h1.2V134.8z"/>
		<path class="st9" d="M37.2,133.9c-0.2,0.3-0.5,0.6-0.8,0.8s-0.7,0.3-1.1,0.3c-0.7,0-1.2-0.2-1.6-0.7s-0.6-1.1-0.6-2.1v-3.7h1.2
			v3.8c0,0.7,0.1,1.1,0.3,1.4s0.5,0.4,0.9,0.4c0.4,0,0.7-0.1,1-0.2s0.5-0.4,0.6-0.7v-4.6h1.2v6.3h-1L37.2,133.9z"/>
		<path class="st9" d="M42.6,134.9c-0.9,0-1.6-0.3-2.1-0.9s-0.8-1.4-0.8-2.3v-0.3c0-0.9,0.3-1.7,0.8-2.3s1.2-0.9,1.9-0.9
			c0.9,0,1.5,0.3,1.9,0.8s0.7,1.2,0.7,2.1v0.7H41l0,0c0,0.6,0.2,1.1,0.5,1.5s0.7,0.6,1.2,0.6c0.4,0,0.7-0.1,1-0.2s0.5-0.3,0.8-0.5
			l0.5,0.8c-0.2,0.2-0.5,0.4-0.9,0.6C43.6,134.9,43.2,134.9,42.6,134.9z M42.5,129.3c-0.4,0-0.7,0.2-1,0.5c-0.3,0.3-0.4,0.7-0.5,1.2
			l0,0h2.9v-0.2c0-0.5-0.1-0.8-0.4-1.1C43.3,129.4,43,129.3,42.5,129.3z"/>
		<path class="st9" d="M51.7,134.8h-5.5V134l2.8-3.1c0.5-0.6,0.8-1,1-1.3s0.3-0.7,0.3-1c0-0.4-0.1-0.8-0.4-1.1s-0.6-0.4-1-0.4
			c-0.6,0-1,0.2-1.3,0.5s-0.4,0.7-0.4,1.3h-1.1l0,0c0-0.7,0.2-1.4,0.7-1.9s1.2-0.8,2.1-0.8c0.8,0,1.4,0.2,1.8,0.7s0.7,1,0.7,1.7
			c0,0.5-0.1,0.9-0.4,1.4s-0.7,1-1.2,1.5l-2.2,2.4l0,0h4.1V134.8z"/>
		<path class="st9" d="M57.4,134.8h-1.2v-9.1h1.2V134.8z"/>
		<path class="st9" d="M63,134.8c0-0.2-0.1-0.4-0.1-0.5s0-0.3,0-0.4c-0.2,0.3-0.5,0.6-0.8,0.8s-0.7,0.3-1.1,0.3
			c-0.7,0-1.2-0.2-1.5-0.5s-0.5-0.8-0.5-1.4c0-0.6,0.2-1.1,0.7-1.4s1.2-0.5,2-0.5h1.3v-0.6c0-0.4-0.1-0.7-0.3-0.9s-0.5-0.3-1-0.3
			c-0.4,0-0.7,0.1-0.9,0.3s-0.3,0.4-0.3,0.7h-1.1l0,0c0-0.5,0.2-0.9,0.7-1.3s1.1-0.6,1.8-0.6c0.7,0,1.3,0.2,1.7,0.5s0.7,0.9,0.7,1.6
			v3.1c0,0.2,0,0.4,0,0.7s0.1,0.4,0.1,0.6H63z M61.1,134c0.4,0,0.8-0.1,1.1-0.3s0.6-0.5,0.7-0.7v-1h-1.3c-0.5,0-0.8,0.1-1.1,0.4
			s-0.4,0.5-0.4,0.8c0,0.3,0.1,0.5,0.3,0.7C60.5,133.9,60.8,134,61.1,134z"/>
		<path class="st9" d="M71.1,131.9c0,0.9-0.2,1.7-0.7,2.2s-1,0.8-1.8,0.8c-0.4,0-0.8-0.1-1.1-0.2s-0.6-0.4-0.8-0.7l-0.1,0.8h-0.9
			v-9.1h1.2v3.6c0.2-0.3,0.4-0.5,0.7-0.6s0.6-0.2,1-0.2c0.8,0,1.4,0.3,1.8,0.9s0.7,1.4,0.7,2.5V131.9z M70,131.8
			c0-0.7-0.1-1.3-0.4-1.8s-0.7-0.7-1.2-0.7c-0.4,0-0.7,0.1-0.9,0.3s-0.4,0.4-0.6,0.7v2.7c0.1,0.3,0.3,0.6,0.6,0.7s0.5,0.3,0.9,0.3
			c0.5,0,0.9-0.2,1.2-0.6s0.4-0.9,0.4-1.5V131.8z"/>
		<path class="st9" d="M75.2,134.9c-0.9,0-1.6-0.3-2.1-0.9s-0.8-1.4-0.8-2.3v-0.3c0-0.9,0.3-1.7,0.8-2.3s1.2-0.9,1.9-0.9
			c0.9,0,1.5,0.3,1.9,0.8s0.7,1.2,0.7,2.1v0.7h-4.1l0,0c0,0.6,0.2,1.1,0.5,1.5s0.7,0.6,1.2,0.6c0.4,0,0.7-0.1,1-0.2s0.5-0.3,0.8-0.5
			l0.5,0.8c-0.2,0.2-0.5,0.4-0.9,0.6C76.2,134.9,75.7,134.9,75.2,134.9z M75,129.3c-0.4,0-0.7,0.2-1,0.5c-0.3,0.3-0.4,0.7-0.5,1.2
			l0,0h2.9v-0.2c0-0.5-0.1-0.8-0.4-1.1C75.8,129.4,75.5,129.3,75,129.3z"/>
		<path class="st9" d="M80.1,134.8H79v-9.1h1.2V134.8z"/>
	</g>
</g>
<g>
	<path class="st10" d="M27.8,39.6h-2.3v-7.5h-8.3v7.5h-2.3V22.6h2.3v7.7h8.3v-7.7h2.3V39.6z"/>
	<path class="st10" d="M36.9,39.9c-1.8,0-3.2-0.6-4.2-1.8c-1-1.2-1.6-2.7-1.6-4.6V33c0-1.8,0.5-3.3,1.6-4.5c1.1-1.2,2.3-1.8,3.8-1.8
		c1.7,0,3,0.5,3.9,1.5s1.3,2.4,1.3,4.1v1.4h-8.2l0,0.1c0,1.2,0.3,2.2,0.9,3c0.6,0.8,1.4,1.2,2.5,1.2c0.8,0,1.5-0.1,2.1-0.3
		s1.1-0.5,1.5-0.9l0.9,1.5c-0.5,0.4-1.1,0.8-1.8,1.1S37.9,39.9,36.9,39.9z M36.5,28.6c-0.8,0-1.4,0.3-2,1c-0.5,0.6-0.9,1.5-1,2.4
		l0,0.1h5.8v-0.3c0-0.9-0.2-1.7-0.7-2.3S37.5,28.6,36.5,28.6z"/>
	<path class="st10" d="M52.1,39.6c-0.1-0.4-0.1-0.7-0.2-1s-0.1-0.6-0.1-0.9c-0.4,0.6-1,1.1-1.7,1.5s-1.4,0.6-2.2,0.6
		c-1.3,0-2.3-0.3-3-1s-1-1.6-1-2.8c0-1.2,0.5-2.2,1.5-2.8s2.3-1,4-1h2.5V31c0-0.7-0.2-1.3-0.7-1.8s-1.1-0.7-1.9-0.7
		c-0.7,0-1.3,0.2-1.8,0.6s-0.7,0.8-0.7,1.4h-2.2l0-0.1c0-0.9,0.4-1.8,1.3-2.5s2.1-1.1,3.6-1.1c1.4,0,2.6,0.4,3.5,1.1
		s1.3,1.8,1.3,3.2v6.1c0,0.5,0,0.9,0.1,1.3s0.1,0.8,0.3,1.2H52.1z M48.3,38c0.8,0,1.6-0.2,2.3-0.6s1.1-0.9,1.3-1.5v-2.1h-2.6
		c-0.9,0-1.7,0.2-2.2,0.7s-0.8,1-0.8,1.6c0,0.6,0.2,1,0.5,1.3C47.1,37.8,47.6,38,48.3,38z"/>
	<path class="st10" d="M57,33.5c0-2,0.4-3.7,1.3-4.9s2.1-1.9,3.7-1.9c0.7,0,1.4,0.1,2,0.4s1.1,0.7,1.5,1.2v-7h2.3v18.3h-1.9
		l-0.3-1.6c-0.4,0.6-0.9,1-1.5,1.3s-1.3,0.5-2.1,0.5c-1.5,0-2.8-0.6-3.6-1.7S57,35.6,57,33.8V33.5z M59.3,33.8
		c0,1.3,0.3,2.3,0.8,3.1s1.3,1.2,2.4,1.2c0.7,0,1.3-0.2,1.7-0.5s0.9-0.8,1.1-1.3v-5.9c-0.3-0.5-0.7-0.9-1.2-1.2s-1-0.5-1.7-0.5
		c-1.1,0-1.9,0.5-2.5,1.4s-0.8,2.1-0.8,3.6V33.8z"/>
	<path class="st10" d="M76.4,39.9c-1.8,0-3.2-0.6-4.2-1.8s-1.6-2.7-1.6-4.6V33c0-1.8,0.5-3.3,1.6-4.5s2.3-1.8,3.8-1.8
		c1.7,0,3,0.5,3.9,1.5s1.3,2.4,1.3,4.1v1.4H73l0,0.1c0,1.2,0.3,2.2,0.9,3c0.6,0.8,1.4,1.2,2.5,1.2c0.8,0,1.5-0.1,2.1-0.3
		s1.1-0.5,1.5-0.9l0.9,1.5c-0.5,0.4-1.1,0.8-1.8,1.1S77.5,39.9,76.4,39.9z M76.1,28.6c-0.8,0-1.4,0.3-2,1c-0.5,0.6-0.9,1.5-1,2.4
		l0,0.1h5.8v-0.3c0-0.9-0.2-1.7-0.7-2.3S77,28.6,76.1,28.6z"/>
	<path class="st10" d="M89.8,29l-1.2-0.1c-0.6,0-1.1,0.1-1.5,0.4s-0.7,0.7-1,1.2v9.1h-2.3V27h2.1l0.2,1.9c0.4-0.7,0.8-1.2,1.3-1.5
		s1.1-0.6,1.8-0.6c0.2,0,0.3,0,0.5,0s0.3,0.1,0.4,0.1L89.8,29z"/>
	<path class="st10" d="M94.8,37.8h8.1v1.8H92.5V22.6h2.3V37.8z"/>
	<path class="st10" d="M110.3,39.9c-1.8,0-3.2-0.6-4.2-1.8s-1.6-2.7-1.6-4.6V33c0-1.8,0.5-3.3,1.6-4.5s2.3-1.8,3.8-1.8
		c1.7,0,3,0.5,3.9,1.5s1.3,2.4,1.3,4.1v1.4h-8.2l0,0.1c0,1.2,0.3,2.2,0.9,3c0.6,0.8,1.4,1.2,2.5,1.2c0.8,0,1.5-0.1,2.1-0.3
		s1.1-0.5,1.5-0.9l0.9,1.5c-0.5,0.4-1.1,0.8-1.8,1.1S111.3,39.9,110.3,39.9z M109.9,28.6c-0.8,0-1.4,0.3-2,1c-0.5,0.6-0.9,1.5-1,2.4
		l0,0.1h5.8v-0.3c0-0.9-0.2-1.7-0.7-2.3S110.9,28.6,109.9,28.6z"/>
	<path class="st10" d="M118.7,39.6v-11h-2V27h2v-1.6c0-1.4,0.4-2.4,1.1-3.1s1.7-1.1,3-1.1c0.3,0,0.5,0,0.8,0.1s0.6,0.1,0.9,0.2
		l-0.3,1.8c-0.1,0-0.3-0.1-0.5-0.1s-0.4,0-0.6,0c-0.7,0-1.2,0.2-1.5,0.6s-0.5,1-0.5,1.8V27h2.6v1.7H121v11H118.7z"/>
	<path class="st10" d="M129.1,23.9V27h2.4v1.7h-2.4v7.7c0,0.6,0.1,1,0.4,1.3s0.6,0.4,1,0.4c0.1,0,0.3,0,0.4,0s0.3-0.1,0.4-0.1
		l0.3,1.6c-0.2,0.1-0.4,0.3-0.8,0.3s-0.7,0.1-1,0.1c-0.9,0-1.7-0.3-2.2-0.8c-0.6-0.6-0.8-1.5-0.8-2.7v-7.7h-2V27h2v-3.1H129.1z"/>
</g>
<g>
	<path class="st10" d="M196,35.7h-1.7v-4.4h-4.5v4.4h-1.7v-10h1.7v4.1h4.5v-4.1h1.7V35.7z"/>
	<path class="st10" d="M201.1,35.9c-1.1,0-1.9-0.3-2.6-1c-0.7-0.7-1-1.5-1-2.6V32c0-0.7,0.1-1.4,0.4-2c0.3-0.6,0.7-1,1.2-1.4
		c0.5-0.3,1.1-0.5,1.7-0.5c1,0,1.8,0.3,2.3,1c0.5,0.6,0.8,1.6,0.8,2.7v0.7h-4.8c0,0.6,0.3,1.1,0.6,1.4c0.4,0.4,0.8,0.5,1.4,0.5
		c0.8,0,1.4-0.3,1.9-0.9l0.9,0.9c-0.3,0.4-0.7,0.8-1.2,1C202.3,35.8,201.8,35.9,201.1,35.9z M200.9,29.5c-0.5,0-0.8,0.2-1.1,0.5
		s-0.5,0.8-0.5,1.3h3.2v-0.1c0-0.6-0.2-1-0.4-1.3C201.8,29.7,201.4,29.5,200.9,29.5z"/>
	<path class="st10" d="M209.8,35.7c-0.1-0.1-0.1-0.4-0.2-0.7c-0.5,0.6-1.2,0.8-1.9,0.8c-0.7,0-1.3-0.2-1.8-0.6
		c-0.5-0.4-0.7-0.9-0.7-1.6c0-0.8,0.3-1.4,0.9-1.8c0.6-0.4,1.4-0.6,2.5-0.6h1v-0.5c0-0.4-0.1-0.7-0.3-0.9c-0.2-0.2-0.5-0.3-1-0.3
		c-0.4,0-0.7,0.1-0.9,0.3c-0.2,0.2-0.4,0.4-0.4,0.7h-1.7c0-0.4,0.1-0.8,0.4-1.1c0.3-0.4,0.6-0.6,1.1-0.8c0.5-0.2,1-0.3,1.5-0.3
		c0.9,0,1.6,0.2,2.1,0.7c0.5,0.4,0.8,1,0.8,1.8V34c0,0.7,0.1,1.2,0.3,1.6v0.1H209.8z M208,34.6c0.3,0,0.6-0.1,0.9-0.2
		c0.3-0.2,0.5-0.4,0.7-0.6v-1.4h-0.9c-0.6,0-1.1,0.1-1.4,0.3c-0.3,0.2-0.5,0.5-0.5,0.9c0,0.3,0.1,0.6,0.3,0.8
		C207.3,34.5,207.6,34.6,208,34.6z"/>
	<path class="st10" d="M212.7,32c0-1.1,0.3-2.1,0.8-2.7c0.5-0.7,1.2-1,2.1-1c0.8,0,1.4,0.3,1.9,0.8v-3.8h1.7v10.5h-1.5l-0.1-0.8
		c-0.5,0.6-1.2,0.9-2,0.9c-0.9,0-1.6-0.3-2.1-1C212.9,34.1,212.7,33.2,212.7,32z M214.3,32.1c0,0.8,0.1,1.3,0.4,1.8
		c0.3,0.4,0.7,0.6,1.2,0.6c0.7,0,1.2-0.3,1.5-0.9v-3.2c-0.3-0.6-0.8-0.9-1.5-0.9c-0.5,0-1,0.2-1.2,0.6
		C214.5,30.6,214.3,31.3,214.3,32.1z"/>
	<path class="st10" d="M224.1,35.9c-1.1,0-1.9-0.3-2.6-1c-0.7-0.7-1-1.5-1-2.6V32c0-0.7,0.1-1.4,0.4-2c0.3-0.6,0.7-1,1.2-1.4
		c0.5-0.3,1.1-0.5,1.7-0.5c1,0,1.8,0.3,2.3,1c0.5,0.6,0.8,1.6,0.8,2.7v0.7h-4.8c0,0.6,0.3,1.1,0.6,1.4c0.4,0.4,0.8,0.5,1.4,0.5
		c0.8,0,1.4-0.3,1.9-0.9l0.9,0.9c-0.3,0.4-0.7,0.8-1.2,1C225.3,35.8,224.7,35.9,224.1,35.9z M223.9,29.5c-0.5,0-0.8,0.2-1.1,0.5
		s-0.5,0.8-0.5,1.3h3.2v-0.1c0-0.6-0.2-1-0.4-1.3C224.7,29.7,224.4,29.5,223.9,29.5z"/>
	<path class="st10" d="M232.3,29.9c-0.2,0-0.4-0.1-0.7-0.1c-0.8,0-1.3,0.3-1.5,0.9v5.1h-1.7v-7.4h1.6l0,0.8c0.4-0.6,1-1,1.7-1
		c0.2,0,0.4,0,0.6,0.1L232.3,29.9z"/>
	<path class="st10" d="M237.1,31.9h-1.9v3.8h-1.7v-10h3.5c1.1,0,2,0.3,2.7,0.8c0.6,0.5,0.9,1.3,0.9,2.2c0,0.7-0.2,1.2-0.5,1.7
		s-0.8,0.8-1.3,1l2.2,4.1v0.1h-1.9L237.1,31.9z M235.2,30.5h1.8c0.6,0,1-0.1,1.4-0.4c0.3-0.3,0.5-0.7,0.5-1.2c0-0.5-0.2-0.9-0.5-1.2
		c-0.3-0.3-0.8-0.4-1.4-0.5h-1.8V30.5z"/>
	<path class="st10" d="M242,26.4c0-0.3,0.1-0.5,0.2-0.6c0.2-0.2,0.4-0.3,0.7-0.3s0.5,0.1,0.7,0.3s0.2,0.4,0.2,0.6
		c0,0.3-0.1,0.5-0.2,0.6c-0.2,0.2-0.4,0.3-0.7,0.3s-0.5-0.1-0.7-0.3C242.1,26.9,242,26.7,242,26.4z M243.8,35.7h-1.7v-7.4h1.7V35.7z
		"/>
	<path class="st10" d="M245.3,32c0-1.1,0.3-2.1,0.8-2.8c0.5-0.7,1.3-1,2.2-1c0.8,0,1.5,0.3,2,0.9l0.1-0.7h1.5v7.2
		c0,1-0.3,1.7-0.9,2.3c-0.6,0.6-1.4,0.8-2.4,0.8c-0.5,0-1.1-0.1-1.6-0.3c-0.5-0.2-0.9-0.5-1.2-0.9l0.8-1c0.5,0.6,1.1,0.9,1.9,0.9
		c0.6,0,1-0.1,1.3-0.4c0.3-0.3,0.5-0.7,0.5-1.3v-0.5c-0.5,0.5-1.1,0.8-1.9,0.8c-0.9,0-1.6-0.3-2.1-1C245.6,34.2,245.3,33.2,245.3,32
		z M247,32.1c0,0.7,0.2,1.3,0.5,1.8c0.3,0.4,0.7,0.6,1.3,0.6c0.7,0,1.2-0.3,1.5-0.9v-3.3c-0.3-0.6-0.8-0.8-1.5-0.8
		c-0.5,0-1,0.2-1.3,0.6C247.1,30.7,247,31.3,247,32.1z"/>
	<path class="st10" d="M255.2,29.2c0.5-0.6,1.2-0.9,2.1-0.9c1.6,0,2.4,0.9,2.4,2.7v4.8H258V31c0-0.5-0.1-0.9-0.3-1.1
		c-0.2-0.2-0.5-0.3-1-0.3c-0.7,0-1.2,0.3-1.5,0.9v5.3h-1.7V25.2h1.7V29.2z"/>
	<path class="st10" d="M263.4,26.6v1.8h1.3v1.2h-1.3v4.1c0,0.3,0.1,0.5,0.2,0.6c0.1,0.1,0.3,0.2,0.6,0.2c0.2,0,0.4,0,0.6-0.1v1.3
		c-0.4,0.1-0.7,0.2-1.1,0.2c-1.3,0-1.9-0.7-1.9-2.1v-4.2h-1.2v-1.2h1.2v-1.8H263.4z"/>
</g>
<g>
	<g>
		<path class="st11" d="M22,260.7h-3.9l-0.8,2.3h-1.8l3.8-10h1.6l3.8,10h-1.8L22,260.7z M18.6,259.3h2.9l-1.4-4.1L18.6,259.3z"/>
		<path class="st11" d="M33.2,259.7c-0.1,1.1-0.5,1.9-1.2,2.5c-0.7,0.6-1.6,0.9-2.7,0.9c-0.8,0-1.5-0.2-2.1-0.6
			c-0.6-0.4-1.1-0.9-1.4-1.6s-0.5-1.5-0.5-2.4v-0.9c0-0.9,0.2-1.8,0.5-2.5s0.8-1.3,1.4-1.7s1.3-0.6,2.2-0.6c1.1,0,2,0.3,2.7,0.9
			c0.7,0.6,1.1,1.4,1.2,2.5h-1.7c-0.1-0.7-0.3-1.2-0.6-1.5c-0.3-0.3-0.8-0.5-1.5-0.5c-0.8,0-1.3,0.3-1.7,0.8s-0.6,1.4-0.6,2.4v0.9
			c0,1.1,0.2,1.9,0.6,2.5s0.9,0.8,1.7,0.8c0.7,0,1.2-0.2,1.5-0.5s0.6-0.8,0.6-1.5H33.2z"/>
		<path class="st11" d="M41.7,254.4h-3.1v8.6h-1.7v-8.6h-3.1V253h7.9V254.4z"/>
		<path class="st11" d="M44.9,263h-1.7v-10h1.7V263z"/>
		<path class="st11" d="M54.9,258.3c0,1-0.2,1.8-0.5,2.6c-0.3,0.7-0.8,1.3-1.4,1.7c-0.6,0.4-1.3,0.6-2.2,0.6c-0.8,0-1.5-0.2-2.2-0.6
			c-0.6-0.4-1.1-1-1.5-1.7s-0.5-1.6-0.5-2.5v-0.6c0-1,0.2-1.8,0.5-2.6s0.8-1.3,1.5-1.7c0.6-0.4,1.3-0.6,2.2-0.6s1.5,0.2,2.2,0.6
			c0.6,0.4,1.1,1,1.5,1.7c0.3,0.7,0.5,1.6,0.5,2.6V258.3z M53.2,257.8c0-1.1-0.2-1.9-0.6-2.5s-1-0.9-1.8-0.9c-0.7,0-1.3,0.3-1.8,0.9
			c-0.4,0.6-0.6,1.4-0.6,2.5v0.6c0,1.1,0.2,1.9,0.6,2.5s1,0.9,1.8,0.9c0.8,0,1.4-0.3,1.8-0.9s0.6-1.4,0.6-2.6V257.8z"/>
		<path class="st11" d="M64.5,263h-1.7l-4.4-7.1v7.1h-1.7v-10h1.7l4.5,7.1V253h1.7V263z"/>
		<path class="st11" d="M76.3,258.8c0,1.4-0.3,2.5-0.8,3.2c-0.5,0.7-1.4,1.1-2.4,1.1c-1.1,0-1.9-0.4-2.4-1.1
			c-0.5-0.7-0.8-1.8-0.8-3.1v-1.7c0-1.4,0.3-2.5,0.8-3.2s1.4-1.1,2.5-1.1c1.1,0,1.9,0.3,2.4,1s0.8,1.7,0.8,3.1V258.8z M74.6,256.9
			c0-0.9-0.1-1.6-0.4-2.1c-0.3-0.4-0.7-0.7-1.2-0.7c-0.5,0-0.9,0.2-1.2,0.6c-0.3,0.4-0.4,1.1-0.4,1.9v2.3c0,0.9,0.1,1.6,0.4,2.1
			s0.7,0.7,1.2,0.7c0.5,0,0.9-0.2,1.2-0.6c0.3-0.4,0.4-1.1,0.4-2V256.9z"/>
		<path class="st11" d="M82.3,263h-1.7v-8l-2.4,0.8v-1.4l3.9-1.4h0.2V263z"/>
	</g>
	<g>
		<path class="st11" d="M106.8,260.7H103l-0.8,2.3h-1.8l3.8-10h1.6l3.8,10h-1.8L106.8,260.7z M103.4,259.3h2.9l-1.4-4.1L103.4,259.3
			z"/>
		<path class="st11" d="M118,259.7c-0.1,1.1-0.5,1.9-1.2,2.5c-0.7,0.6-1.6,0.9-2.7,0.9c-0.8,0-1.5-0.2-2.1-0.6
			c-0.6-0.4-1.1-0.9-1.4-1.6s-0.5-1.5-0.5-2.4v-0.9c0-0.9,0.2-1.8,0.5-2.5s0.8-1.3,1.4-1.7s1.3-0.6,2.2-0.6c1.1,0,2,0.3,2.7,0.9
			c0.7,0.6,1.1,1.4,1.2,2.5h-1.7c-0.1-0.7-0.3-1.2-0.6-1.5c-0.3-0.3-0.8-0.5-1.5-0.5c-0.8,0-1.3,0.3-1.7,0.8s-0.6,1.4-0.6,2.4v0.9
			c0,1.1,0.2,1.9,0.6,2.5s0.9,0.8,1.7,0.8c0.7,0,1.2-0.2,1.5-0.5s0.6-0.8,0.6-1.5H118z"/>
		<path class="st11" d="M126.6,254.4h-3.1v8.6h-1.7v-8.6h-3.1V253h7.9V254.4z"/>
		<path class="st11" d="M129.7,263H128v-10h1.7V263z"/>
		<path class="st11" d="M139.8,258.3c0,1-0.2,1.8-0.5,2.6c-0.3,0.7-0.8,1.3-1.4,1.7c-0.6,0.4-1.3,0.6-2.2,0.6
			c-0.8,0-1.5-0.2-2.2-0.6c-0.6-0.4-1.1-1-1.5-1.7s-0.5-1.6-0.5-2.5v-0.6c0-1,0.2-1.8,0.5-2.6s0.8-1.3,1.5-1.7
			c0.6-0.4,1.3-0.6,2.2-0.6s1.5,0.2,2.2,0.6c0.6,0.4,1.1,1,1.5,1.7c0.3,0.7,0.5,1.6,0.5,2.6V258.3z M138,257.8
			c0-1.1-0.2-1.9-0.6-2.5s-1-0.9-1.8-0.9c-0.7,0-1.3,0.3-1.8,0.9c-0.4,0.6-0.6,1.4-0.6,2.5v0.6c0,1.1,0.2,1.9,0.6,2.5s1,0.9,1.8,0.9
			c0.8,0,1.4-0.3,1.8-0.9s0.6-1.4,0.6-2.6V257.8z"/>
		<path class="st11" d="M149.4,263h-1.7l-4.4-7.1v7.1h-1.7v-10h1.7l4.5,7.1V253h1.7V263z"/>
		<path class="st11" d="M161.1,258.8c0,1.4-0.3,2.5-0.8,3.2c-0.5,0.7-1.3,1.1-2.4,1.1c-1.1,0-1.9-0.4-2.4-1.1
			c-0.5-0.7-0.8-1.8-0.8-3.1v-1.7c0-1.4,0.3-2.5,0.8-3.2c0.5-0.7,1.4-1.1,2.5-1.1c1.1,0,1.9,0.3,2.4,1c0.5,0.7,0.8,1.7,0.8,3.1
			V258.8z M159.5,256.9c0-0.9-0.1-1.6-0.4-2.1c-0.3-0.4-0.7-0.7-1.2-0.7c-0.5,0-0.9,0.2-1.2,0.6c-0.3,0.4-0.4,1.1-0.4,1.9v2.3
			c0,0.9,0.1,1.6,0.4,2.1s0.7,0.7,1.2,0.7c0.5,0,0.9-0.2,1.2-0.6c0.3-0.4,0.4-1.1,0.4-2V256.9z"/>
		<path class="st11" d="M169.3,263h-6.7v-1.1l3.3-3.6c0.5-0.5,0.8-1,1-1.3c0.2-0.4,0.3-0.7,0.3-1.1c0-0.5-0.1-0.9-0.4-1.1
			s-0.6-0.4-1.1-0.4c-0.5,0-1,0.2-1.3,0.5c-0.3,0.3-0.4,0.8-0.4,1.3h-1.7c0-0.6,0.1-1.2,0.4-1.6c0.3-0.5,0.7-0.9,1.2-1.1
			s1.1-0.4,1.8-0.4c1,0,1.7,0.2,2.3,0.7c0.6,0.5,0.8,1.2,0.8,2c0,0.5-0.1,1-0.4,1.6c-0.3,0.5-0.7,1.2-1.4,1.9l-2.4,2.6h4.6V263z"/>
	</g>
	<g>
		<path class="st11" d="M193.8,260.7H190l-0.8,2.3h-1.8l3.8-10h1.6l3.8,10h-1.8L193.8,260.7z M190.5,259.3h2.9l-1.4-4.1L190.5,259.3
			z"/>
		<path class="st11" d="M205,259.7c-0.1,1.1-0.5,1.9-1.2,2.5c-0.7,0.6-1.6,0.9-2.7,0.9c-0.8,0-1.5-0.2-2.1-0.6
			c-0.6-0.4-1.1-0.9-1.4-1.6s-0.5-1.5-0.5-2.4v-0.9c0-0.9,0.2-1.8,0.5-2.5c0.3-0.7,0.8-1.3,1.4-1.7s1.3-0.6,2.2-0.6
			c1.1,0,2,0.3,2.7,0.9c0.7,0.6,1.1,1.4,1.2,2.5h-1.7c-0.1-0.7-0.3-1.2-0.6-1.5c-0.3-0.3-0.8-0.5-1.5-0.5c-0.8,0-1.3,0.3-1.7,0.8
			s-0.6,1.4-0.6,2.4v0.9c0,1.1,0.2,1.9,0.6,2.5c0.4,0.6,0.9,0.8,1.7,0.8c0.7,0,1.2-0.2,1.5-0.5s0.6-0.8,0.6-1.5H205z"/>
		<path class="st11" d="M213.6,254.4h-3.1v8.6h-1.7v-8.6h-3.1V253h7.9V254.4z"/>
		<path class="st11" d="M216.7,263H215v-10h1.7V263z"/>
		<path class="st11" d="M226.8,258.3c0,1-0.2,1.8-0.5,2.6c-0.3,0.7-0.8,1.3-1.4,1.7c-0.6,0.4-1.3,0.6-2.2,0.6
			c-0.8,0-1.5-0.2-2.2-0.6c-0.6-0.4-1.1-1-1.5-1.7c-0.3-0.7-0.5-1.6-0.5-2.5v-0.6c0-1,0.2-1.8,0.5-2.6c0.3-0.7,0.8-1.3,1.5-1.7
			c0.6-0.4,1.3-0.6,2.2-0.6c0.8,0,1.5,0.2,2.2,0.6c0.6,0.4,1.1,1,1.5,1.7c0.3,0.7,0.5,1.6,0.5,2.6V258.3z M225,257.8
			c0-1.1-0.2-1.9-0.6-2.5s-1-0.9-1.8-0.9c-0.7,0-1.3,0.3-1.8,0.9c-0.4,0.6-0.6,1.4-0.6,2.5v0.6c0,1.1,0.2,1.9,0.6,2.5
			c0.4,0.6,1,0.9,1.8,0.9c0.8,0,1.4-0.3,1.8-0.9c0.4-0.6,0.6-1.4,0.6-2.6V257.8z"/>
		<path class="st11" d="M236.4,263h-1.7l-4.4-7.1v7.1h-1.7v-10h1.7l4.5,7.1V253h1.7V263z"/>
		<path class="st11" d="M248.1,258.8c0,1.4-0.3,2.5-0.8,3.2c-0.5,0.7-1.3,1.1-2.4,1.1c-1.1,0-1.9-0.4-2.4-1.1
			c-0.5-0.7-0.8-1.8-0.8-3.1v-1.7c0-1.4,0.3-2.5,0.8-3.2c0.5-0.7,1.4-1.1,2.5-1.1c1.1,0,1.9,0.3,2.4,1c0.5,0.7,0.8,1.7,0.8,3.1
			V258.8z M246.5,256.9c0-0.9-0.1-1.6-0.4-2.1c-0.3-0.4-0.7-0.7-1.2-0.7c-0.5,0-0.9,0.2-1.2,0.6c-0.3,0.4-0.4,1.1-0.4,1.9v2.3
			c0,0.9,0.1,1.6,0.4,2.1s0.7,0.7,1.2,0.7c0.5,0,0.9-0.2,1.2-0.6c0.3-0.4,0.4-1.1,0.4-2V256.9z"/>
		<path class="st11" d="M251.5,257.3h1c0.5,0,0.9-0.1,1.2-0.4c0.3-0.3,0.4-0.6,0.4-1.1c0-0.5-0.1-0.8-0.4-1.1
			c-0.2-0.3-0.6-0.4-1.1-0.4c-0.4,0-0.8,0.1-1.1,0.4c-0.3,0.3-0.4,0.6-0.4,1h-1.7c0-0.5,0.1-1,0.4-1.4c0.3-0.4,0.6-0.7,1.1-1
			c0.5-0.2,1-0.4,1.6-0.4c1,0,1.8,0.3,2.3,0.7c0.6,0.5,0.9,1.2,0.9,2.1c0,0.4-0.1,0.9-0.4,1.3c-0.3,0.4-0.7,0.7-1.1,0.9
			c0.5,0.2,1,0.5,1.2,0.9c0.3,0.4,0.4,0.9,0.4,1.4c0,0.9-0.3,1.6-0.9,2.1c-0.6,0.5-1.4,0.8-2.4,0.8c-1,0-1.7-0.3-2.4-0.8
			c-0.6-0.5-0.9-1.2-0.9-2h1.7c0,0.4,0.1,0.8,0.4,1.1s0.7,0.4,1.2,0.4c0.5,0,0.9-0.1,1.2-0.4c0.3-0.3,0.4-0.7,0.4-1.2
			c0-0.5-0.2-0.9-0.5-1.2c-0.3-0.3-0.8-0.4-1.4-0.4h-1V257.3z"/>
	</g>
</g>
</svg>
