<?xml version="1.0" encoding="utf-8"?>
<!-- Generator: Adobe Illustrator 26.0.3, SVG Export Plug-In . SVG Version: 6.00 Build 0)  -->
<svg version="1.1" id="Layer_1" xmlns="http://www.w3.org/2000/svg" xmlns:xlink="http://www.w3.org/1999/xlink" x="0px" y="0px"
	 viewBox="0 0 918.6 331.8" style="enable-background:new 0 0 918.6 331.8;" xml:space="preserve">
<style type="text/css">
	.st0{fill:#179D71;}
	.st1{fill:#E6A700;}
	.st2{fill:#CC2E29;}
	.st3{fill:#FFBA00;}
	.st4{fill:#515559;}
	.st5{fill-rule:evenodd;clip-rule:evenodd;fill:#FFFFFF;stroke:#179D71;stroke-miterlimit:2.613;}
	.st6{fill-rule:evenodd;clip-rule:evenodd;fill:#179D71;}
	.st7{fill:#FFFFFF;}
	.st8{fill:#4D5EE0;}
	.st9{fill:none;stroke:#179D71;stroke-miterlimit:2.613;}
	.st10{fill:none;stroke:#000000;stroke-width:1.4234;}
	.st11{fill:#179D71;stroke:#FFFFFF;stroke-width:2;stroke-miterlimit:3;}
</style>
<rect id="Rectangle_14" x="572.3" y="221.1" class="st0" width="230" height="80"/>
<rect id="Rectangle_13" x="802.3" y="221.1" class="st1" width="45" height="80"/>
<rect id="Rectangle_6" x="291.3" y="221.1" class="st2" width="45" height="80"/>
<rect id="Rectangle_11" x="855.3" y="221.1" class="st2" width="45" height="80"/>
<rect id="Rectangle_7" x="335.3" y="221.1" class="st3" width="3" height="80"/>
<rect id="Rectangle_10" x="899.3" y="221.1" class="st0" width="10" height="80"/>
<rect id="Rectangle_23" x="335.3" y="221.1" class="st1" width="3" height="80"/>
<rect id="Rectangle_24" x="338.3" y="221.1" class="st0" width="3" height="80"/>
<rect id="Rectangle_25" x="341.3" y="221.1" class="st1" width="3" height="80"/>
<rect id="Rectangle_3" x="9.3" y="221.1" class="st0" width="230" height="80"/>
<rect id="Rectangle_4" x="238.3" y="221.1" class="st2" width="45" height="80"/>
<rect id="Rectangle_51-3" x="757.3" y="221.1" class="st2" width="45" height="80"/>
<rect id="Rectangle_12" x="846.3" y="221.1" class="st4" width="10" height="80"/>
<rect id="Rectangle_8" x="344.3" y="221.1" class="st4" width="228" height="80"/>
<g transform="matrix(1, 0, 0, 1, 208.5, 309.5)">
	
		<image style="overflow:visible;opacity:0.2;enable-background:new    ;" width="286" height="189" xlink:href="B5E4B4F1.png"  transform="matrix(1 0 0 1 21.8929 -271.75)">
	</image>
	<g>
		<path id="Path_57-2_1_" class="st5" d="M40.1-265.3h241.5c6.6,0,12,5.4,12,12.1v120.6c0,6.6-5.4,12-12,12.1H87.2l-6.8,24.7
			l-10.9-24.7H40.1c-6.6,0-12-5.4-12-12.1V-253C28.1-259.9,33.5-265.3,40.1-265.3z"/>
	</g>
</g>
<path id="Path_57-3" class="st6" d="M236.6,84.7V56.3c0-6.6,5.4-12,12-12.1h241.5c6.6,0,12,5.4,12,12.1v28.4
	C413.6,83.9,379.9,84.7,236.6,84.7z"/>
<g>
	<path class="st7" d="M258.8,67.1h-1.9v4.2h-2.3V59.8h4.2c1.3,0,2.4,0.3,3.1,0.9s1.1,1.4,1.1,2.5c0,0.8-0.2,1.4-0.5,1.9
		s-0.8,0.9-1.5,1.2l2.5,4.6v0.3H261L258.8,67.1z M257,65.2h1.9c0.6,0,1-0.1,1.4-0.4c0.3-0.3,0.5-0.7,0.5-1.2s-0.2-1-0.5-1.3
		s-0.8-0.5-1.4-0.5H257V65.2z"/>
	<path class="st7" d="M273.4,59.8v7.5c0,1.2-0.4,2.2-1.2,3c-0.8,0.7-1.8,1.1-3.2,1.1c-1.3,0-2.4-0.4-3.2-1.1s-1.2-1.7-1.2-2.9v-7.6
		h2.3v7.5c0,0.7,0.2,1.3,0.5,1.6c0.4,0.3,0.9,0.5,1.5,0.5c1.3,0,2-0.7,2-2.1v-7.6L273.4,59.8L273.4,59.8z"/>
	<path class="st7" d="M284.6,71.3h-2.3l-4.6-7.5v7.5h-2.3V59.8h2.3l4.6,7.5v-7.5h2.3V71.3z"/>
	<path class="st7" d="M295.9,71.3h-2.3l-4.6-7.5v7.5h-2.3V59.8h2.3l4.6,7.5v-7.5h2.3V71.3z"/>
	<path class="st7" d="M300.4,71.3h-2.3V59.8h2.3V71.3z"/>
	<path class="st7" d="M311.9,71.3h-2.3l-4.6-7.5v7.5h-2.3V59.8h2.3l4.6,7.5v-7.5h2.3V71.3z"/>
	<path class="st7" d="M322.9,69.8c-0.4,0.5-1,0.9-1.8,1.2c-0.8,0.3-1.6,0.4-2.6,0.4s-1.8-0.2-2.6-0.6s-1.3-1.1-1.7-1.9
		c-0.4-0.8-0.6-1.8-0.6-2.9v-0.8c0-1.1,0.2-2.1,0.6-2.9s0.9-1.5,1.7-1.9c0.7-0.4,1.6-0.7,2.5-0.7c1.3,0,2.4,0.3,3.2,1
		c0.8,0.6,1.2,1.6,1.4,2.8h-2.3c-0.1-0.7-0.3-1.1-0.7-1.4c-0.4-0.3-0.8-0.5-1.5-0.5c-0.8,0-1.4,0.3-1.8,0.9s-0.6,1.5-0.6,2.7v0.7
		c0,1.2,0.2,2.1,0.7,2.7s1.1,0.9,2,0.9s1.5-0.2,1.9-0.6v-2h-2.1v-1.6h4.5v4.5H322.9z"/>
</g>
<g>
	<path d="M261.2,144.4c0-0.5-0.2-1-0.6-1.3s-1.1-0.6-2.1-0.9c-1.2-0.3-2.1-0.7-2.8-1.3c-0.7-0.6-1-1.3-1-2.1c0-0.9,0.4-1.6,1.1-2.2
		c0.7-0.6,1.7-0.9,2.8-0.9c1.2,0,2.2,0.3,3,1c0.7,0.7,1.1,1.5,1.1,2.4l0,0h-1.5c0-0.7-0.2-1.2-0.7-1.6c-0.4-0.4-1.1-0.6-1.9-0.6
		s-1.4,0.2-1.8,0.5s-0.6,0.8-0.6,1.4c0,0.5,0.2,0.9,0.7,1.2c0.4,0.3,1.2,0.6,2.2,0.9c1.2,0.3,2.1,0.7,2.7,1.3s0.9,1.3,0.9,2.1
		c0,0.9-0.4,1.7-1.1,2.2s-1.7,0.8-2.9,0.8c-1.1,0-2.1-0.3-3-0.9c-0.9-0.6-1.3-1.4-1.3-2.5l0,0h1.5c0,0.7,0.3,1.3,0.8,1.7
		s1.2,0.6,2,0.6s1.4-0.2,1.8-0.5S261.2,144.9,261.2,144.4z"/>
	<path d="M266.7,136.8v2h1.6v1.1h-1.6v5.1c0,0.4,0.1,0.7,0.2,0.8s0.4,0.2,0.7,0.2c0.1,0,0.2,0,0.3,0c0.1,0,0.2,0,0.3-0.1l0.2,1.1
		c-0.1,0.1-0.3,0.2-0.5,0.2c-0.2,0.1-0.4,0.1-0.7,0.1c-0.6,0-1.1-0.2-1.5-0.6c-0.4-0.4-0.6-1-0.6-1.8v-5.1h-1.3v-1.1h1.3v-2h1.6
		V136.8z"/>
	<path d="M274.2,140.1h-0.8c-0.4,0-0.7,0.1-1,0.3s-0.5,0.5-0.6,0.8v6h-1.5v-8.5h1.4l0.1,1.2c0.2-0.4,0.5-0.8,0.9-1s0.8-0.4,1.2-0.4
		c0.1,0,0.2,0,0.3,0c0.1,0,0.2,0,0.3,0.1L274.2,140.1z"/>
	<path d="M277.4,136.6h-1.5v-1.6h1.5V136.6z M277.4,147.3h-1.5v-8.5h1.5V147.3z"/>
	<path d="M281.1,138.8l0.1,1.3c0.3-0.4,0.6-0.8,1.1-1c0.4-0.2,0.9-0.4,1.4-0.4c0.9,0,1.6,0.3,2.1,0.8s0.8,1.4,0.8,2.5v5.3h-1.5V142
		c0-0.7-0.1-1.3-0.4-1.6s-0.7-0.5-1.3-0.5c-0.4,0-0.8,0.1-1.2,0.3c-0.3,0.2-0.6,0.5-0.8,0.9v6.2h-1.5v-8.5H281.1z"/>
	<path d="M288.5,143.1c0-1.4,0.3-2.5,0.9-3.3s1.4-1.3,2.5-1.3c0.5,0,1,0.1,1.4,0.3s0.7,0.5,1,0.9l0.2-1.1h1.2v8.5
		c0,1.1-0.3,1.9-0.9,2.5s-1.5,0.9-2.7,0.9c-0.4,0-0.8-0.1-1.3-0.2c-0.5-0.1-0.9-0.3-1.2-0.5l0.4-1.2c0.3,0.2,0.6,0.3,1,0.4
		s0.8,0.1,1.2,0.1c0.8,0,1.3-0.2,1.6-0.5c0.3-0.3,0.5-0.9,0.5-1.6v-1c-0.3,0.4-0.6,0.6-1,0.8s-0.8,0.3-1.3,0.3c-1,0-1.9-0.4-2.4-1.1
		s-0.9-1.7-0.9-2.9v0H288.5z M290,143.4c0,0.8,0.2,1.5,0.5,2s0.9,0.8,1.6,0.8c0.5,0,0.9-0.1,1.2-0.3s0.6-0.5,0.8-0.9v-3.9
		c-0.2-0.4-0.5-0.6-0.8-0.9c-0.3-0.2-0.7-0.3-1.1-0.3c-0.7,0-1.3,0.3-1.6,0.9c-0.4,0.6-0.5,1.4-0.5,2.4v0.2H290z"/>
</g>
<g>
	<path d="M27.7,10H24v10.2h-1.5V10h-3.6V8.8h8.8V10z"/>
	<path d="M30.8,9.5h-1.5V7.9h1.5V9.5z M30.8,20.3h-1.5v-8.5h1.5V20.3z"/>
	<path d="M35.1,9.8v2h1.6v1.1h-1.6V18c0,0.4,0.1,0.7,0.2,0.8S35.7,19,36,19c0.1,0,0.2,0,0.3,0s0.2,0,0.3-0.1l0.2,1.1
		c-0.1,0.1-0.3,0.2-0.5,0.2c-0.2,0.1-0.4,0.1-0.7,0.1c-0.6,0-1.1-0.2-1.5-0.6c-0.4-0.4-0.6-1-0.6-1.8v-5.1h-1.3v-1.1h1.3v-2
		L35.1,9.8L35.1,9.8z"/>
	<path d="M40.3,20.3h-1.5V8h1.5V20.3z"/>
	<path d="M46.2,20.3c-1.2,0-2.1-0.4-2.8-1.2s-1-1.8-1-3.1v-0.3c0-1.2,0.4-2.2,1.1-3s1.6-1.2,2.5-1.2c1.1,0,2,0.3,2.6,1
		s0.9,1.6,0.9,2.8v1h-5.6l0,0c0,0.8,0.2,1.5,0.6,2s1,0.8,1.7,0.8c0.5,0,1-0.1,1.4-0.2c0.4-0.1,0.7-0.4,1-0.6l0.6,1
		c-0.3,0.3-0.7,0.5-1.2,0.7S46.9,20.3,46.2,20.3z M46,12.9c-0.5,0-1,0.2-1.3,0.7c-0.4,0.4-0.6,1-0.7,1.6l0,0h3.9v-0.2
		c0-0.6-0.2-1.1-0.5-1.5C47.1,13,46.6,12.9,46,12.9z"/>
	<path d="M64,20.3h-1.5v-5h-5.6v5h-1.5V8.9h1.5V14h5.5V8.9h1.5L64,20.3L64,20.3z"/>
	<path d="M70,20.3c-1.2,0-2.1-0.4-2.8-1.2s-1-1.8-1-3.1v-0.3c0-1.2,0.4-2.2,1.1-3s1.6-1.2,2.5-1.2c1.1,0,2,0.3,2.6,1
		s0.9,1.6,0.9,2.8v1h-5.5l0,0c0,0.8,0.2,1.5,0.6,2s1,0.8,1.7,0.8c0.5,0,1-0.1,1.4-0.2c0.4-0.1,0.7-0.4,1-0.6l0.6,1
		c-0.3,0.3-0.7,0.5-1.2,0.7C71.3,20.3,70.7,20.3,70,20.3z M69.8,12.9c-0.5,0-1,0.2-1.3,0.7c-0.4,0.4-0.6,1-0.7,1.6l0,0h3.9v-0.2
		c0-0.6-0.2-1.1-0.5-1.5C70.9,13,70.4,12.9,69.8,12.9z"/>
	<path d="M79,13.1h-0.8c-0.4,0-0.7,0.1-1,0.3s-0.5,0.5-0.6,0.8v6h-1.5v-8.5h1.4l0.1,1.2c0.2-0.4,0.5-0.8,0.9-1s0.8-0.4,1.2-0.4
		c0.1,0,0.2,0,0.3,0c0.1,0,0.2,0,0.3,0.1L79,13.1z"/>
	<path d="M83.8,20.3c-1.2,0-2.1-0.4-2.8-1.2s-1-1.8-1-3.1v-0.3c0-1.2,0.4-2.2,1.1-3s1.6-1.2,2.5-1.2c1.1,0,2,0.3,2.6,1
		s0.9,1.6,0.9,2.8v1h-5.5l0,0c0,0.8,0.2,1.5,0.6,2s1,0.8,1.7,0.8c0.5,0,1-0.1,1.4-0.2c0.4-0.1,0.7-0.4,1-0.6l0.6,1
		c-0.3,0.3-0.7,0.5-1.2,0.7C85.1,20.3,84.5,20.3,83.8,20.3z M83.6,12.9c-0.5,0-1,0.2-1.3,0.7c-0.4,0.4-0.6,1-0.7,1.6l0,0h3.9v-0.2
		c0-0.6-0.2-1.1-0.5-1.5C84.7,13,84.2,12.9,83.6,12.9z"/>
</g>
<g>
	<path class="st4" d="M257.6,105.3h-1.2v-7.4h-1.7V97l2.9-0.3L257.6,105.3L257.6,105.3z"/>
	<path class="st4" d="M266.6,105.3h-5.5v-0.8l2.8-3.1c0.5-0.6,0.8-1,1-1.3s0.3-0.7,0.3-1c0-0.4-0.1-0.8-0.4-1.1s-0.6-0.4-1-0.4
		c-0.6,0-1,0.2-1.3,0.5s-0.4,0.7-0.4,1.3h-1.2l0,0c0-0.7,0.2-1.4,0.7-1.9s1.2-0.8,2.1-0.8c0.8,0,1.4,0.2,1.8,0.7s0.7,1,0.7,1.7
		c0,0.5-0.1,0.9-0.4,1.4s-0.7,1-1.2,1.5l-2.2,2.4l0,0h4.1v0.9H266.6z"/>
	<path class="st4" d="M268.2,105.9h-1l3.6-9.3h1L268.2,105.9z"/>
	<path class="st4" d="M278.2,101.9c0,1.1-0.2,1.9-0.7,2.5s-1.1,0.9-2,0.9s-1.5-0.3-2-0.9s-0.7-1.4-0.7-2.5v-2c0-1.1,0.2-1.9,0.7-2.5
		s1.1-0.9,2-0.9c0.8,0,1.5,0.3,2,0.9s0.7,1.4,0.7,2.5V101.9z M277,99.7c0-0.7-0.1-1.3-0.4-1.7c-0.3-0.4-0.7-0.6-1.2-0.6
		s-0.9,0.2-1.2,0.6c-0.3,0.4-0.4,0.9-0.4,1.7v2.5c0,0.7,0.1,1.3,0.4,1.7c0.3,0.4,0.7,0.6,1.2,0.6s0.9-0.2,1.2-0.6
		c0.3-0.4,0.4-0.9,0.4-1.7V99.7z"/>
	<path class="st4" d="M281.8,104.4c0.6,0,1-0.2,1.4-0.6s0.5-1.1,0.5-1.9v-0.4c-0.2,0.3-0.4,0.5-0.7,0.6s-0.6,0.2-1,0.2
		c-0.8,0-1.5-0.3-2-0.8s-0.7-1.2-0.7-2.1s0.3-1.6,0.8-2.1s1.1-0.8,1.9-0.8c0.9,0,1.6,0.3,2.1,0.8s0.8,1.4,0.8,2.5v2
		c0,1.1-0.3,2-0.8,2.6s-1.3,0.9-2.2,0.9c-0.3,0-0.6,0-0.9-0.1s-0.6-0.1-0.8-0.3l0.2-0.9c0.2,0.1,0.5,0.2,0.7,0.3
		S281.5,104.4,281.8,104.4z M282,101.4c0.4,0,0.8-0.1,1.1-0.3c0.3-0.2,0.5-0.4,0.6-0.7v-0.7c0-0.7-0.1-1.3-0.4-1.7
		c-0.3-0.4-0.7-0.6-1.3-0.6c-0.4,0-0.8,0.2-1.1,0.6c-0.3,0.4-0.4,0.9-0.4,1.4c0,0.6,0.1,1.1,0.4,1.4
		C281.2,101.3,281.6,101.4,282,101.4z"/>
	<path class="st4" d="M286.7,105.9h-1l3.6-9.3h1L286.7,105.9z"/>
	<path class="st4" d="M296.8,105.3h-5.5v-0.8l2.8-3.1c0.5-0.6,0.8-1,1-1.3s0.3-0.7,0.3-1c0-0.4-0.1-0.8-0.4-1.1s-0.6-0.4-1-0.4
		c-0.6,0-1,0.2-1.3,0.5s-0.4,0.7-0.4,1.3h-1.1l0,0c0-0.7,0.2-1.4,0.7-1.9s1.2-0.8,2.1-0.8c0.8,0,1.4,0.2,1.8,0.7s0.7,1,0.7,1.7
		c0,0.5-0.1,0.9-0.4,1.4s-0.7,1-1.2,1.5l-2.2,2.4l0,0h4.1V105.3z"/>
	<path class="st4" d="M303.4,101.9c0,1.1-0.2,1.9-0.7,2.5s-1.1,0.9-2,0.9s-1.5-0.3-2-0.9s-0.7-1.4-0.7-2.5v-2c0-1.1,0.2-1.9,0.7-2.5
		s1.1-0.9,2-0.9c0.8,0,1.5,0.3,2,0.9s0.7,1.4,0.7,2.5V101.9z M302.3,99.7c0-0.7-0.1-1.3-0.4-1.7c-0.3-0.4-0.7-0.6-1.2-0.6
		s-0.9,0.2-1.2,0.6c-0.3,0.4-0.4,0.9-0.4,1.7v2.5c0,0.7,0.1,1.3,0.4,1.7c0.3,0.4,0.7,0.6,1.2,0.6s0.9-0.2,1.2-0.6
		c0.3-0.4,0.4-0.9,0.4-1.7V99.7z"/>
	<path class="st4" d="M310.3,105.3h-5.5v-0.8l2.8-3.1c0.5-0.6,0.8-1,1-1.3s0.3-0.7,0.3-1c0-0.4-0.1-0.8-0.4-1.1s-0.6-0.4-1-0.4
		c-0.6,0-1,0.2-1.3,0.5s-0.4,0.7-0.4,1.3h-1.1l0,0c0-0.7,0.2-1.4,0.7-1.9s1.2-0.8,2.1-0.8c0.8,0,1.4,0.2,1.8,0.7s0.7,1,0.7,1.7
		c0,0.5-0.1,0.9-0.4,1.4s-0.7,1-1.2,1.5l-2.2,2.4l0,0h4.1V105.3z"/>
	<path class="st4" d="M317,101.9c0,1.1-0.2,1.9-0.7,2.5s-1.1,0.9-2,0.9s-1.5-0.3-2-0.9s-0.7-1.4-0.7-2.5v-2c0-1.1,0.2-1.9,0.7-2.5
		s1.1-0.9,2-0.9c0.8,0,1.5,0.3,2,0.9s0.7,1.4,0.7,2.5V101.9z M315.8,99.7c0-0.7-0.1-1.3-0.4-1.7c-0.3-0.4-0.7-0.6-1.2-0.6
		s-0.9,0.2-1.2,0.6c-0.3,0.4-0.4,0.9-0.4,1.7v2.5c0,0.7,0.1,1.3,0.4,1.7c0.3,0.4,0.7,0.6,1.2,0.6s0.9-0.2,1.2-0.6
		c0.3-0.4,0.4-0.9,0.4-1.7V99.7z"/>
	<path class="st4" d="M325.5,106.8h-0.9V96.7h0.9V106.8z"/>
	<path class="st4" d="M336.5,105.3h-1.2v-7.4h-1.7V97l2.9-0.3L336.5,105.3L336.5,105.3z"/>
	<path class="st4" d="M345.4,101.9c0,1.1-0.2,1.9-0.7,2.5s-1.1,0.9-2,0.9s-1.5-0.3-2-0.9s-0.7-1.4-0.7-2.5v-2c0-1.1,0.2-1.9,0.7-2.5
		s1.1-0.9,2-0.9c0.8,0,1.5,0.3,2,0.9s0.7,1.4,0.7,2.5V101.9z M344.2,99.7c0-0.7-0.1-1.3-0.4-1.7c-0.3-0.4-0.7-0.6-1.2-0.6
		s-0.9,0.2-1.2,0.6c-0.3,0.4-0.4,0.9-0.4,1.7v2.5c0,0.7,0.1,1.3,0.4,1.7c0.3,0.4,0.7,0.6,1.2,0.6s0.9-0.2,1.2-0.6
		c0.3-0.4,0.4-0.9,0.4-1.7V99.7z"/>
	<path class="st4" d="M348.1,100.1h-1.2v-1.2h1.2V100.1z M348.1,105.3h-1.2v-1.2h1.2V105.3z"/>
	<path class="st4" d="M355.3,105.3h-5.5v-0.8l2.8-3.1c0.5-0.6,0.8-1,1-1.3s0.3-0.7,0.3-1c0-0.4-0.1-0.8-0.4-1.1s-0.6-0.4-1-0.4
		c-0.6,0-1,0.2-1.3,0.5s-0.4,0.7-0.4,1.3h-1.1l0,0c0-0.7,0.2-1.4,0.7-1.9s1.2-0.8,2.1-0.8c0.8,0,1.4,0.2,1.8,0.7s0.7,1,0.7,1.7
		c0,0.5-0.1,0.9-0.4,1.4s-0.7,1-1.2,1.5l-2.2,2.4l0,0h4.1V105.3z"/>
	<path class="st4" d="M361.7,98.9c0,0.4-0.1,0.8-0.4,1.2s-0.6,0.6-1,0.7c0.5,0.2,0.9,0.4,1.2,0.8s0.4,0.8,0.4,1.3
		c0,0.8-0.3,1.4-0.8,1.8s-1.2,0.6-2,0.6s-1.5-0.2-2-0.6s-0.8-1-0.8-1.8c0-0.5,0.1-0.9,0.4-1.3s0.7-0.6,1.2-0.8
		c-0.4-0.2-0.8-0.4-1-0.7s-0.4-0.7-0.4-1.2c0-0.8,0.2-1.3,0.7-1.7s1.1-0.6,1.8-0.6c0.8,0,1.4,0.2,1.8,0.6S361.7,98.2,361.7,98.9z
		 M360.8,102.8c0-0.5-0.2-0.9-0.5-1.2c-0.3-0.3-0.7-0.5-1.2-0.5s-0.9,0.2-1.2,0.5c-0.3,0.3-0.4,0.7-0.4,1.2s0.1,0.9,0.4,1.1
		c0.3,0.3,0.7,0.4,1.2,0.4s0.9-0.1,1.2-0.4C360.7,103.8,360.8,103.3,360.8,102.8z M360.6,98.9c0-0.4-0.1-0.8-0.4-1s-0.6-0.4-1-0.4
		s-0.7,0.1-1,0.4s-0.4,0.6-0.4,1.1c0,0.4,0.1,0.8,0.4,1s0.6,0.4,1,0.4s0.7-0.1,1-0.4S360.6,99.3,360.6,98.9z"/>
	<path class="st4" d="M364.7,100.1h-1.2v-1.2h1.2V100.1z M364.7,105.3h-1.2v-1.2h1.2V105.3z"/>
	<path class="st4" d="M366.6,101.3l0.5-4.7h4.3v1h-3.3l-0.3,2.4c0.2-0.1,0.4-0.2,0.6-0.3s0.5-0.1,0.8-0.1c0.8,0,1.4,0.2,1.9,0.8
		s0.7,1.2,0.7,2.1s-0.2,1.5-0.7,2.1s-1.1,0.8-2,0.8c-0.7,0-1.3-0.2-1.8-0.6s-0.7-1-0.7-1.7l0,0h1c0,0.5,0.1,0.8,0.4,1.1
		s0.6,0.4,1,0.4c0.5,0,0.9-0.2,1.1-0.5c0.3-0.3,0.4-0.8,0.4-1.4c0-0.5-0.1-1-0.4-1.3c-0.3-0.4-0.7-0.5-1.1-0.5c-0.5,0-0.8,0.1-1,0.2
		s-0.4,0.3-0.4,0.6L366.6,101.3z"/>
	<path class="st4" d="M377.7,102.3h1.2v0.9h-1.2v2h-1.1v-2h-3.8v-0.7l3.8-5.9h1.2v5.7H377.7z M373.9,102.3h2.6v-4l0,0l-0.1,0.3
		L373.9,102.3z"/>
	<path class="st4" d="M384.3,101.8v3.4h-1.2v-8.5h3.3c0.9,0,1.6,0.2,2.1,0.7s0.8,1.1,0.8,1.9s-0.3,1.4-0.8,1.9s-1.2,0.7-2.1,0.7
		L384.3,101.8L384.3,101.8z M384.3,100.8h2.1c0.6,0,1-0.2,1.3-0.5s0.4-0.7,0.4-1.2s-0.1-0.9-0.4-1.2c-0.3-0.3-0.7-0.5-1.3-0.5h-2.1
		V100.8z"/>
	<path class="st4" d="M392.3,96.7l2.7,6.9l0,0l2.7-6.9h1.5v8.5H398v-3.4l0.1-3.5l0,0l-2.8,6.8h-0.8l-2.8-6.8l0,0l0.1,3.5v3.4h-1.2
		v-8.5H392.3z"/>
</g>
<g>
	<path class="st4" d="M13.3,321c0-0.4-0.1-0.7-0.4-1c-0.3-0.3-0.8-0.5-1.6-0.7c-0.9-0.2-1.6-0.5-2.1-1s-0.8-0.9-0.8-1.6
		s0.3-1.2,0.8-1.7s1.3-0.7,2.1-0.7c0.9,0,1.7,0.3,2.2,0.8s0.8,1.1,0.8,1.8l0,0h-1.1c0-0.5-0.2-0.9-0.5-1.2s-0.8-0.5-1.4-0.5
		c-0.6,0-1,0.1-1.3,0.4s-0.5,0.6-0.5,1s0.2,0.7,0.5,0.9s0.9,0.5,1.6,0.7c0.9,0.2,1.6,0.6,2.1,1s0.7,1,0.7,1.6c0,0.7-0.3,1.2-0.8,1.7
		s-1.3,0.6-2.2,0.6s-1.6-0.2-2.3-0.7s-1-1.1-1-1.9l0,0h1.1c0,0.5,0.2,1,0.6,1.2s0.9,0.4,1.5,0.4s1-0.1,1.4-0.4
		C13.1,321.9,13.3,321.5,13.3,321z"/>
	<path class="st4" d="M17.4,315.4v1.5h1.2v0.9h-1.2v3.8c0,0.3,0.1,0.5,0.2,0.6s0.3,0.2,0.5,0.2c0.1,0,0.1,0,0.2,0s0.2,0,0.2-0.1
		l0.2,0.8c-0.1,0.1-0.2,0.1-0.4,0.2s-0.3,0.1-0.5,0.1c-0.5,0-0.8-0.1-1.1-0.4s-0.4-0.7-0.4-1.3v-3.8h-1V317h1v-1.5h1.1V315.4z"/>
	<path class="st4" d="M24,323.3c0-0.2-0.1-0.4-0.1-0.5s0-0.3,0-0.4c-0.2,0.3-0.5,0.6-0.8,0.8s-0.7,0.3-1.1,0.3
		c-0.7,0-1.2-0.2-1.5-0.5s-0.5-0.8-0.5-1.4s0.2-1.1,0.7-1.4s1.2-0.5,2-0.5H24V319c0-0.4-0.1-0.7-0.3-0.9s-0.5-0.3-1-0.3
		c-0.4,0-0.7,0.1-0.9,0.3s-0.3,0.4-0.3,0.7h-1.1l0,0c0-0.5,0.2-0.9,0.7-1.3s1.1-0.6,1.8-0.6s1.3,0.2,1.7,0.5s0.7,0.9,0.7,1.6v3.1
		c0,0.2,0,0.4,0,0.7s0.1,0.4,0.1,0.6H24V323.3z M22,322.4c0.4,0,0.8-0.1,1.1-0.3s0.6-0.5,0.7-0.7v-1h-1.3c-0.5,0-0.8,0.1-1.1,0.4
		s-0.4,0.5-0.4,0.8s0.1,0.5,0.3,0.7C21.4,322.3,21.7,322.4,22,322.4z"/>
	<path class="st4" d="M29.7,317.9h-0.6c-0.3,0-0.6,0.1-0.8,0.2s-0.4,0.3-0.5,0.6v4.5h-1.2v-6.3h1l0.1,0.9c0.2-0.3,0.4-0.6,0.7-0.8
		s0.6-0.3,0.9-0.3c0.1,0,0.2,0,0.2,0s0.1,0,0.2,0L29.7,317.9z"/>
	<path class="st4" d="M32.4,315.4v1.5h1.2v0.9h-1.2v3.8c0,0.3,0.1,0.5,0.2,0.6s0.3,0.2,0.5,0.2c0.1,0,0.1,0,0.2,0s0.2,0,0.2-0.1
		l0.2,0.8c-0.1,0.1-0.2,0.1-0.4,0.2s-0.3,0.1-0.5,0.1c-0.5,0-0.8-0.1-1.1-0.4s-0.4-0.7-0.4-1.3v-3.8h-1V317h1v-1.5h1.1V315.4z"/>
	<path class="st4" d="M38.2,323.3v-8.5h2.6c1.1,0,2,0.3,2.7,1s1,1.6,1,2.7v1.2c0,1.1-0.3,2-1,2.7s-1.6,1-2.7,1h-2.6V323.3z
		 M39.4,315.5v6.7h1.5c0.8,0,1.4-0.3,1.9-0.8s0.7-1.2,0.7-2v-1.2c0-0.8-0.2-1.5-0.7-2s-1.1-0.8-1.9-0.8L39.4,315.5L39.4,315.5z"/>
	<path class="st4" d="M49.8,323.3c0-0.2-0.1-0.4-0.1-0.5s0-0.3,0-0.4c-0.2,0.3-0.5,0.6-0.8,0.8s-0.7,0.3-1.1,0.3
		c-0.7,0-1.2-0.2-1.5-0.5s-0.5-0.8-0.5-1.4s0.2-1.1,0.7-1.4s1.2-0.5,2-0.5h1.3V319c0-0.4-0.1-0.7-0.3-0.9s-0.5-0.3-1-0.3
		c-0.4,0-0.7,0.1-0.9,0.3s-0.3,0.4-0.3,0.7h-1.1l0,0c0-0.5,0.2-0.9,0.7-1.3s1.1-0.6,1.8-0.6c0.7,0,1.3,0.2,1.7,0.5s0.7,0.9,0.7,1.6
		v3.1c0,0.2,0,0.4,0,0.7s0.1,0.4,0.1,0.6h-1.4V323.3z M47.9,322.4c0.4,0,0.8-0.1,1.1-0.3s0.6-0.5,0.7-0.7v-1h-1.3
		c-0.5,0-0.8,0.1-1.1,0.4s-0.4,0.5-0.4,0.8s0.1,0.5,0.3,0.7C47.3,322.3,47.5,322.4,47.9,322.4z"/>
	<path class="st4" d="M54,315.4v1.5h1.2v0.9H54v3.8c0,0.3,0.1,0.5,0.2,0.6s0.3,0.2,0.5,0.2c0.1,0,0.1,0,0.2,0s0.2,0,0.2-0.1l0.2,0.8
		c-0.1,0.1-0.2,0.1-0.4,0.2s-0.3,0.1-0.5,0.1c-0.5,0-0.8-0.1-1.1-0.4s-0.4-0.7-0.4-1.3v-3.8h-1V317h1v-1.5H54V315.4z"/>
	<path class="st4" d="M59.3,323.4c-0.9,0-1.6-0.3-2.1-0.9s-0.8-1.4-0.8-2.3v-0.3c0-0.9,0.3-1.7,0.8-2.3s1.2-0.9,1.9-0.9
		c0.9,0,1.5,0.3,1.9,0.8s0.7,1.2,0.7,2.1v0.7h-4.1l0,0c0,0.6,0.2,1.1,0.5,1.5s0.7,0.6,1.2,0.6c0.4,0,0.7-0.1,1-0.2s0.5-0.3,0.8-0.5
		l0.5,0.8c-0.2,0.2-0.5,0.4-0.9,0.6C60.3,323.3,59.8,323.4,59.3,323.4z M59.1,317.6c-0.4,0-0.7,0.2-1,0.5s-0.4,0.7-0.5,1.2l0,0h2.9
		v-0.1c0-0.5-0.1-0.8-0.4-1.1C59.9,317.9,59.6,317.6,59.1,317.6z"/>
	<path class="st4" d="M65.5,321c0-0.5,0.1-0.9,0.4-1.3s0.7-0.7,1.2-1.1c-0.3-0.4-0.5-0.7-0.7-1s-0.2-0.6-0.2-0.9
		c0-0.7,0.2-1.2,0.6-1.5s0.9-0.5,1.6-0.5c0.6,0,1.1,0.2,1.5,0.5s0.6,0.8,0.6,1.3c0,0.4-0.1,0.7-0.3,1s-0.5,0.6-0.9,0.9l-0.6,0.5
		l2,2.4c0.2-0.3,0.3-0.5,0.4-0.8s0.1-0.6,0.1-1h1c0,0.5-0.1,1-0.2,1.4s-0.4,0.8-0.7,1.2l1.1,1.3l0,0h-1.3l-0.5-0.6
		c-0.3,0.2-0.7,0.4-1,0.5s-0.8,0.2-1.2,0.2c-0.8,0-1.5-0.2-2-0.7S65.5,321.6,65.5,321z M68.3,322.5c0.3,0,0.6,0,0.8-0.1
		c0.3-0.1,0.5-0.2,0.8-0.4l-2.1-2.5l-0.2,0.2c-0.4,0.3-0.6,0.5-0.7,0.8c-0.1,0.2-0.2,0.5-0.2,0.7c0,0.4,0.1,0.8,0.4,1.1
		C67.4,322.3,67.8,322.5,68.3,322.5z M67.4,316.6c0,0.2,0.1,0.4,0.2,0.6s0.3,0.5,0.5,0.7l0.8-0.6c0.2-0.1,0.4-0.3,0.5-0.5
		s0.1-0.4,0.1-0.6s-0.1-0.4-0.3-0.6s-0.4-0.3-0.7-0.3c-0.3,0-0.6,0.1-0.7,0.3S67.4,316.3,67.4,316.6z"/>
	<path class="st4" d="M82.4,315.5h-2.7v7.6h-1.2v-7.6h-2.7v-0.9h6.6C82.4,314.6,82.4,315.5,82.4,315.5z"/>
	<path class="st4" d="M84.7,315.3h-1.2V314h1.2V315.3z M84.7,323.3h-1.2V317h1.2V323.3z"/>
	<path class="st4" d="M87.5,316.9l0.1,0.8c0.2-0.3,0.5-0.5,0.8-0.7s0.7-0.2,1.1-0.2s0.8,0.1,1.1,0.3s0.5,0.5,0.7,0.9
		c0.2-0.4,0.5-0.6,0.8-0.9s0.7-0.3,1.1-0.3c0.6,0,1.2,0.2,1.5,0.7s0.6,1.1,0.6,2v3.8h-1.2v-3.8c0-0.6-0.1-1.1-0.3-1.3
		s-0.5-0.4-1-0.4c-0.4,0-0.7,0.1-1,0.4s-0.4,0.6-0.4,1l0,0v4h-1.2v-3.8c0-0.6-0.1-1-0.3-1.3s-0.5-0.4-1-0.4c-0.4,0-0.6,0.1-0.9,0.2
		s-0.4,0.3-0.5,0.6v4.7h-1.2v-6.3L87.5,316.9L87.5,316.9z"/>
	<path class="st4" d="M99.6,323.4c-0.9,0-1.6-0.3-2.1-0.9s-0.8-1.4-0.8-2.3v-0.3c0-0.9,0.3-1.7,0.8-2.3s1.2-0.9,1.9-0.9
		c0.9,0,1.5,0.3,1.9,0.8s0.7,1.2,0.7,2.1v0.7h-4.1l0,0c0,0.6,0.2,1.1,0.5,1.5s0.7,0.6,1.2,0.6c0.4,0,0.7-0.1,1-0.2s0.5-0.3,0.8-0.5
		l0.5,0.8c-0.2,0.2-0.5,0.4-0.9,0.6C100.6,323.3,100.1,323.4,99.6,323.4z M99.4,317.6c-0.4,0-0.7,0.2-1,0.5s-0.4,0.7-0.5,1.2l0,0
		h2.9v-0.1c0-0.5-0.1-0.8-0.4-1.1C100.3,317.9,99.9,317.6,99.4,317.6z"/>
</g>
<g>
	<path class="st8" d="M256.1,161.6l2.7,6.9l0,0l2.7-6.9h1.5v8.5h-1.1v-3.4l0.1-3.5l0,0l-2.8,6.8h-0.8l-2.8-6.8l0,0l0.1,3.5v3.4h-1.2
		v-8.5H256.1z"/>
	<path class="st8" d="M270.3,166.3h-3.9v3h4.5v0.9h-5.7v-8.5h5.6v0.9h-4.4v2.8h3.9V166.3z"/>
	<path class="st8" d="M273.4,166.6v3.7h-1.2v-8.5h3.1c0.9,0,1.6,0.2,2.1,0.6s0.7,1,0.7,1.8c0,0.4-0.1,0.8-0.3,1.1s-0.6,0.6-1,0.8
		c0.5,0.2,0.8,0.4,1,0.7s0.3,0.8,0.3,1.3v0.8c0,0.3,0,0.5,0.1,0.7s0.2,0.4,0.3,0.5v0.1h-1.2c-0.2-0.1-0.3-0.3-0.3-0.6
		s-0.1-0.5-0.1-0.8V168c0-0.5-0.1-0.8-0.4-1.1s-0.6-0.4-1.1-0.4L273.4,166.6L273.4,166.6z M273.4,165.6h1.8c0.7,0,1.1-0.1,1.4-0.4
		c0.3-0.2,0.4-0.6,0.4-1.1s-0.1-0.9-0.4-1.1c-0.3-0.3-0.7-0.4-1.3-0.4h-1.9V165.6z"/>
	<path class="st8" d="M286.3,169.1c-0.2,0.3-0.6,0.6-1.1,0.9s-1.2,0.4-1.9,0.4c-1,0-1.9-0.3-2.5-1s-1-1.5-1-2.5V165
		c0-1,0.3-1.9,0.9-2.5s1.4-1,2.4-1s1.7,0.2,2.3,0.7s0.8,1.1,0.9,1.9l0,0h-1.1c0-0.5-0.2-0.9-0.6-1.2s-0.8-0.5-1.5-0.5
		s-1.2,0.2-1.6,0.7s-0.6,1.1-0.6,1.9v1.8c0,0.8,0.2,1.4,0.7,1.9c0.4,0.5,1,0.7,1.7,0.7c0.5,0,0.9-0.1,1.2-0.2
		c0.3-0.1,0.5-0.3,0.7-0.4v-1.9h-1.9V166h3V169.1z"/>
	<path class="st8" d="M293.4,166.3h-3.9v3h4.5v0.9h-5.7v-8.5h5.6v0.9h-4.4v2.8h3.9V166.3z"/>
</g>
<g>
	<path class="st8" d="M365.3,168.1c0-0.4-0.1-0.7-0.4-1s-0.8-0.5-1.6-0.7c-0.9-0.2-1.6-0.5-2.1-1s-0.8-0.9-0.8-1.6
		c0-0.7,0.3-1.2,0.8-1.7s1.3-0.7,2.1-0.7c0.9,0,1.7,0.3,2.2,0.8s0.8,1.1,0.8,1.8l0,0h-1.1c0-0.5-0.2-0.9-0.5-1.2s-0.8-0.5-1.4-0.5
		s-1,0.1-1.3,0.4s-0.5,0.6-0.5,1s0.2,0.7,0.5,0.9s0.9,0.5,1.6,0.7c0.9,0.2,1.6,0.6,2.1,1s0.7,1,0.7,1.6c0,0.7-0.3,1.2-0.8,1.7
		s-1.3,0.6-2.2,0.6c-0.9,0-1.6-0.2-2.3-0.7s-1-1.1-1-1.9l0,0h1.1c0,0.5,0.2,1,0.6,1.2s0.9,0.4,1.5,0.4s1-0.1,1.4-0.4
		C365.1,168.9,365.3,168.4,365.3,168.1z"/>
	<path class="st8" d="M369.3,166.8v3.4h-1.2v-8.5h3.3c0.9,0,1.6,0.2,2.1,0.7s0.8,1.1,0.8,1.9c0,0.8-0.3,1.4-0.8,1.9
		s-1.2,0.7-2.1,0.7L369.3,166.8L369.3,166.8z M369.3,165.9h2.1c0.6,0,1-0.2,1.3-0.5s0.4-0.7,0.4-1.2s-0.1-0.9-0.4-1.2
		s-0.7-0.5-1.3-0.5h-2.1V165.9z"/>
	<path class="st8" d="M377,169.4h4v0.9h-5.2v-8.5h1.2V169.4z"/>
	<path class="st8" d="M383.5,170.3h-1.2v-8.5h1.2V170.3z"/>
	<path class="st8" d="M391.3,162.6h-2.7v7.6h-1.2v-7.6h-2.7v-0.9h6.6L391.3,162.6L391.3,162.6z"/>
</g>
<g>
	<path class="st8" d="M470.7,166.3h-3.9v3h4.5v0.9h-5.7v-8.5h5.6v0.9h-4.4v2.8h3.9V166.3z"/>
	<path class="st8" d="M472.7,170.3v-8.5h2.6c1.1,0,2,0.3,2.7,1s1,1.6,1,2.7v1.2c0,1.1-0.3,2-1,2.7s-1.6,1-2.7,1L472.7,170.3
		L472.7,170.3z M473.8,162.6v6.7h1.5c0.8,0,1.4-0.3,1.9-0.8s0.7-1.2,0.7-2v-1.2c0-0.8-0.2-1.5-0.7-2s-1.1-0.8-1.9-0.8h-1.5V162.6z"
		/>
	<path class="st8" d="M481.8,170.3h-1.2v-8.5h1.2V170.3z"/>
	<path class="st8" d="M489.6,162.6h-2.7v7.6h-1.2v-7.6h-2.8v-0.9h6.6v0.9H489.6z"/>
</g>
<path id="Path_58" class="st9" d="M248.6,44.3h241.5c6.6,0,12,5.4,12,12.1v120.6c0,6.6-5.4,12-12,12.1H295.7l-6.8,24.7L278,189.1
	h-29.4c-6.6,0-12-5.4-12-12.1V56.3C236.6,49.7,242,44.3,248.6,44.3z"/>
<g>
	<path class="st4" d="M257.6,124.3h-1.2v-7.4h-1.7v-0.8l2.9-0.3L257.6,124.3L257.6,124.3z"/>
	<path class="st4" d="M261.4,120.4l0.5-4.7h4.3v1h-3.3l-0.3,2.4c0.2-0.1,0.4-0.2,0.6-0.3s0.5-0.1,0.8-0.1c0.8,0,1.4,0.2,1.9,0.8
		s0.7,1.2,0.7,2.1c0,0.9-0.2,1.5-0.7,2.1s-1.1,0.8-2,0.8c-0.7,0-1.3-0.2-1.8-0.6s-0.7-1-0.7-1.7l0,0h1c0,0.5,0.1,0.8,0.4,1.1
		s0.6,0.4,1,0.4c0.5,0,0.9-0.2,1.1-0.5c0.3-0.3,0.4-0.8,0.4-1.4c0-0.5-0.1-1-0.4-1.3c-0.3-0.4-0.7-0.5-1.1-0.5c-0.5,0-0.8,0.1-1,0.2
		s-0.4,0.3-0.4,0.6L261.4,120.4z"/>
	<path class="st4" d="M268.2,124.9h-1l3.6-9.3h1L268.2,124.9z"/>
	<path class="st4" d="M278.2,120.9c0,1.1-0.2,1.9-0.7,2.5s-1.1,0.9-2,0.9s-1.5-0.3-2-0.9s-0.7-1.4-0.7-2.5v-2c0-1.1,0.2-1.9,0.7-2.5
		s1.1-0.9,2-0.9c0.8,0,1.5,0.3,2,0.9s0.7,1.4,0.7,2.5V120.9z M277,118.6c0-0.7-0.1-1.3-0.4-1.7s-0.7-0.6-1.2-0.6s-0.9,0.2-1.2,0.6
		c-0.3,0.4-0.4,0.9-0.4,1.7v2.5c0,0.7,0.1,1.3,0.4,1.7s0.7,0.6,1.2,0.6s0.9-0.2,1.2-0.6c0.3-0.4,0.4-0.9,0.4-1.7V118.6z"/>
	<path class="st4" d="M281.8,123.4c0.6,0,1-0.2,1.4-0.6s0.5-1.1,0.5-1.9v-0.4c-0.2,0.3-0.4,0.5-0.7,0.6s-0.6,0.2-1,0.2
		c-0.8,0-1.5-0.3-2-0.8s-0.7-1.2-0.7-2.1c0-0.9,0.3-1.6,0.8-2.1s1.1-0.8,1.9-0.8c0.9,0,1.6,0.3,2.1,0.8s0.8,1.4,0.8,2.5v2
		c0,1.1-0.3,2-0.8,2.6s-1.3,0.9-2.2,0.9c-0.3,0-0.6,0-0.9-0.1s-0.6-0.1-0.8-0.3l0.2-0.9c0.2,0.1,0.5,0.2,0.7,0.3
		S281.5,123.4,281.8,123.4z M282,120.4c0.4,0,0.8-0.1,1.1-0.3c0.3-0.2,0.5-0.4,0.6-0.7v-0.7c0-0.7-0.1-1.3-0.4-1.7s-0.7-0.6-1.3-0.6
		c-0.4,0-0.8,0.2-1.1,0.6c-0.3,0.4-0.4,0.9-0.4,1.4c0,0.6,0.1,1.1,0.4,1.4C281.2,120.3,281.6,120.4,282,120.4z"/>
	<path class="st4" d="M286.7,124.9h-1l3.6-9.3h1L286.7,124.9z"/>
	<path class="st4" d="M296.8,124.3h-5.5v-0.8l2.8-3.1c0.5-0.6,0.8-1,1-1.3s0.3-0.7,0.3-1c0-0.4-0.1-0.8-0.4-1.1s-0.6-0.4-1-0.4
		c-0.6,0-1,0.2-1.3,0.5s-0.4,0.7-0.4,1.3h-1.1l0,0c0-0.7,0.2-1.4,0.7-1.9s1.2-0.8,2.1-0.8c0.8,0,1.4,0.2,1.8,0.7s0.7,1,0.7,1.7
		c0,0.5-0.1,0.9-0.4,1.4s-0.7,1-1.2,1.5l-2.2,2.4l0,0h4.1V124.3z"/>
	<path class="st4" d="M303.4,120.9c0,1.1-0.2,1.9-0.7,2.5s-1.1,0.9-2,0.9s-1.5-0.3-2-0.9s-0.7-1.4-0.7-2.5v-2c0-1.1,0.2-1.9,0.7-2.5
		s1.1-0.9,2-0.9c0.8,0,1.5,0.3,2,0.9s0.7,1.4,0.7,2.5V120.9z M302.3,118.6c0-0.7-0.1-1.3-0.4-1.7s-0.7-0.6-1.2-0.6s-0.9,0.2-1.2,0.6
		c-0.3,0.4-0.4,0.9-0.4,1.7v2.5c0,0.7,0.1,1.3,0.4,1.7s0.7,0.6,1.2,0.6s0.9-0.2,1.2-0.6c0.3-0.4,0.4-0.9,0.4-1.7V118.6z"/>
	<path class="st4" d="M310.3,124.3h-5.5v-0.8l2.8-3.1c0.5-0.6,0.8-1,1-1.3s0.3-0.7,0.3-1c0-0.4-0.1-0.8-0.4-1.1s-0.6-0.4-1-0.4
		c-0.6,0-1,0.2-1.3,0.5s-0.4,0.7-0.4,1.3h-1.1l0,0c0-0.7,0.2-1.4,0.7-1.9s1.2-0.8,2.1-0.8c0.8,0,1.4,0.2,1.8,0.7s0.7,1,0.7,1.7
		c0,0.5-0.1,0.9-0.4,1.4s-0.7,1-1.2,1.5l-2.2,2.4l0,0h4.1V124.3z"/>
	<path class="st4" d="M317,120.9c0,1.1-0.2,1.9-0.7,2.5s-1.1,0.9-2,0.9s-1.5-0.3-2-0.9s-0.7-1.4-0.7-2.5v-2c0-1.1,0.2-1.9,0.7-2.5
		s1.1-0.9,2-0.9c0.8,0,1.5,0.3,2,0.9s0.7,1.4,0.7,2.5V120.9z M315.8,118.6c0-0.7-0.1-1.3-0.4-1.7s-0.7-0.6-1.2-0.6s-0.9,0.2-1.2,0.6
		c-0.3,0.4-0.4,0.9-0.4,1.7v2.5c0,0.7,0.1,1.3,0.4,1.7s0.7,0.6,1.2,0.6s0.9-0.2,1.2-0.6c0.3-0.4,0.4-0.9,0.4-1.7V118.6z"/>
	<path class="st4" d="M325.5,125.8h-0.9v-10.1h0.9V125.8z"/>
	<path class="st4" d="M338.6,120.9c0,1.1-0.2,1.9-0.7,2.5s-1.1,0.9-2,0.9s-1.5-0.3-2-0.9s-0.7-1.4-0.7-2.5v-2c0-1.1,0.2-1.9,0.7-2.5
		s1.1-0.9,2-0.9c0.8,0,1.5,0.3,2,0.9s0.7,1.4,0.7,2.5V120.9z M337.5,118.6c0-0.7-0.1-1.3-0.4-1.7s-0.7-0.6-1.2-0.6s-0.9,0.2-1.2,0.6
		c-0.3,0.4-0.4,0.9-0.4,1.7v2.5c0,0.7,0.1,1.3,0.4,1.7s0.7,0.6,1.2,0.6s0.9-0.2,1.2-0.6c0.3-0.4,0.4-0.9,0.4-1.7V118.6z"/>
	<path class="st4" d="M343.2,115.6c0.3,0,0.6,0,0.9,0.1s0.5,0.2,0.7,0.3l-0.2,0.9c-0.2-0.1-0.4-0.2-0.6-0.2s-0.5-0.1-0.7-0.1
		c-0.6,0-1.1,0.2-1.5,0.7s-0.6,1.1-0.6,1.9v0.1c0.3-0.2,0.5-0.4,0.9-0.5s0.7-0.2,1-0.2c0.8,0,1.4,0.3,1.8,0.8s0.7,1.2,0.7,2
		c0,0.9-0.2,1.6-0.7,2.2s-1.1,0.8-1.9,0.8s-1.5-0.3-2.1-0.9s-0.8-1.5-0.8-2.6v-1.6c0-1.1,0.3-2,0.9-2.7S342.3,115.6,343.2,115.6z
		 M342.8,119.4c-0.4,0-0.7,0.1-1,0.2c-0.3,0.2-0.5,0.4-0.6,0.6v0.7c0,0.8,0.2,1.4,0.5,1.8s0.7,0.6,1.2,0.6s0.8-0.2,1.1-0.6
		s0.4-0.9,0.4-1.5s-0.1-1-0.4-1.4C343.7,119.6,343.3,119.4,342.8,119.4z"/>
	<path class="st4" d="M348.1,119.1h-1.2v-1.2h1.2V119.1z M348.1,124.3h-1.2v-1.2h1.2V124.3z"/>
	<path class="st4" d="M355.3,124.3h-5.5v-0.8l2.8-3.1c0.5-0.6,0.8-1,1-1.3s0.3-0.7,0.3-1c0-0.4-0.1-0.8-0.4-1.1s-0.6-0.4-1-0.4
		c-0.6,0-1,0.2-1.3,0.5s-0.4,0.7-0.4,1.3h-1.1l0,0c0-0.7,0.2-1.4,0.7-1.9s1.2-0.8,2.1-0.8c0.8,0,1.4,0.2,1.8,0.7s0.7,1,0.7,1.7
		c0,0.5-0.1,0.9-0.4,1.4s-0.7,1-1.2,1.5l-2.2,2.4l0,0h4.1V124.3z"/>
	<path class="st4" d="M361.7,117.9c0,0.4-0.1,0.8-0.4,1.2s-0.6,0.6-1,0.7c0.5,0.2,0.9,0.4,1.2,0.8s0.4,0.8,0.4,1.3
		c0,0.8-0.3,1.4-0.8,1.8s-1.2,0.6-2,0.6s-1.5-0.2-2-0.6s-0.8-1-0.8-1.8c0-0.5,0.1-0.9,0.4-1.3s0.7-0.6,1.2-0.8
		c-0.4-0.2-0.8-0.4-1-0.7s-0.4-0.7-0.4-1.2c0-0.8,0.2-1.3,0.7-1.7s1.1-0.6,1.8-0.6c0.8,0,1.4,0.2,1.8,0.6S361.7,117.1,361.7,117.9z
		 M360.8,121.9c0-0.5-0.2-0.9-0.5-1.2s-0.7-0.5-1.2-0.5s-0.9,0.2-1.2,0.5c-0.3,0.3-0.4,0.7-0.4,1.2s0.1,0.9,0.4,1.1
		c0.3,0.3,0.7,0.4,1.2,0.4s0.9-0.1,1.2-0.4C360.7,122.8,360.8,122.4,360.8,121.9z M360.6,117.9c0-0.4-0.1-0.8-0.4-1s-0.6-0.4-1-0.4
		s-0.7,0.1-1,0.4s-0.4,0.6-0.4,1.1c0,0.4,0.1,0.8,0.4,1s0.6,0.4,1,0.4s0.7-0.1,1-0.4S360.6,118.4,360.6,117.9z"/>
	<path class="st4" d="M364.7,119.1h-1.2v-1.2h1.2V119.1z M364.7,124.3h-1.2v-1.2h1.2V124.3z"/>
	<path class="st4" d="M367.9,119.4h1c0.5,0,0.9-0.1,1.1-0.4s0.3-0.6,0.3-1.1s-0.1-0.9-0.4-1.1s-0.6-0.4-1.1-0.4
		c-0.4,0-0.8,0.1-1.1,0.4s-0.4,0.6-0.4,1.1h-1.1l0,0c0-0.6,0.2-1.2,0.7-1.6s1.1-0.7,1.9-0.7s1.4,0.2,1.9,0.6s0.7,1,0.7,1.8
		c0,0.4-0.1,0.7-0.3,1.1s-0.5,0.6-1,0.8c0.5,0.2,0.9,0.4,1.1,0.8s0.3,0.8,0.3,1.2c0,0.8-0.3,1.4-0.8,1.8s-1.2,0.7-2,0.7
		s-1.4-0.2-1.9-0.6s-0.8-1-0.7-1.7l0,0h1.1c0,0.4,0.1,0.8,0.4,1.1s0.7,0.4,1.1,0.4c0.5,0,0.9-0.1,1.1-0.4s0.4-0.7,0.4-1.2
		s-0.1-0.9-0.4-1.2s-0.6-0.4-1.2-0.4h-1v-1H367.9z"/>
	<path class="st4" d="M378.6,124.3h-5.5v-0.8l2.8-3.1c0.5-0.6,0.8-1,1-1.3s0.3-0.7,0.3-1c0-0.4-0.1-0.8-0.4-1.1s-0.6-0.4-1-0.4
		c-0.6,0-1,0.2-1.3,0.5s-0.4,0.7-0.4,1.3h-1.2l0,0c0-0.7,0.2-1.4,0.7-1.9s1.2-0.8,2.1-0.8c0.8,0,1.4,0.2,1.8,0.7s0.7,1,0.7,1.7
		c0,0.5-0.1,0.9-0.4,1.4s-0.7,1-1.2,1.5l-2.2,2.4l0,0h4.1v0.9H378.6z"/>
	<path class="st4" d="M387.8,122.1h-3.6l-0.8,2.2h-1.2l3.3-8.5h1l3.2,8.5h-1.2L387.8,122.1z M384.6,121.1h2.9l-1.4-3.9l0,0
		L384.6,121.1z"/>
	<path class="st4" d="M392.4,115.6l2.7,6.9l0,0l2.7-6.9h1.5v8.5h-1.2v-3.4l0.1-3.5l0,0l-2.8,6.8h-0.8l-2.8-6.8l0,0l0.1,3.5v3.4h-1
		v-8.5H392.4z"/>
</g>
<g>
	<path class="st4" d="M826,319.3h-3.9v3h4.5v0.9h-5.7v-8.5h5.6v0.9h-4.4v2.8h3.9V319.3z"/>
	<path class="st4" d="M828.8,316.9l0.1,0.9c0.2-0.3,0.5-0.6,0.8-0.8s0.7-0.3,1.1-0.3c0.7,0,1.2,0.2,1.6,0.6s0.6,1,0.6,1.9v4h-1.2v-4
		c0-0.6-0.1-1-0.3-1.2s-0.6-0.4-1-0.4c-0.3,0-0.6,0.1-0.9,0.2s-0.5,0.4-0.6,0.7v4.6h-1.2v-6.3L828.8,316.9L828.8,316.9z"/>
	<path class="st4" d="M834.3,320.1c0-1,0.2-1.8,0.7-2.5s1-0.9,1.8-0.9c0.4,0,0.7,0.1,1,0.2s0.5,0.3,0.7,0.6v-3.5h1.2v9.1h-0.9
		l-0.1-0.8c-0.2,0.3-0.5,0.5-0.8,0.7s-0.7,0.2-1,0.2c-0.8,0-1.4-0.3-1.8-0.8s-0.7-1.3-0.7-2.2L834.3,320.1L834.3,320.1z
		 M835.5,320.3c0,0.6,0.1,1.2,0.4,1.5s0.7,0.6,1.2,0.6c0.3,0,0.6-0.1,0.9-0.2s0.4-0.4,0.6-0.7v-3c-0.1-0.3-0.3-0.5-0.6-0.6
		s-0.5-0.2-0.9-0.2c-0.6,0-1,0.2-1.2,0.7s-0.4,1.1-0.4,1.8V320.3z"/>
	<path class="st4" d="M844.6,323.3v-8.5h2.6c1.1,0,2,0.3,2.7,1s1,1.6,1,2.7v1.2c0,1.1-0.3,2-1,2.7s-1.6,1-2.7,1h-2.6V323.3z
		 M845.8,315.5v6.7h1.5c0.8,0,1.4-0.3,1.9-0.8s0.7-1.2,0.7-2v-1.2c0-0.8-0.2-1.5-0.7-2s-1.1-0.8-1.9-0.8L845.8,315.5L845.8,315.5z"
		/>
	<path class="st4" d="M856.2,323.3c0-0.2-0.1-0.4-0.1-0.5s0-0.3,0-0.4c-0.2,0.3-0.5,0.6-0.8,0.8s-0.7,0.3-1.1,0.3
		c-0.7,0-1.2-0.2-1.5-0.5s-0.5-0.8-0.5-1.4s0.2-1.1,0.7-1.4s1.2-0.5,2-0.5h1.3V319c0-0.4-0.1-0.7-0.3-0.9s-0.5-0.3-1-0.3
		c-0.4,0-0.7,0.1-0.9,0.3s-0.3,0.4-0.3,0.7h-1.1l0,0c0-0.5,0.2-0.9,0.7-1.3s1.1-0.6,1.8-0.6c0.7,0,1.3,0.2,1.7,0.5s0.7,0.9,0.7,1.6
		v3.1c0,0.2,0,0.4,0,0.7s0.1,0.4,0.1,0.6h-1.4V323.3z M854.3,322.4c0.4,0,0.8-0.1,1.1-0.3s0.6-0.5,0.7-0.7v-1h-1.3
		c-0.5,0-0.8,0.1-1.1,0.4s-0.4,0.5-0.4,0.8s0.1,0.5,0.3,0.7C853.7,322.3,853.9,322.4,854.3,322.4z"/>
	<path class="st4" d="M860.4,315.4v1.5h1.2v0.9h-1.2v3.8c0,0.3,0.1,0.5,0.2,0.6s0.3,0.2,0.5,0.2c0.1,0,0.1,0,0.2,0s0.2,0,0.2-0.1
		l0.2,0.8c-0.1,0.1-0.2,0.1-0.4,0.2s-0.3,0.1-0.5,0.1c-0.5,0-0.8-0.1-1.1-0.4s-0.4-0.7-0.4-1.3v-3.8h-1V317h1v-1.5h1.1V315.4z"/>
	<path class="st4" d="M865.7,323.4c-0.9,0-1.6-0.3-2.1-0.9s-0.8-1.4-0.8-2.3v-0.3c0-0.9,0.3-1.7,0.8-2.3s1.2-0.9,1.9-0.9
		c0.9,0,1.5,0.3,1.9,0.8s0.7,1.2,0.7,2.1v0.7H864l0,0c0,0.6,0.2,1.1,0.5,1.5s0.7,0.6,1.2,0.6c0.4,0,0.7-0.1,1-0.2s0.5-0.3,0.8-0.5
		l0.5,0.8c-0.2,0.2-0.5,0.4-0.9,0.6C866.7,323.3,866.2,323.4,865.7,323.4z M865.5,317.6c-0.4,0-0.7,0.2-1,0.5s-0.4,0.7-0.5,1.2l0,0
		h2.9v-0.1c0-0.5-0.1-0.8-0.4-1.1C866.3,317.9,866,317.6,865.5,317.6z"/>
	<path class="st4" d="M871.9,321c0-0.5,0.1-0.9,0.4-1.3s0.7-0.7,1.2-1.1c-0.3-0.4-0.5-0.7-0.7-1s-0.2-0.6-0.2-0.9
		c0-0.7,0.2-1.2,0.6-1.5s0.9-0.5,1.6-0.5c0.6,0,1.1,0.2,1.5,0.5s0.6,0.8,0.6,1.3c0,0.4-0.1,0.7-0.3,1s-0.5,0.6-0.9,0.9l-0.6,0.5
		l2,2.4c0.2-0.3,0.3-0.5,0.4-0.8s0.1-0.6,0.1-1h1c0,0.5-0.1,1-0.2,1.4s-0.4,0.8-0.7,1.2l1.1,1.3l0,0h-1.3l-0.5-0.6
		c-0.3,0.2-0.7,0.4-1,0.5s-0.8,0.2-1.2,0.2c-0.8,0-1.5-0.2-2-0.7S871.9,321.6,871.9,321z M874.7,322.5c0.3,0,0.6,0,0.8-0.1
		c0.3-0.1,0.5-0.2,0.8-0.4l-2.1-2.5l-0.2,0.2c-0.4,0.3-0.6,0.5-0.7,0.8c-0.1,0.2-0.2,0.5-0.2,0.7c0,0.4,0.1,0.8,0.4,1.1
		C873.8,322.3,874.2,322.5,874.7,322.5z M873.8,316.6c0,0.2,0.1,0.4,0.2,0.6s0.3,0.5,0.5,0.7l0.8-0.6c0.2-0.1,0.4-0.3,0.5-0.5
		s0.1-0.4,0.1-0.6s-0.1-0.4-0.3-0.6s-0.4-0.3-0.7-0.3c-0.3,0-0.6,0.1-0.7,0.3S873.8,316.3,873.8,316.6z"/>
	<path class="st4" d="M888.8,315.5h-2.7v7.6h-1.2v-7.6h-2.7v-0.9h6.6L888.8,315.5L888.8,315.5z"/>
	<path class="st4" d="M891.1,315.3h-1.2V314h1.2V315.3z M891.1,323.3h-1.2V317h1.2V323.3z"/>
	<path class="st4" d="M893.9,316.9l0.1,0.8c0.2-0.3,0.5-0.5,0.8-0.7s0.7-0.2,1.1-0.2s0.8,0.1,1.1,0.3s0.5,0.5,0.7,0.9
		c0.2-0.4,0.5-0.6,0.8-0.9s0.7-0.3,1.1-0.3c0.6,0,1.2,0.2,1.5,0.7s0.6,1.1,0.6,2v3.8h-1.2v-3.8c0-0.6-0.1-1.1-0.3-1.3
		s-0.5-0.4-1-0.4c-0.4,0-0.7,0.1-1,0.4s-0.4,0.6-0.4,1l0,0v4h-1.2v-3.8c0-0.6-0.1-1-0.3-1.3s-0.5-0.4-1-0.4c-0.4,0-0.6,0.1-0.9,0.2
		s-0.4,0.3-0.5,0.6v4.7h-1.2v-6.3L893.9,316.9L893.9,316.9z"/>
	<path class="st4" d="M906,323.4c-0.9,0-1.6-0.3-2.1-0.9s-0.8-1.4-0.8-2.3v-0.3c0-0.9,0.3-1.7,0.8-2.3s1.2-0.9,1.9-0.9
		c0.9,0,1.5,0.3,1.9,0.8s0.7,1.2,0.7,2.1v0.7h-4.1l0,0c0,0.6,0.2,1.1,0.5,1.5s0.7,0.6,1.2,0.6c0.4,0,0.7-0.1,1-0.2s0.5-0.3,0.8-0.5
		l0.5,0.8c-0.2,0.2-0.5,0.4-0.9,0.6C907,323.3,906.5,323.4,906,323.4z M905.8,317.6c-0.4,0-0.7,0.2-1,0.5s-0.4,0.7-0.5,1.2l0,0h2.9
		v-0.1c0-0.5-0.1-0.8-0.4-1.1C906.7,317.9,906.3,317.6,905.8,317.6z"/>
</g>
<rect x="9.4" y="221.1" class="st10" width="900.6" height="80"/>
<g transform="matrix(1, 0, 0, 1, 0, 0)">
	<g id="Rectangle_5-2">
		<rect x="279.8" y="218.6" class="st0" width="15" height="85"/>
		<path d="M292.3,221.1v80h-10v-80H292.3 M297.3,216.1h-5h-10h-5v5v80v5h5h10h5v-5v-80V216.1L297.3,216.1z"/>
	</g>
</g>
<g transform="matrix(1, 0, 0, 1, 0, 0)">
	<rect id="Rectangle_5-2_1_" x="282.3" y="221.1" class="st11" width="10" height="80"/>
</g>
</svg>
